<?xml version="1.0" encoding="UTF-8" standalone="no"?>
<!DOCTYPE svg PUBLIC "-//W3C//DTD SVG 1.1//EN"
 "http://www.w3.org/Graphics/SVG/1.1/DTD/svg11.dtd">
<!-- Generated by graphviz version 2.43.0 (0)
 -->
<!-- Title: %3 Pages: 1 -->
<svg width="1735pt" height="804pt"
 viewBox="0.00 0.00 1735.00 804.00" xmlns="http://www.w3.org/2000/svg" xmlns:xlink="http://www.w3.org/1999/xlink">
<g id="graph0" class="graph" transform="scale(1 1) rotate(0) translate(4 800)">
<title>%3</title>
<polygon fill="#242424" stroke="transparent" points="-4,4 -4,-800 1731,-800 1731,4 -4,4"/>
<!-- cli -->
<g id="node1" class="node">
<title>cli</title>
<polygon fill="#343434" stroke="#343434" points="76.5,-419 22.5,-419 22.5,-383 76.5,-383 76.5,-419"/>
<text text-anchor="middle" x="49.5" y="-397.3" font-family="Courier,monospace" font-size="14.00" fill="#b6ecf3">cli</text>
</g>
<!-- shot_glass.blender.blender_tools -->
<g id="node2" class="node">
<title>shot_glass.blender.blender_tools</title>
<polygon fill="#343434" stroke="#343434" points="1452,-634 1171,-634 1171,-598 1452,-598 1452,-634"/>
<text text-anchor="middle" x="1311.5" y="-612.3" font-family="Courier,monospace" font-size="14.00" fill="#b6ecf3">shot_glass.blender.blender_tools</text>
</g>
<!-- shot_glass.hifive.operators -->
<g id="node6" class="node">
<title>shot_glass.hifive.operators</title>
<polygon fill="#343434" stroke="#343434" points="1727,-431 1488,-431 1488,-395 1727,-395 1727,-431"/>
<text text-anchor="middle" x="1607.5" y="-409.3" font-family="Courier,monospace" font-size="14.00" fill="#b6ecf3">shot_glass.hifive.operators</text>
</g>
<!-- shot_glass.blender.blender_tools&#45;&gt;shot_glass.hifive.operators -->
<g id="edge1" class="edge">
<title>shot_glass.blender.blender_tools&#45;&gt;shot_glass.hifive.operators</title>
<path fill="none" stroke="#b6ecf3" d="M1402.17,-597.95C1419.42,-592.39 1436.82,-585.22 1452,-576 1510.99,-540.18 1562.27,-475.97 1588.29,-439.75"/>
<polygon fill="#b6ecf3" stroke="#b6ecf3" points="1591.44,-441.37 1594.36,-431.18 1585.72,-437.33 1591.44,-441.37"/>
</g>
<!-- shot_glass.hifive.hifive -->
<g id="node3" class="node">
<title>shot_glass.hifive.hifive</title>
<polygon fill="#343434" stroke="#343434" points="851,-519 636,-519 636,-483 851,-483 851,-519"/>
<text text-anchor="middle" x="743.5" y="-497.3" font-family="Courier,monospace" font-size="14.00" fill="#b6ecf3">shot_glass.hifive.hifive</text>
</g>
<!-- shot_glass.hifive.hifive&#45;&gt;shot_glass.hifive.operators -->
<g id="edge2" class="edge">
<title>shot_glass.hifive.hifive&#45;&gt;shot_glass.hifive.operators</title>
<path fill="none" stroke="#b6ecf3" d="M851.13,-493.9C989.84,-484.11 1239.55,-464.61 1452,-438 1464.78,-436.4 1478.13,-434.53 1491.4,-432.56"/>
<polygon fill="#b6ecf3" stroke="#b6ecf3" points="1492.15,-435.98 1501.51,-431.02 1491.1,-429.06 1492.15,-435.98"/>
</g>
<!-- shot_glass.hifive.validators -->
<g id="node8" class="node">
<title>shot_glass.hifive.validators</title>
<polygon fill="#343434" stroke="#343434" points="1135,-584 887,-584 887,-548 1135,-548 1135,-584"/>
<text text-anchor="middle" x="1011" y="-562.3" font-family="Courier,monospace" font-size="14.00" fill="#b6ecf3">shot_glass.hifive.validators</text>
</g>
<!-- shot_glass.hifive.hifive&#45;&gt;shot_glass.hifive.validators -->
<g id="edge3" class="edge">
<title>shot_glass.hifive.hifive&#45;&gt;shot_glass.hifive.validators</title>
<path fill="none" stroke="#b6ecf3" d="M818.1,-519.02C851.63,-527.23 891.47,-536.98 926.15,-545.47"/>
<polygon fill="#b6ecf3" stroke="#b6ecf3" points="925.71,-548.97 936.25,-547.95 927.37,-542.17 925.71,-548.97"/>
</g>
<!-- shot_glass.hifive.hifive_tools -->
<g id="node4" class="node">
<title>shot_glass.hifive.hifive_tools</title>
<polygon fill="#343434" stroke="#343434" points="600,-427 336,-427 336,-391 600,-391 600,-427"/>
<text text-anchor="middle" x="468" y="-405.3" font-family="Courier,monospace" font-size="14.00" fill="#b6ecf3">shot_glass.hifive.hifive_tools</text>
</g>
<!-- shot_glass.hifive.hifive_tools&#45;&gt;shot_glass.hifive.hifive -->
<g id="edge4" class="edge">
<title>shot_glass.hifive.hifive_tools&#45;&gt;shot_glass.hifive.hifive</title>
<path fill="none" stroke="#b6ecf3" d="M551.68,-427.08C567.83,-431.21 584.55,-435.9 600,-441 632.26,-451.66 667.46,-466.44 694.8,-478.67"/>
<polygon fill="#b6ecf3" stroke="#b6ecf3" points="693.57,-481.96 704.12,-482.88 696.45,-475.58 693.57,-481.96"/>
</g>
<!-- shot_glass.hifive.operator_tools -->
<g id="node5" class="node">
<title>shot_glass.hifive.operator_tools</title>
<polygon fill="#343434" stroke="#343434" points="1452,-408 1171,-408 1171,-372 1452,-372 1452,-408"/>
<text text-anchor="middle" x="1311.5" y="-386.3" font-family="Courier,monospace" font-size="14.00" fill="#b6ecf3">shot_glass.hifive.operator_tools</text>
</g>
<!-- shot_glass.hifive.operator_tools&#45;&gt;shot_glass.hifive.operators -->
<g id="edge5" class="edge">
<title>shot_glass.hifive.operator_tools&#45;&gt;shot_glass.hifive.operators</title>
<path fill="none" stroke="#b6ecf3" d="M1452.18,-400.93C1460.61,-401.59 1469.07,-402.25 1477.45,-402.9"/>
<polygon fill="#b6ecf3" stroke="#b6ecf3" points="1477.38,-406.41 1487.62,-403.7 1477.92,-399.43 1477.38,-406.41"/>
</g>
<!-- shot_glass.hifive.type_base -->
<g id="node7" class="node">
<title>shot_glass.hifive.type_base</title>
<polygon fill="#343434" stroke="#343434" points="587.5,-519 348.5,-519 348.5,-483 587.5,-483 587.5,-519"/>
<text text-anchor="middle" x="468" y="-497.3" font-family="Courier,monospace" font-size="14.00" fill="#b6ecf3">shot_glass.hifive.type_base</text>
</g>
<!-- shot_glass.hifive.type_base&#45;&gt;shot_glass.hifive.hifive -->
<g id="edge6" class="edge">
<title>shot_glass.hifive.type_base&#45;&gt;shot_glass.hifive.hifive</title>
<path fill="none" stroke="#b6ecf3" d="M587.77,-501C600.39,-501 613.23,-501 625.83,-501"/>
<polygon fill="#b6ecf3" stroke="#b6ecf3" points="625.88,-504.5 635.88,-501 625.88,-497.5 625.88,-504.5"/>
</g>
<!-- shot_glass.hifive.validators&#45;&gt;shot_glass.blender.blender_tools -->
<g id="edge7" class="edge">
<title>shot_glass.hifive.validators&#45;&gt;shot_glass.blender.blender_tools</title>
<path fill="none" stroke="#b6ecf3" d="M1119.77,-584.05C1143.54,-588.03 1168.85,-592.27 1192.99,-596.32"/>
<polygon fill="#b6ecf3" stroke="#b6ecf3" points="1192.45,-599.78 1202.89,-597.98 1193.61,-592.87 1192.45,-599.78"/>
</g>
<!-- shot_glass.hifive.validators&#45;&gt;shot_glass.hifive.operators -->
<g id="edge8" class="edge">
<title>shot_glass.hifive.validators&#45;&gt;shot_glass.hifive.operators</title>
<path fill="none" stroke="#b6ecf3" d="M1135.21,-575.91C1225.82,-578.76 1350.36,-573.25 1452,-534 1505.39,-513.38 1555.24,-467.72 1583.2,-438.76"/>
<polygon fill="#b6ecf3" stroke="#b6ecf3" points="1585.82,-441.09 1590.16,-431.43 1580.74,-436.27 1585.82,-441.09"/>
</g>
<!-- shot_glass.obj.obj_parser -->
<g id="node9" class="node">
<title>shot_glass.obj.obj_parser</title>
<polygon fill="#343434" stroke="#343434" points="579.5,-183 356.5,-183 356.5,-147 579.5,-147 579.5,-183"/>
<text text-anchor="middle" x="468" y="-161.3" font-family="Courier,monospace" font-size="14.00" fill="#b6ecf3">shot_glass.obj.obj_parser</text>
</g>
<!-- shot_glass.obj.obj_tools -->
<g id="node10" class="node">
<title>shot_glass.obj.obj_tools</title>
<polygon fill="#343434" stroke="#343434" points="851,-202 636,-202 636,-166 851,-166 851,-202"/>
<text text-anchor="middle" x="743.5" y="-180.3" font-family="Courier,monospace" font-size="14.00" fill="#b6ecf3">shot_glass.obj.obj_tools</text>
</g>
<!-- shot_glass.obj.obj_parser&#45;&gt;shot_glass.obj.obj_tools -->
<g id="edge9" class="edge">
<title>shot_glass.obj.obj_parser&#45;&gt;shot_glass.obj.obj_tools</title>
<path fill="none" stroke="#b6ecf3" d="M579.85,-172.7C595.03,-173.76 610.66,-174.84 625.94,-175.9"/>
<polygon fill="#b6ecf3" stroke="#b6ecf3" points="625.7,-179.39 635.92,-176.6 626.19,-172.41 625.7,-179.39"/>
</g>
<!-- shot_glass.obj.obj_tools&#45;&gt;shot_glass.hifive.operators -->
<g id="edge10" class="edge">
<title>shot_glass.obj.obj_tools&#45;&gt;shot_glass.hifive.operators</title>
<path fill="none" stroke="#b6ecf3" d="M851.19,-167.49C995.71,-150.31 1257.9,-137.87 1452,-235 1518.88,-268.47 1569.01,-344.87 1592.22,-385.85"/>
<polygon fill="#b6ecf3" stroke="#b6ecf3" points="1589.24,-387.69 1597.15,-394.74 1595.36,-384.3 1589.24,-387.69"/>
</g>
<!-- shot_glass.plotly.plotly_tools -->
<g id="node11" class="node">
<title>shot_glass.plotly.plotly_tools</title>
<polygon fill="#343434" stroke="#343434" points="600,-90 336,-90 336,-54 600,-54 600,-90"/>
<text text-anchor="middle" x="468" y="-68.3" font-family="Courier,monospace" font-size="14.00" fill="#b6ecf3">shot_glass.plotly.plotly_tools</text>
</g>
<!-- shot_glass.plotly.plotly_tools&#45;&gt;shot_glass.hifive.operators -->
<g id="edge11" class="edge">
<title>shot_glass.plotly.plotly_tools&#45;&gt;shot_glass.hifive.operators</title>
<path fill="none" stroke="#b6ecf3" d="M563.32,-53.97C749.19,-23.72 1169.29,17.94 1452,-158 1537.46,-211.19 1582.24,-330.71 1598.83,-385.1"/>
<polygon fill="#b6ecf3" stroke="#b6ecf3" points="1595.49,-386.17 1601.68,-394.77 1602.21,-384.19 1595.49,-386.17"/>
</g>
<!-- shot_glass.utils -->
<g id="node12" class="node">
<title>shot_glass.utils</title>
<polygon fill="#343434" stroke="#343434" points="292,-473 143,-473 143,-437 292,-437 292,-473"/>
<text text-anchor="middle" x="217.5" y="-451.3" font-family="Courier,monospace" font-size="14.00" fill="#b6ecf3">shot_glass.utils</text>
</g>
<!-- shot_glass.utils&#45;&gt;shot_glass.hifive.hifive -->
<g id="edge12" class="edge">
<title>shot_glass.utils&#45;&gt;shot_glass.hifive.hifive</title>
<path fill="none" stroke="#b6ecf3" d="M292.24,-455.67C369.27,-457.08 493.49,-461.32 600,-474 615.38,-475.83 631.6,-478.34 647.37,-481.1"/>
<polygon fill="#b6ecf3" stroke="#b6ecf3" points="647.19,-484.62 657.65,-482.94 648.42,-477.73 647.19,-484.62"/>
</g>
<!-- shot_glass.utils&#45;&gt;shot_glass.hifive.hifive_tools -->
<g id="edge13" class="edge">
<title>shot_glass.utils&#45;&gt;shot_glass.hifive.hifive_tools</title>
<path fill="none" stroke="#b6ecf3" d="M292.05,-441.39C313.24,-437.46 336.81,-433.1 359.61,-428.88"/>
<polygon fill="#b6ecf3" stroke="#b6ecf3" points="360.47,-432.28 369.67,-427.02 359.2,-425.4 360.47,-432.28"/>
</g>
<!-- shot_glass.utils&#45;&gt;shot_glass.hifive.operators -->
<g id="edge14" class="edge">
<title>shot_glass.utils&#45;&gt;shot_glass.hifive.operators</title>
<path fill="none" stroke="#b6ecf3" d="M240.8,-436.93C263.36,-419.72 299.96,-394.61 336,-382 672.28,-264.3 779.64,-291.35 1135,-317 1277,-327.25 1313.34,-330.75 1452,-363 1484.44,-370.55 1519.85,-381.78 1548.57,-391.68"/>
<polygon fill="#b6ecf3" stroke="#b6ecf3" points="1547.44,-395 1558.04,-394.98 1549.75,-388.39 1547.44,-395"/>
</g>
<!-- shot_glass.utils&#45;&gt;shot_glass.hifive.type_base -->
<g id="edge15" class="edge">
<title>shot_glass.utils&#45;&gt;shot_glass.hifive.type_base</title>
<path fill="none" stroke="#b6ecf3" d="M292.05,-468.61C313.24,-472.54 336.81,-476.9 359.61,-481.12"/>
<polygon fill="#b6ecf3" stroke="#b6ecf3" points="359.2,-484.6 369.67,-482.98 360.47,-477.72 359.2,-484.6"/>
</g>
<!-- shot_glass.utils&#45;&gt;shot_glass.hifive.validators -->
<g id="edge16" class="edge">
<title>shot_glass.utils&#45;&gt;shot_glass.hifive.validators</title>
<path fill="none" stroke="#b6ecf3" d="M240.22,-473.21C262.62,-490.8 299.36,-516.42 336,-528 516.71,-585.11 738.04,-585.24 876.58,-577.58"/>
<polygon fill="#b6ecf3" stroke="#b6ecf3" points="877.04,-581.06 886.82,-576.99 876.64,-574.07 877.04,-581.06"/>
</g>
<!-- shot_glass.hifive -->
<g id="node13" class="node">
<title>shot_glass.hifive</title>
<polygon fill="#343434" stroke="#343434" points="296,-603 139,-603 139,-567 296,-567 296,-603"/>
<text text-anchor="middle" x="217.5" y="-581.3" font-family="Courier,monospace" font-size="14.00" fill="#a0d17b">shot_glass.hifive</text>
</g>
<!-- shot_glass.hifive&#45;&gt;shot_glass.hifive.hifive -->
<g id="edge17" class="edge">
<title>shot_glass.hifive&#45;&gt;shot_glass.hifive.hifive</title>
<path fill="none" stroke="#a0d17b" d="M296.09,-574.31C373.28,-563.46 495.02,-545.78 600,-528 613.09,-525.78 626.82,-523.34 640.39,-520.84"/>
<polygon fill="#a0d17b" stroke="#a0d17b" points="641.03,-524.29 650.23,-519.03 639.76,-517.4 641.03,-524.29"/>
</g>
<!-- shot_glass.hifive&#45;&gt;shot_glass.hifive.hifive_tools -->
<g id="edge18" class="edge">
<title>shot_glass.hifive&#45;&gt;shot_glass.hifive.hifive_tools</title>
<path fill="none" stroke="#a0d17b" d="M234.61,-566.72C256.06,-543.17 295.94,-501.92 336,-474 360.01,-457.26 388.96,-442.42 413.53,-431.16"/>
<polygon fill="#a0d17b" stroke="#a0d17b" points="415.03,-434.32 422.71,-427.02 412.16,-427.94 415.03,-434.32"/>
</g>
<!-- shot_glass.hifive&#45;&gt;shot_glass.hifive.operator_tools -->
<g id="edge19" class="edge">
<title>shot_glass.hifive&#45;&gt;shot_glass.hifive.operator_tools</title>
<path fill="none" stroke="#a0d17b" d="M296.08,-582.02C373.26,-578.65 495,-572.26 600,-562 712.04,-551.05 765.32,-601.02 851,-528 893.05,-492.16 843.38,-442.92 887,-409 928.65,-376.61 1056.48,-374.54 1160.9,-378.99"/>
<polygon fill="#a0d17b" stroke="#a0d17b" points="1160.78,-382.49 1170.93,-379.44 1161.1,-375.5 1160.78,-382.49"/>
</g>
<!-- shot_glass.hifive&#45;&gt;shot_glass.hifive.operators -->
<g id="edge20" class="edge">
<title>shot_glass.hifive&#45;&gt;shot_glass.hifive.operators</title>
<path fill="none" stroke="#a0d17b" d="M241.27,-603.25C264.18,-621 301.04,-647.84 336,-666 504.34,-753.42 552.82,-796 742.5,-796 742.5,-796 742.5,-796 1012,-796 1136.95,-796 1427.94,-662.25 1452,-643 1522.84,-586.33 1573.15,-488.34 1594.74,-440.66"/>
<polygon fill="#a0d17b" stroke="#a0d17b" points="1598.04,-441.84 1598.91,-431.28 1591.65,-439 1598.04,-441.84"/>
</g>
<!-- shot_glass.hifive&#45;&gt;shot_glass.hifive.type_base -->
<g id="edge21" class="edge">
<title>shot_glass.hifive&#45;&gt;shot_glass.hifive.type_base</title>
<path fill="none" stroke="#a0d17b" d="M271.81,-566.98C310.49,-553.9 362.97,-536.16 403.78,-522.37"/>
<polygon fill="#a0d17b" stroke="#a0d17b" points="405,-525.65 413.35,-519.14 402.76,-519.02 405,-525.65"/>
</g>
<!-- shot_glass.hifive&#45;&gt;shot_glass.hifive.validators -->
<g id="edge22" class="edge">
<title>shot_glass.hifive&#45;&gt;shot_glass.hifive.validators</title>
<path fill="none" stroke="#a0d17b" d="M249.7,-603.11C272.71,-615.38 305.23,-630.49 336,-637 560.18,-684.39 632.18,-680.98 851,-613 868.48,-607.57 869.88,-599.48 887,-593 892.77,-590.82 898.76,-588.79 904.86,-586.9"/>
<polygon fill="#a0d17b" stroke="#a0d17b" points="905.9,-590.25 914.51,-584.06 903.93,-583.53 905.9,-590.25"/>
</g>
<!-- bpy -->
<g id="node14" class="node">
<title>bpy</title>
<polygon fill="#343434" stroke="#343434" points="770.5,-714 716.5,-714 716.5,-678 770.5,-678 770.5,-714"/>
<text text-anchor="middle" x="743.5" y="-692.3" font-family="Courier,monospace" font-size="14.00" fill="#de958e">bpy</text>
</g>
<!-- bpy&#45;&gt;shot_glass.blender.blender_tools -->
<g id="edge23" class="edge">
<title>bpy&#45;&gt;shot_glass.blender.blender_tools</title>
<path fill="none" stroke="#de958e" d="M770.61,-693.18C833.48,-686.29 998.19,-667.65 1135,-647 1157.25,-643.64 1181.03,-639.69 1203.66,-635.75"/>
<polygon fill="#de958e" stroke="#de958e" points="1204.38,-639.18 1213.63,-634 1203.18,-632.28 1204.38,-639.18"/>
</g>
<!-- bpy&#45;&gt;shot_glass.hifive.validators -->
<g id="edge24" class="edge">
<title>bpy&#45;&gt;shot_glass.hifive.validators</title>
<path fill="none" stroke="#de958e" d="M770.89,-693.89C794.29,-690.78 828.2,-683.08 851,-664 878.14,-641.3 859.02,-614.66 887,-593 888.62,-591.75 890.29,-590.55 892,-589.4"/>
<polygon fill="#de958e" stroke="#de958e" points="894.06,-592.24 900.85,-584.1 890.47,-586.24 894.06,-592.24"/>
</g>
<!-- shot_glass -->
<g id="node15" class="node">
<title>shot_glass</title>
<polygon fill="#343434" stroke="#343434" points="99,-473 0,-473 0,-437 99,-437 99,-473"/>
<text text-anchor="middle" x="49.5" y="-451.3" font-family="Courier,monospace" font-size="14.00" fill="#a0d17b">shot_glass</text>
</g>
<!-- shot_glass&#45;&gt;shot_glass.utils -->
<g id="edge25" class="edge">
<title>shot_glass&#45;&gt;shot_glass.utils</title>
<path fill="none" stroke="#a0d17b" d="M99.41,-455C109.91,-455 121.3,-455 132.7,-455"/>
<polygon fill="#a0d17b" stroke="#a0d17b" points="132.71,-458.5 142.71,-455 132.71,-451.5 132.71,-458.5"/>
</g>
<!-- shot_glass&#45;&gt;shot_glass.hifive -->
<g id="edge26" class="edge">
<title>shot_glass&#45;&gt;shot_glass.hifive</title>
<path fill="none" stroke="#a0d17b" d="M73.58,-473.08C102.61,-495.81 152.59,-534.95 185.08,-560.4"/>
<polygon fill="#a0d17b" stroke="#a0d17b" points="183.32,-563.46 193.35,-566.87 187.63,-557.95 183.32,-563.46"/>
</g>
<!-- shot_glass.blender -->
<g id="node16" class="node">
<title>shot_glass.blender</title>
<polygon fill="#343434" stroke="#343434" points="826,-768 661,-768 661,-732 826,-732 826,-768"/>
<text text-anchor="middle" x="743.5" y="-746.3" font-family="Courier,monospace" font-size="14.00" fill="#a0d17b">shot_glass.blender</text>
</g>
<!-- shot_glass&#45;&gt;shot_glass.blender -->
<g id="edge27" class="edge">
<title>shot_glass&#45;&gt;shot_glass.blender</title>
<path fill="none" stroke="#a0d17b" d="M55.11,-473.13C64.43,-505.97 88.65,-575.3 135,-612 286.28,-731.79 521.78,-751.64 650.62,-752.67"/>
<polygon fill="#a0d17b" stroke="#a0d17b" points="650.83,-756.17 660.85,-752.71 650.86,-749.17 650.83,-756.17"/>
</g>
<!-- shot_glass.plotly -->
<g id="node20" class="node">
<title>shot_glass.plotly</title>
<polygon fill="#343434" stroke="#343434" points="296,-36 139,-36 139,0 296,0 296,-36"/>
<text text-anchor="middle" x="217.5" y="-14.3" font-family="Courier,monospace" font-size="14.00" fill="#a0d17b">shot_glass.plotly</text>
</g>
<!-- shot_glass&#45;&gt;shot_glass.plotly -->
<g id="edge28" class="edge">
<title>shot_glass&#45;&gt;shot_glass.plotly</title>
<path fill="none" stroke="#a0d17b" d="M91.32,-436.67C94.26,-434.11 96.89,-431.23 99,-428 145.72,-356.41 81.76,-111.88 135,-45 135.59,-44.26 136.2,-43.54 136.83,-42.84"/>
<polygon fill="#a0d17b" stroke="#a0d17b" points="139.23,-45.39 144.25,-36.06 134.51,-40.22 139.23,-45.39"/>
</g>
<!-- shot_glass.obj -->
<g id="node24" class="node">
<title>shot_glass.obj</title>
<polygon fill="#343434" stroke="#343434" points="283.5,-144 151.5,-144 151.5,-108 283.5,-108 283.5,-144"/>
<text text-anchor="middle" x="217.5" y="-122.3" font-family="Courier,monospace" font-size="14.00" fill="#a0d17b">shot_glass.obj</text>
</g>
<!-- shot_glass&#45;&gt;shot_glass.obj -->
<g id="edge29" class="edge">
<title>shot_glass&#45;&gt;shot_glass.obj</title>
<path fill="none" stroke="#a0d17b" d="M90.75,-436.96C93.89,-434.33 96.73,-431.35 99,-428 168.24,-326.02 56.49,-248.03 135,-153 137.3,-150.22 139.9,-147.72 142.71,-145.47"/>
<polygon fill="#a0d17b" stroke="#a0d17b" points="144.8,-148.28 151.15,-139.8 140.9,-142.47 144.8,-148.28"/>
</g>
<!-- shot_glass.blender&#45;&gt;shot_glass.blender.blender_tools -->
<g id="edge30" class="edge">
<title>shot_glass.blender&#45;&gt;shot_glass.blender.blender_tools</title>
<path fill="none" stroke="#a0d17b" d="M826.11,-761.06C906.78,-768.93 1032.63,-772.89 1135,-739 1195.24,-719.06 1253.11,-671.09 1285.03,-641.3"/>
<polygon fill="#a0d17b" stroke="#a0d17b" points="1287.72,-643.56 1292.57,-634.14 1282.91,-638.49 1287.72,-643.56"/>
</g>
<!-- bmesh -->
<g id="node17" class="node">
<title>bmesh</title>
<polygon fill="#343434" stroke="#343434" points="1040,-730 982,-730 982,-694 1040,-694 1040,-730"/>
<text text-anchor="middle" x="1011" y="-708.3" font-family="Courier,monospace" font-size="14.00" fill="#de958e">bmesh</text>
</g>
<!-- bmesh&#45;&gt;shot_glass.blender.blender_tools -->
<g id="edge31" class="edge">
<title>bmesh&#45;&gt;shot_glass.blender.blender_tools</title>
<path fill="none" stroke="#de958e" d="M1040.06,-705.51C1065.13,-699.51 1102.77,-690.04 1135,-680 1175.75,-667.3 1221,-650.74 1255.34,-637.65"/>
<polygon fill="#de958e" stroke="#de958e" points="1256.63,-640.9 1264.72,-634.05 1254.13,-634.36 1256.63,-640.9"/>
</g>
<!-- pandas -->
<g id="node18" class="node">
<title>pandas</title>
<polygon fill="#343434" stroke="#343434" points="250.5,-306 184.5,-306 184.5,-270 250.5,-270 250.5,-306"/>
<text text-anchor="middle" x="217.5" y="-284.3" font-family="Courier,monospace" font-size="14.00" fill="#de958e">pandas</text>
</g>
<!-- pandas&#45;&gt;shot_glass.blender.blender_tools -->
<g id="edge32" class="edge">
<title>pandas&#45;&gt;shot_glass.blender.blender_tools</title>
<path fill="none" stroke="#de958e" d="M250.67,-284.73C317.32,-278.99 474.72,-270.81 600,-306 739.98,-345.32 753.02,-406.52 887,-463 993.23,-507.78 1026.92,-498.88 1135,-539 1179.19,-555.4 1228.23,-577.23 1263.2,-593.46"/>
<polygon fill="#de958e" stroke="#de958e" points="1262.14,-596.83 1272.68,-597.88 1265.1,-590.48 1262.14,-596.83"/>
</g>
<!-- pandas&#45;&gt;shot_glass.hifive.hifive -->
<g id="edge33" class="edge">
<title>pandas&#45;&gt;shot_glass.hifive.hifive</title>
<path fill="none" stroke="#de958e" d="M250.56,-293.21C331.3,-306.75 540.81,-344.62 600,-382 621.36,-395.49 617.5,-408.79 636,-426 656.81,-445.36 682.86,-463.79 703.98,-477.53"/>
<polygon fill="#de958e" stroke="#de958e" points="702.1,-480.48 712.41,-482.94 705.88,-474.59 702.1,-480.48"/>
</g>
<!-- pandas&#45;&gt;shot_glass.hifive.hifive_tools -->
<g id="edge34" class="edge">
<title>pandas&#45;&gt;shot_glass.hifive.hifive_tools</title>
<path fill="none" stroke="#de958e" d="M250.73,-303.69C294.04,-324.78 371.27,-362.39 420.76,-386.49"/>
<polygon fill="#de958e" stroke="#de958e" points="419.45,-389.74 429.97,-390.97 422.51,-383.44 419.45,-389.74"/>
</g>
<!-- pandas&#45;&gt;shot_glass.hifive.operators -->
<g id="edge35" class="edge">
<title>pandas&#45;&gt;shot_glass.hifive.operators</title>
<path fill="none" stroke="#de958e" d="M250.64,-283.94C332.52,-273.95 555.72,-249 742.5,-249 742.5,-249 742.5,-249 1012,-249 1209.81,-249 1266.58,-247.08 1452,-316 1498.47,-333.27 1545.88,-365.69 1575.71,-388.28"/>
<polygon fill="#de958e" stroke="#de958e" points="1573.94,-391.34 1584.01,-394.65 1578.21,-385.79 1573.94,-391.34"/>
</g>
<!-- pandas&#45;&gt;shot_glass.obj.obj_tools -->
<g id="edge36" class="edge">
<title>pandas&#45;&gt;shot_glass.obj.obj_tools</title>
<path fill="none" stroke="#de958e" d="M250.76,-279.79C266.11,-275.26 284.47,-268.94 300,-261 317.57,-252.01 317.64,-242.23 336,-235 387.11,-214.87 524.5,-200.47 625.47,-192.21"/>
<polygon fill="#de958e" stroke="#de958e" points="626.05,-195.67 635.74,-191.38 625.49,-188.7 626.05,-195.67"/>
</g>
<!-- lunchbox.tools -->
<g id="node19" class="node">
<title>lunchbox.tools</title>
<polygon fill="#343434" stroke="#343434" points="1077,-454 945,-454 945,-418 1077,-418 1077,-454"/>
<text text-anchor="middle" x="1011" y="-432.3" font-family="Courier,monospace" font-size="14.00" fill="#de958e">lunchbox.tools</text>
</g>
<!-- lunchbox.tools&#45;&gt;shot_glass.blender.blender_tools -->
<g id="edge37" class="edge">
<title>lunchbox.tools&#45;&gt;shot_glass.blender.blender_tools</title>
<path fill="none" stroke="#de958e" d="M1077.2,-447.24C1096.47,-452.06 1117.17,-458.77 1135,-468 1196.61,-499.88 1255.57,-556.82 1287,-590.01"/>
<polygon fill="#de958e" stroke="#de958e" points="1284.63,-592.6 1294.02,-597.51 1289.74,-587.82 1284.63,-592.6"/>
</g>
<!-- lunchbox.tools&#45;&gt;shot_glass.hifive.operator_tools -->
<g id="edge38" class="edge">
<title>lunchbox.tools&#45;&gt;shot_glass.hifive.operator_tools</title>
<path fill="none" stroke="#de958e" d="M1077.14,-425.96C1108.26,-421.17 1146.63,-415.25 1183.21,-409.62"/>
<polygon fill="#de958e" stroke="#de958e" points="1184.12,-413.02 1193.47,-408.04 1183.05,-406.1 1184.12,-413.02"/>
</g>
<!-- lunchbox.tools&#45;&gt;shot_glass.hifive.operators -->
<g id="edge39" class="edge">
<title>lunchbox.tools&#45;&gt;shot_glass.hifive.operators</title>
<path fill="none" stroke="#de958e" d="M1077.04,-433.48C1172.94,-429.77 1354.23,-422.76 1477.68,-417.98"/>
<polygon fill="#de958e" stroke="#de958e" points="1478.09,-421.47 1487.95,-417.59 1477.82,-414.48 1478.09,-421.47"/>
</g>
<!-- shot_glass.plotly&#45;&gt;shot_glass.plotly.plotly_tools -->
<g id="edge40" class="edge">
<title>shot_glass.plotly&#45;&gt;shot_glass.plotly.plotly_tools</title>
<path fill="none" stroke="#a0d17b" d="M296.1,-34.86C320.75,-40.22 348.25,-46.2 373.87,-51.76"/>
<polygon fill="#a0d17b" stroke="#a0d17b" points="373.44,-55.25 383.96,-53.95 374.93,-48.41 373.44,-55.25"/>
</g>
<!-- mathutils -->
<g id="node21" class="node">
<title>mathutils</title>
<polygon fill="#343434" stroke="#343434" points="1056.5,-638 965.5,-638 965.5,-602 1056.5,-602 1056.5,-638"/>
<text text-anchor="middle" x="1011" y="-616.3" font-family="Courier,monospace" font-size="14.00" fill="#de958e">mathutils</text>
</g>
<!-- mathutils&#45;&gt;shot_glass.blender.blender_tools -->
<g id="edge41" class="edge">
<title>mathutils&#45;&gt;shot_glass.blender.blender_tools</title>
<path fill="none" stroke="#de958e" d="M1056.69,-619.4C1084.76,-619.03 1122.74,-618.52 1160.76,-618.01"/>
<polygon fill="#de958e" stroke="#de958e" points="1161,-621.5 1170.95,-617.87 1160.91,-614.5 1161,-621.5"/>
</g>
<!-- wrapt -->
<g id="node22" class="node">
<title>wrapt</title>
<polygon fill="#343434" stroke="#343434" points="1040,-362 982,-362 982,-326 1040,-326 1040,-362"/>
<text text-anchor="middle" x="1011" y="-340.3" font-family="Courier,monospace" font-size="14.00" fill="#de958e">wrapt</text>
</g>
<!-- wrapt&#45;&gt;shot_glass.hifive.operator_tools -->
<g id="edge42" class="edge">
<title>wrapt&#45;&gt;shot_glass.hifive.operator_tools</title>
<path fill="none" stroke="#de958e" d="M1040.08,-348.33C1073.15,-353.42 1130.33,-362.23 1183.61,-370.45"/>
<polygon fill="#de958e" stroke="#de958e" points="1183.1,-373.91 1193.51,-371.97 1184.16,-366.99 1183.1,-373.91"/>
</g>
<!-- plotly -->
<g id="node23" class="node">
<title>plotly</title>
<polygon fill="#343434" stroke="#343434" points="250.5,-90 184.5,-90 184.5,-54 250.5,-54 250.5,-90"/>
<text text-anchor="middle" x="217.5" y="-68.3" font-family="Courier,monospace" font-size="14.00" fill="#de958e">plotly</text>
</g>
<!-- plotly&#45;&gt;shot_glass.plotly.plotly_tools -->
<g id="edge43" class="edge">
<title>plotly&#45;&gt;shot_glass.plotly.plotly_tools</title>
<path fill="none" stroke="#de958e" d="M250.73,-72C270.59,-72 297.57,-72 325.74,-72"/>
<polygon fill="#de958e" stroke="#de958e" points="325.75,-75.5 335.75,-72 325.75,-68.5 325.75,-75.5"/>
</g>
<!-- shot_glass.obj&#45;&gt;shot_glass.obj.obj_parser -->
<g id="edge44" class="edge">
<title>shot_glass.obj&#45;&gt;shot_glass.obj.obj_parser</title>
<path fill="none" stroke="#a0d17b" d="M283.79,-136.25C302.91,-139.25 324.45,-142.63 345.87,-145.99"/>
<polygon fill="#a0d17b" stroke="#a0d17b" points="345.6,-149.49 356.03,-147.58 346.69,-142.58 345.6,-149.49"/>
</g>
<!-- shot_glass.obj&#45;&gt;shot_glass.obj.obj_tools -->
<g id="edge45" class="edge">
<title>shot_glass.obj&#45;&gt;shot_glass.obj.obj_tools</title>
<path fill="none" stroke="#a0d17b" d="M283.52,-122.54C359.91,-119.75 490.15,-118.93 600,-138 629.75,-143.16 661.84,-153.11 688.03,-162.44"/>
<polygon fill="#a0d17b" stroke="#a0d17b" points="687.16,-165.85 697.75,-165.97 689.55,-159.27 687.16,-165.85"/>
</g>
<!-- lunchbox.stopwatch -->
<g id="node25" class="node">
<title>lunchbox.stopwatch</title>
<polygon fill="#343434" stroke="#343434" points="300,-252 135,-252 135,-216 300,-216 300,-252"/>
<text text-anchor="middle" x="217.5" y="-230.3" font-family="Courier,monospace" font-size="14.00" fill="#de958e">lunchbox.stopwatch</text>
</g>
<!-- lunchbox.stopwatch&#45;&gt;shot_glass.obj.obj_parser -->
<g id="edge46" class="edge">
<title>lunchbox.stopwatch&#45;&gt;shot_glass.obj.obj_parser</title>
<path fill="none" stroke="#de958e" d="M273.27,-215.93C292.97,-209.66 315.4,-202.75 336,-197 350.02,-193.09 364.95,-189.19 379.53,-185.52"/>
<polygon fill="#de958e" stroke="#de958e" points="380.69,-188.84 389.55,-183.03 379,-182.05 380.69,-188.84"/>
</g>
<!-- pyparsing -->
<g id="node26" class="node">
<title>pyparsing</title>
<polygon fill="#343434" stroke="#343434" points="263,-198 172,-198 172,-162 263,-162 263,-198"/>
<text text-anchor="middle" x="217.5" y="-176.3" font-family="Courier,monospace" font-size="14.00" fill="#de958e">pyparsing</text>
</g>
<!-- pyparsing&#45;&gt;shot_glass.obj.obj_parser -->
<g id="edge47" class="edge">
<title>pyparsing&#45;&gt;shot_glass.obj.obj_parser</title>
<path fill="none" stroke="#de958e" d="M263.21,-177.3C286.69,-175.88 316.7,-174.07 346.43,-172.28"/>
<polygon fill="#de958e" stroke="#de958e" points="346.72,-175.77 356.5,-171.67 346.3,-168.78 346.72,-175.77"/>
</g>
</g>
</svg>
