<?xml version="1.0" encoding="UTF-8" standalone="no"?>
<!DOCTYPE svg PUBLIC "-//W3C//DTD SVG 1.1//EN"
 "http://www.w3.org/Graphics/SVG/1.1/DTD/svg11.dtd">
<!-- Generated by graphviz version 2.43.0 (0)
 -->
<!-- Title: %3 Pages: 1 -->
<svg width="2035pt" height="874pt"
 viewBox="0.00 0.00 2035.00 874.00" xmlns="http://www.w3.org/2000/svg" xmlns:xlink="http://www.w3.org/1999/xlink">
<g id="graph0" class="graph" transform="scale(1 1) rotate(0) translate(4 870)">
<title>%3</title>
<polygon fill="#242424" stroke="transparent" points="-4,4 -4,-870 2031,-870 2031,4 -4,4"/>
<!-- cli -->
<g id="node1" class="node">
<title>cli</title>
<polygon fill="#343434" stroke="#343434" points="76.5,-36 22.5,-36 22.5,0 76.5,0 76.5,-36"/>
<text text-anchor="middle" x="49.5" y="-14.3" font-family="Courier,monospace" font-size="14.00" fill="#b6ecf3">cli</text>
</g>
<!-- shot_glass.blender.blender_tools -->
<g id="node2" class="node">
<title>shot_glass.blender.blender_tools</title>
<polygon fill="#343434" stroke="#343434" points="1752,-587 1471,-587 1471,-551 1752,-551 1752,-587"/>
<text text-anchor="middle" x="1611.5" y="-565.3" font-family="Courier,monospace" font-size="14.00" fill="#b6ecf3">shot_glass.blender.blender_tools</text>
</g>
<!-- shot_glass.hifive.operators -->
<g id="node9" class="node">
<title>shot_glass.hifive.operators</title>
<polygon fill="#343434" stroke="#343434" points="2027,-422 1788,-422 1788,-386 2027,-386 2027,-422"/>
<text text-anchor="middle" x="1907.5" y="-400.3" font-family="Courier,monospace" font-size="14.00" fill="#b6ecf3">shot_glass.hifive.operators</text>
</g>
<!-- shot_glass.blender.blender_tools&#45;&gt;shot_glass.hifive.operators -->
<g id="edge1" class="edge">
<title>shot_glass.blender.blender_tools&#45;&gt;shot_glass.hifive.operators</title>
<path fill="none" stroke="#b6ecf3" d="M1686.89,-550.93C1708.54,-544.26 1731.78,-535.65 1752,-525 1801.8,-498.76 1851.68,-455.98 1880.79,-428.95"/>
<polygon fill="#b6ecf3" stroke="#b6ecf3" points="1883.19,-431.5 1888.08,-422.1 1878.39,-426.4 1883.19,-431.5"/>
</g>
<!-- shot_glass.command -->
<g id="node3" class="node">
<title>shot_glass.command</title>
<polygon fill="#343434" stroke="#343434" points="300,-90 135,-90 135,-54 300,-54 300,-90"/>
<text text-anchor="middle" x="217.5" y="-68.3" font-family="Courier,monospace" font-size="14.00" fill="#b6ecf3">shot_glass.command</text>
</g>
<!-- shot_glass.core.monad -->
<g id="node4" class="node">
<title>shot_glass.core.monad</title>
<polygon fill="#343434" stroke="#343434" points="563,-361 373,-361 373,-325 563,-325 563,-361"/>
<text text-anchor="middle" x="468" y="-339.3" font-family="Courier,monospace" font-size="14.00" fill="#b6ecf3">shot_glass.core.monad</text>
</g>
<!-- shot_glass.core.tools -->
<g id="node5" class="node">
<title>shot_glass.core.tools</title>
<polygon fill="#343434" stroke="#343434" points="563,-522 373,-522 373,-486 563,-486 563,-522"/>
<text text-anchor="middle" x="468" y="-500.3" font-family="Courier,monospace" font-size="14.00" fill="#b6ecf3">shot_glass.core.tools</text>
</g>
<!-- shot_glass.hifive.hifive -->
<g id="node6" class="node">
<title>shot_glass.hifive.hifive</title>
<polygon fill="#343434" stroke="#343434" points="1151,-545 936,-545 936,-509 1151,-509 1151,-545"/>
<text text-anchor="middle" x="1043.5" y="-523.3" font-family="Courier,monospace" font-size="14.00" fill="#b6ecf3">shot_glass.hifive.hifive</text>
</g>
<!-- shot_glass.core.tools&#45;&gt;shot_glass.hifive.hifive -->
<g id="edge2" class="edge">
<title>shot_glass.core.tools&#45;&gt;shot_glass.hifive.hifive</title>
<path fill="none" stroke="#b6ecf3" d="M563.06,-507.77C662.19,-511.75 818.49,-518.02 925.5,-522.31"/>
<polygon fill="#b6ecf3" stroke="#b6ecf3" points="925.57,-525.81 935.7,-522.72 925.85,-518.82 925.57,-525.81"/>
</g>
<!-- shot_glass.hifive.hifive_tools -->
<g id="node7" class="node">
<title>shot_glass.hifive.hifive_tools</title>
<polygon fill="#343434" stroke="#343434" points="900,-499 636,-499 636,-463 900,-463 900,-499"/>
<text text-anchor="middle" x="768" y="-477.3" font-family="Courier,monospace" font-size="14.00" fill="#b6ecf3">shot_glass.hifive.hifive_tools</text>
</g>
<!-- shot_glass.core.tools&#45;&gt;shot_glass.hifive.hifive_tools -->
<g id="edge3" class="edge">
<title>shot_glass.core.tools&#45;&gt;shot_glass.hifive.hifive_tools</title>
<path fill="none" stroke="#b6ecf3" d="M563.29,-496.72C583.16,-495.19 604.54,-493.54 625.71,-491.9"/>
<polygon fill="#b6ecf3" stroke="#b6ecf3" points="626.05,-495.39 635.75,-491.13 625.51,-488.41 626.05,-495.39"/>
</g>
<!-- shot_glass.core.tools&#45;&gt;shot_glass.hifive.operators -->
<g id="edge4" class="edge">
<title>shot_glass.core.tools&#45;&gt;shot_glass.hifive.operators</title>
<path fill="none" stroke="#b6ecf3" d="M496.84,-522.07C529.34,-542.68 585.13,-576.54 636,-600 961.34,-750.06 1081.79,-767.05 1435,-707 1582.16,-681.98 1630.08,-682.13 1752,-596 1816,-550.79 1867.51,-472 1891.63,-430.81"/>
<polygon fill="#b6ecf3" stroke="#b6ecf3" points="1894.67,-432.56 1896.63,-422.14 1888.61,-429.06 1894.67,-432.56"/>
</g>
<!-- shot_glass.hifive.type_base -->
<g id="node10" class="node">
<title>shot_glass.hifive.type_base</title>
<polygon fill="#343434" stroke="#343434" points="887.5,-591 648.5,-591 648.5,-555 887.5,-555 887.5,-591"/>
<text text-anchor="middle" x="768" y="-569.3" font-family="Courier,monospace" font-size="14.00" fill="#b6ecf3">shot_glass.hifive.type_base</text>
</g>
<!-- shot_glass.core.tools&#45;&gt;shot_glass.hifive.type_base -->
<g id="edge5" class="edge">
<title>shot_glass.core.tools&#45;&gt;shot_glass.hifive.type_base</title>
<path fill="none" stroke="#b6ecf3" d="M546.91,-522.04C587.46,-531.43 637.19,-542.94 679.11,-552.65"/>
<polygon fill="#b6ecf3" stroke="#b6ecf3" points="678.5,-556.1 689.03,-554.95 680.08,-549.28 678.5,-556.1"/>
</g>
<!-- shot_glass.hifive.validators -->
<g id="node11" class="node">
<title>shot_glass.hifive.validators</title>
<polygon fill="#343434" stroke="#343434" points="1435,-552 1187,-552 1187,-516 1435,-516 1435,-552"/>
<text text-anchor="middle" x="1311" y="-530.3" font-family="Courier,monospace" font-size="14.00" fill="#b6ecf3">shot_glass.hifive.validators</text>
</g>
<!-- shot_glass.core.tools&#45;&gt;shot_glass.hifive.validators -->
<g id="edge6" class="edge">
<title>shot_glass.core.tools&#45;&gt;shot_glass.hifive.validators</title>
<path fill="none" stroke="#b6ecf3" d="M516.04,-485.91C549.05,-474.21 594.53,-460.08 636,-454 855.37,-421.86 1116.37,-480.18 1239.3,-513.35"/>
<polygon fill="#b6ecf3" stroke="#b6ecf3" points="1238.41,-516.74 1248.98,-515.99 1240.25,-509.98 1238.41,-516.74"/>
</g>
<!-- shot_glass.hifive.hifive&#45;&gt;shot_glass.hifive.operators -->
<g id="edge7" class="edge">
<title>shot_glass.hifive.hifive&#45;&gt;shot_glass.hifive.operators</title>
<path fill="none" stroke="#b6ecf3" d="M1050.52,-508.98C1065.63,-467.03 1109.62,-363.34 1187,-323 1298.5,-264.87 1628.89,-328.37 1752,-354 1785.1,-360.89 1821.1,-372.3 1850.02,-382.48"/>
<polygon fill="#b6ecf3" stroke="#b6ecf3" points="1848.94,-385.81 1859.54,-385.88 1851.3,-379.22 1848.94,-385.81"/>
</g>
<!-- shot_glass.hifive.hifive&#45;&gt;shot_glass.hifive.validators -->
<g id="edge8" class="edge">
<title>shot_glass.hifive.hifive&#45;&gt;shot_glass.hifive.validators</title>
<path fill="none" stroke="#b6ecf3" d="M1151.34,-529.82C1159.73,-530.04 1168.26,-530.26 1176.8,-530.49"/>
<polygon fill="#b6ecf3" stroke="#b6ecf3" points="1176.72,-533.99 1186.81,-530.75 1176.91,-526.99 1176.72,-533.99"/>
</g>
<!-- shot_glass.hifive.hifive_tools&#45;&gt;shot_glass.hifive.hifive -->
<g id="edge9" class="edge">
<title>shot_glass.hifive.hifive_tools&#45;&gt;shot_glass.hifive.hifive</title>
<path fill="none" stroke="#b6ecf3" d="M876.31,-499.05C892.54,-501.78 909.36,-504.61 925.78,-507.37"/>
<polygon fill="#b6ecf3" stroke="#b6ecf3" points="925.51,-510.87 935.95,-509.08 926.67,-503.97 925.51,-510.87"/>
</g>
<!-- shot_glass.hifive.operator_tools -->
<g id="node8" class="node">
<title>shot_glass.hifive.operator_tools</title>
<polygon fill="#343434" stroke="#343434" points="1752,-399 1471,-399 1471,-363 1752,-363 1752,-399"/>
<text text-anchor="middle" x="1611.5" y="-377.3" font-family="Courier,monospace" font-size="14.00" fill="#b6ecf3">shot_glass.hifive.operator_tools</text>
</g>
<!-- shot_glass.hifive.operator_tools&#45;&gt;shot_glass.hifive.operators -->
<g id="edge10" class="edge">
<title>shot_glass.hifive.operator_tools&#45;&gt;shot_glass.hifive.operators</title>
<path fill="none" stroke="#b6ecf3" d="M1752.18,-391.93C1760.61,-392.59 1769.07,-393.25 1777.45,-393.9"/>
<polygon fill="#b6ecf3" stroke="#b6ecf3" points="1777.38,-397.41 1787.62,-394.7 1777.92,-390.43 1777.38,-397.41"/>
</g>
<!-- shot_glass.hifive.type_base&#45;&gt;shot_glass.hifive.hifive -->
<g id="edge11" class="edge">
<title>shot_glass.hifive.type_base&#45;&gt;shot_glass.hifive.hifive</title>
<path fill="none" stroke="#b6ecf3" d="M876.31,-554.95C892.54,-552.22 909.36,-549.39 925.78,-546.63"/>
<polygon fill="#b6ecf3" stroke="#b6ecf3" points="926.67,-550.03 935.95,-544.92 925.51,-543.13 926.67,-550.03"/>
</g>
<!-- shot_glass.hifive.validators&#45;&gt;shot_glass.blender.blender_tools -->
<g id="edge12" class="edge">
<title>shot_glass.hifive.validators&#45;&gt;shot_glass.blender.blender_tools</title>
<path fill="none" stroke="#b6ecf3" d="M1435.13,-548.44C1443.56,-549.43 1452.1,-550.43 1460.65,-551.43"/>
<polygon fill="#b6ecf3" stroke="#b6ecf3" points="1460.33,-554.92 1470.67,-552.6 1461.15,-547.96 1460.33,-554.92"/>
</g>
<!-- shot_glass.hifive.validators&#45;&gt;shot_glass.hifive.operators -->
<g id="edge13" class="edge">
<title>shot_glass.hifive.validators&#45;&gt;shot_glass.hifive.operators</title>
<path fill="none" stroke="#b6ecf3" d="M1394.35,-515.99C1504.47,-491.91 1699.12,-449.35 1814.12,-424.2"/>
<polygon fill="#b6ecf3" stroke="#b6ecf3" points="1814.94,-427.6 1823.97,-422.05 1813.45,-420.76 1814.94,-427.6"/>
</g>
<!-- shot_glass.obj.obj_parser -->
<g id="node12" class="node">
<title>shot_glass.obj.obj_parser</title>
<polygon fill="#343434" stroke="#343434" points="579.5,-300 356.5,-300 356.5,-264 579.5,-264 579.5,-300"/>
<text text-anchor="middle" x="468" y="-278.3" font-family="Courier,monospace" font-size="14.00" fill="#b6ecf3">shot_glass.obj.obj_parser</text>
</g>
<!-- shot_glass.obj.obj_tools -->
<g id="node13" class="node">
<title>shot_glass.obj.obj_tools</title>
<polygon fill="#343434" stroke="#343434" points="875.5,-246 660.5,-246 660.5,-210 875.5,-210 875.5,-246"/>
<text text-anchor="middle" x="768" y="-224.3" font-family="Courier,monospace" font-size="14.00" fill="#b6ecf3">shot_glass.obj.obj_tools</text>
</g>
<!-- shot_glass.obj.obj_parser&#45;&gt;shot_glass.obj.obj_tools -->
<g id="edge14" class="edge">
<title>shot_glass.obj.obj_parser&#45;&gt;shot_glass.obj.obj_tools</title>
<path fill="none" stroke="#b6ecf3" d="M568.64,-263.94C597.1,-258.79 628.26,-253.14 657.28,-247.88"/>
<polygon fill="#b6ecf3" stroke="#b6ecf3" points="658.23,-251.27 667.45,-246.04 656.99,-244.38 658.23,-251.27"/>
</g>
<!-- shot_glass.obj.obj_tools&#45;&gt;shot_glass.hifive.operators -->
<g id="edge15" class="edge">
<title>shot_glass.obj.obj_tools&#45;&gt;shot_glass.hifive.operators</title>
<path fill="none" stroke="#b6ecf3" d="M875.64,-220.86C1096.63,-207.63 1596.88,-186.27 1752,-252 1813.48,-278.05 1863.97,-341.03 1889.16,-377.22"/>
<polygon fill="#b6ecf3" stroke="#b6ecf3" points="1886.48,-379.51 1895.01,-385.8 1892.27,-375.57 1886.48,-379.51"/>
</g>
<!-- shot_glass.plotly.plotly_tools -->
<g id="node14" class="node">
<title>shot_glass.plotly.plotly_tools</title>
<polygon fill="#343434" stroke="#343434" points="600,-198 336,-198 336,-162 600,-162 600,-198"/>
<text text-anchor="middle" x="468" y="-176.3" font-family="Courier,monospace" font-size="14.00" fill="#b6ecf3">shot_glass.plotly.plotly_tools</text>
</g>
<!-- shot_glass.plotly.plotly_tools&#45;&gt;shot_glass.hifive.operators -->
<g id="edge16" class="edge">
<title>shot_glass.plotly.plotly_tools&#45;&gt;shot_glass.hifive.operators</title>
<path fill="none" stroke="#b6ecf3" d="M600.26,-180C716.5,-180 890.79,-180 1042.5,-180 1042.5,-180 1042.5,-180 1312,-180 1507.92,-180 1578.54,-115.92 1752,-207 1823.88,-244.74 1873.12,-332.29 1894.49,-376.87"/>
<polygon fill="#b6ecf3" stroke="#b6ecf3" points="1891.33,-378.38 1898.74,-385.95 1897.67,-375.41 1891.33,-378.38"/>
</g>
<!-- click -->
<g id="node15" class="node">
<title>click</title>
<polygon fill="#343434" stroke="#343434" points="78.5,-90 20.5,-90 20.5,-54 78.5,-54 78.5,-90"/>
<text text-anchor="middle" x="49.5" y="-68.3" font-family="Courier,monospace" font-size="14.00" fill="#de958e">click</text>
</g>
<!-- click&#45;&gt;shot_glass.command -->
<g id="edge17" class="edge">
<title>click&#45;&gt;shot_glass.command</title>
<path fill="none" stroke="#de958e" d="M78.66,-72C91.61,-72 107.77,-72 124.43,-72"/>
<polygon fill="#de958e" stroke="#de958e" points="124.85,-75.5 134.85,-72 124.85,-68.5 124.85,-75.5"/>
</g>
<!-- lunchbox.enforce -->
<g id="node16" class="node">
<title>lunchbox.enforce</title>
<polygon fill="#343434" stroke="#343434" points="292,-414 143,-414 143,-378 292,-378 292,-414"/>
<text text-anchor="middle" x="217.5" y="-392.3" font-family="Courier,monospace" font-size="14.00" fill="#de958e">lunchbox.enforce</text>
</g>
<!-- lunchbox.enforce&#45;&gt;shot_glass.core.monad -->
<g id="edge18" class="edge">
<title>lunchbox.enforce&#45;&gt;shot_glass.core.monad</title>
<path fill="none" stroke="#de958e" d="M292.11,-379.54C306.65,-376.34 321.8,-373.03 336,-370 346.52,-367.75 357.52,-365.43 368.48,-363.14"/>
<polygon fill="#de958e" stroke="#de958e" points="369.45,-366.52 378.53,-361.05 368.02,-359.67 369.45,-366.52"/>
</g>
<!-- shot_glass.core -->
<g id="node17" class="node">
<title>shot_glass.core</title>
<polygon fill="#343434" stroke="#343434" points="287.5,-468 147.5,-468 147.5,-432 287.5,-432 287.5,-468"/>
<text text-anchor="middle" x="217.5" y="-446.3" font-family="Courier,monospace" font-size="14.00" fill="#a0d17b">shot_glass.core</text>
</g>
<!-- shot_glass.core&#45;&gt;shot_glass.core.monad -->
<g id="edge19" class="edge">
<title>shot_glass.core&#45;&gt;shot_glass.core.monad</title>
<path fill="none" stroke="#a0d17b" d="M285.72,-431.83C290.77,-429.25 295.6,-426.32 300,-423 322.72,-405.83 312.32,-385.81 336,-370 344.33,-364.44 353.57,-359.99 363.18,-356.42"/>
<polygon fill="#a0d17b" stroke="#a0d17b" points="364.53,-359.66 372.89,-353.15 362.29,-353.03 364.53,-359.66"/>
</g>
<!-- shot_glass.core&#45;&gt;shot_glass.core.tools -->
<g id="edge20" class="edge">
<title>shot_glass.core&#45;&gt;shot_glass.core.tools</title>
<path fill="none" stroke="#a0d17b" d="M287.72,-465.04C314.44,-470.85 345.42,-477.58 374.03,-483.8"/>
<polygon fill="#a0d17b" stroke="#a0d17b" points="373.52,-487.27 384.04,-485.97 375.01,-480.43 373.52,-487.27"/>
</g>
<!-- shot_glass -->
<g id="node18" class="node">
<title>shot_glass</title>
<polygon fill="#343434" stroke="#343434" points="99,-360 0,-360 0,-324 99,-324 99,-360"/>
<text text-anchor="middle" x="49.5" y="-338.3" font-family="Courier,monospace" font-size="14.00" fill="#a0d17b">shot_glass</text>
</g>
<!-- shot_glass&#45;&gt;shot_glass.command -->
<g id="edge21" class="edge">
<title>shot_glass&#45;&gt;shot_glass.command</title>
<path fill="none" stroke="#a0d17b" d="M51.51,-323.91C54.97,-279.29 70.1,-162.95 135,-99 135.96,-98.06 136.94,-97.15 137.96,-96.27"/>
<polygon fill="#a0d17b" stroke="#a0d17b" points="140.31,-98.89 146.31,-90.15 136.17,-93.25 140.31,-98.89"/>
</g>
<!-- shot_glass&#45;&gt;shot_glass.core -->
<g id="edge22" class="edge">
<title>shot_glass&#45;&gt;shot_glass.core</title>
<path fill="none" stroke="#a0d17b" d="M65.19,-360.21C80.78,-378.43 106.97,-406.12 135,-423 137.66,-424.6 140.43,-426.12 143.26,-427.56"/>
<polygon fill="#a0d17b" stroke="#a0d17b" points="141.99,-430.83 152.53,-431.9 144.95,-424.49 141.99,-430.83"/>
</g>
<!-- shot_glass.hifive -->
<g id="node19" class="node">
<title>shot_glass.hifive</title>
<polygon fill="#343434" stroke="#343434" points="546.5,-637 389.5,-637 389.5,-601 546.5,-601 546.5,-637"/>
<text text-anchor="middle" x="468" y="-615.3" font-family="Courier,monospace" font-size="14.00" fill="#a0d17b">shot_glass.hifive</text>
</g>
<!-- shot_glass&#45;&gt;shot_glass.hifive -->
<g id="edge23" class="edge">
<title>shot_glass&#45;&gt;shot_glass.hifive</title>
<path fill="none" stroke="#a0d17b" d="M57.62,-360.18C69.6,-388.65 96.35,-443.92 135,-477 206.99,-538.61 309.7,-576.97 381.76,-598.05"/>
<polygon fill="#a0d17b" stroke="#a0d17b" points="381.14,-601.52 391.72,-600.91 383.07,-594.79 381.14,-601.52"/>
</g>
<!-- shot_glass.blender -->
<g id="node21" class="node">
<title>shot_glass.blender</title>
<polygon fill="#343434" stroke="#343434" points="1126,-866 961,-866 961,-830 1126,-830 1126,-866"/>
<text text-anchor="middle" x="1043.5" y="-844.3" font-family="Courier,monospace" font-size="14.00" fill="#a0d17b">shot_glass.blender</text>
</g>
<!-- shot_glass&#45;&gt;shot_glass.blender -->
<g id="edge24" class="edge">
<title>shot_glass&#45;&gt;shot_glass.blender</title>
<path fill="none" stroke="#a0d17b" d="M54.28,-360.18C62.81,-397.26 86.66,-482.63 135,-536 306.24,-725.06 391.87,-742.06 636,-816 740.66,-847.7 867.02,-852.79 950.78,-851.85"/>
<polygon fill="#a0d17b" stroke="#a0d17b" points="950.84,-855.35 960.78,-851.71 950.74,-848.35 950.84,-855.35"/>
</g>
<!-- shot_glass.plotly -->
<g id="node25" class="node">
<title>shot_glass.plotly</title>
<polygon fill="#343434" stroke="#343434" points="296,-144 139,-144 139,-108 296,-108 296,-144"/>
<text text-anchor="middle" x="217.5" y="-122.3" font-family="Courier,monospace" font-size="14.00" fill="#a0d17b">shot_glass.plotly</text>
</g>
<!-- shot_glass&#45;&gt;shot_glass.plotly -->
<g id="edge25" class="edge">
<title>shot_glass&#45;&gt;shot_glass.plotly</title>
<path fill="none" stroke="#a0d17b" d="M53.58,-323.79C60.86,-286.37 82.61,-200.37 135,-153 136.29,-151.83 137.64,-150.71 139.02,-149.64"/>
<polygon fill="#a0d17b" stroke="#a0d17b" points="141.05,-152.5 147.41,-144.03 137.15,-146.68 141.05,-152.5"/>
</g>
<!-- shot_glass.obj -->
<g id="node29" class="node">
<title>shot_glass.obj</title>
<polygon fill="#343434" stroke="#343434" points="283.5,-252 151.5,-252 151.5,-216 283.5,-216 283.5,-252"/>
<text text-anchor="middle" x="217.5" y="-230.3" font-family="Courier,monospace" font-size="14.00" fill="#a0d17b">shot_glass.obj</text>
</g>
<!-- shot_glass&#45;&gt;shot_glass.obj -->
<g id="edge26" class="edge">
<title>shot_glass&#45;&gt;shot_glass.obj</title>
<path fill="none" stroke="#a0d17b" d="M65.19,-323.79C80.78,-305.57 106.97,-277.88 135,-261 137.66,-259.4 140.43,-257.88 143.26,-256.44"/>
<polygon fill="#a0d17b" stroke="#a0d17b" points="144.95,-259.51 152.53,-252.1 141.99,-253.17 144.95,-259.51"/>
</g>
<!-- shot_glass.hifive&#45;&gt;shot_glass.hifive.hifive -->
<g id="edge27" class="edge">
<title>shot_glass.hifive&#45;&gt;shot_glass.hifive.hifive</title>
<path fill="none" stroke="#a0d17b" d="M546.79,-625.4C634.27,-630.36 779.81,-631.81 900,-600 901.35,-599.64 956.93,-571.09 998.27,-549.8"/>
<polygon fill="#a0d17b" stroke="#a0d17b" points="1000.08,-552.8 1007.37,-545.11 996.88,-546.58 1000.08,-552.8"/>
</g>
<!-- shot_glass.hifive&#45;&gt;shot_glass.hifive.hifive_tools -->
<g id="edge28" class="edge">
<title>shot_glass.hifive&#45;&gt;shot_glass.hifive.hifive_tools</title>
<path fill="none" stroke="#a0d17b" d="M507.96,-600.96C562.06,-575.91 659.89,-530.6 718.6,-503.41"/>
<polygon fill="#a0d17b" stroke="#a0d17b" points="720.43,-506.42 728.03,-499.05 717.49,-500.07 720.43,-506.42"/>
</g>
<!-- shot_glass.hifive&#45;&gt;shot_glass.hifive.operator_tools -->
<g id="edge29" class="edge">
<title>shot_glass.hifive&#45;&gt;shot_glass.hifive.operator_tools</title>
<path fill="none" stroke="#a0d17b" d="M546.54,-628.21C633.19,-636.75 777.41,-645.7 900,-628 1015.11,-611.39 1055.14,-619.85 1151,-554 1172.69,-539.1 1165.33,-521.93 1187,-507 1194.42,-501.89 1419.26,-436.35 1538.24,-401.88"/>
<polygon fill="#a0d17b" stroke="#a0d17b" points="1539.38,-405.2 1548.01,-399.05 1537.44,-398.47 1539.38,-405.2"/>
</g>
<!-- shot_glass.hifive&#45;&gt;shot_glass.hifive.operators -->
<g id="edge30" class="edge">
<title>shot_glass.hifive&#45;&gt;shot_glass.hifive.operators</title>
<path fill="none" stroke="#a0d17b" d="M501.14,-637.05C586.46,-683.22 826.94,-802 1042.5,-802 1042.5,-802 1042.5,-802 1312,-802 1517.22,-802 1591.1,-789.38 1752,-662 1831.05,-599.42 1878.76,-484.43 1897.42,-431.72"/>
<polygon fill="#a0d17b" stroke="#a0d17b" points="1900.81,-432.64 1900.77,-422.04 1894.2,-430.35 1900.81,-432.64"/>
</g>
<!-- shot_glass.hifive&#45;&gt;shot_glass.hifive.type_base -->
<g id="edge31" class="edge">
<title>shot_glass.hifive&#45;&gt;shot_glass.hifive.type_base</title>
<path fill="none" stroke="#a0d17b" d="M546.52,-607.03C575.07,-602.63 608.22,-597.51 640,-592.6"/>
<polygon fill="#a0d17b" stroke="#a0d17b" points="640.91,-596 650.26,-591.02 639.84,-589.09 640.91,-596"/>
</g>
<!-- shot_glass.hifive&#45;&gt;shot_glass.hifive.validators -->
<g id="edge32" class="edge">
<title>shot_glass.hifive&#45;&gt;shot_glass.hifive.validators</title>
<path fill="none" stroke="#a0d17b" d="M546.71,-624.06C574.83,-625.66 606.83,-627.21 636,-628 753.29,-631.16 783.42,-641.23 900,-628 1030.05,-613.24 1059.41,-591.19 1187,-562 1197.9,-559.51 1209.34,-556.89 1220.68,-554.31"/>
<polygon fill="#a0d17b" stroke="#a0d17b" points="1221.62,-557.68 1230.6,-552.05 1220.07,-550.86 1221.62,-557.68"/>
</g>
<!-- bmesh -->
<g id="node20" class="node">
<title>bmesh</title>
<polygon fill="#343434" stroke="#343434" points="1340,-698 1282,-698 1282,-662 1340,-662 1340,-698"/>
<text text-anchor="middle" x="1311" y="-676.3" font-family="Courier,monospace" font-size="14.00" fill="#de958e">bmesh</text>
</g>
<!-- bmesh&#45;&gt;shot_glass.blender.blender_tools -->
<g id="edge33" class="edge">
<title>bmesh&#45;&gt;shot_glass.blender.blender_tools</title>
<path fill="none" stroke="#de958e" d="M1340.35,-675.69C1365.61,-671.4 1403.37,-663.88 1435,-653 1482.8,-636.56 1534.67,-610.64 1569.54,-591.94"/>
<polygon fill="#de958e" stroke="#de958e" points="1571.33,-594.95 1578.46,-587.11 1568,-588.79 1571.33,-594.95"/>
</g>
<!-- shot_glass.blender&#45;&gt;shot_glass.blender.blender_tools -->
<g id="edge34" class="edge">
<title>shot_glass.blender&#45;&gt;shot_glass.blender.blender_tools</title>
<path fill="none" stroke="#a0d17b" d="M1114.75,-829.99C1195.23,-807.73 1329.58,-765.47 1435,-707 1492.74,-674.97 1551.34,-624.47 1584.1,-594.25"/>
<polygon fill="#a0d17b" stroke="#a0d17b" points="1586.53,-596.77 1591.46,-587.4 1581.76,-591.65 1586.53,-596.77"/>
</g>
<!-- bpy -->
<g id="node22" class="node">
<title>bpy</title>
<polygon fill="#343434" stroke="#343434" points="1070.5,-698 1016.5,-698 1016.5,-662 1070.5,-662 1070.5,-698"/>
<text text-anchor="middle" x="1043.5" y="-676.3" font-family="Courier,monospace" font-size="14.00" fill="#de958e">bpy</text>
</g>
<!-- bpy&#45;&gt;shot_glass.blender.blender_tools -->
<g id="edge35" class="edge">
<title>bpy&#45;&gt;shot_glass.blender.blender_tools</title>
<path fill="none" stroke="#de958e" d="M1070.63,-676.9C1093.54,-673.13 1126.87,-665.03 1151,-648 1173.08,-632.42 1163.34,-612.05 1187,-599 1232.83,-573.73 1358.15,-567.26 1460.66,-566.51"/>
<polygon fill="#de958e" stroke="#de958e" points="1460.84,-570.01 1470.82,-566.46 1460.8,-563.01 1460.84,-570.01"/>
</g>
<!-- bpy&#45;&gt;shot_glass.hifive.validators -->
<g id="edge36" class="edge">
<title>bpy&#45;&gt;shot_glass.hifive.validators</title>
<path fill="none" stroke="#de958e" d="M1070.69,-678.25C1094.28,-675.38 1128.59,-667.83 1151,-648 1180.81,-621.62 1156.71,-591.82 1187,-566 1190.94,-562.64 1195.19,-559.63 1199.66,-556.93"/>
<polygon fill="#de958e" stroke="#de958e" points="1201.4,-559.97 1208.51,-552.11 1198.05,-553.82 1201.4,-559.97"/>
</g>
<!-- lunchbox.tools -->
<g id="node23" class="node">
<title>lunchbox.tools</title>
<polygon fill="#343434" stroke="#343434" points="1377,-422 1245,-422 1245,-386 1377,-386 1377,-422"/>
<text text-anchor="middle" x="1311" y="-400.3" font-family="Courier,monospace" font-size="14.00" fill="#de958e">lunchbox.tools</text>
</g>
<!-- lunchbox.tools&#45;&gt;shot_glass.blender.blender_tools -->
<g id="edge37" class="edge">
<title>lunchbox.tools&#45;&gt;shot_glass.blender.blender_tools</title>
<path fill="none" stroke="#de958e" d="M1377.22,-415.91C1396.4,-420.74 1417.03,-427.29 1435,-436 1493.35,-464.29 1551.42,-513.48 1583.97,-543.46"/>
<polygon fill="#de958e" stroke="#de958e" points="1581.98,-546.38 1591.68,-550.64 1586.75,-541.26 1581.98,-546.38"/>
</g>
<!-- lunchbox.tools&#45;&gt;shot_glass.hifive.operator_tools -->
<g id="edge38" class="edge">
<title>lunchbox.tools&#45;&gt;shot_glass.hifive.operator_tools</title>
<path fill="none" stroke="#de958e" d="M1377.14,-398.98C1401.95,-397.07 1431.37,-394.8 1460.81,-392.53"/>
<polygon fill="#de958e" stroke="#de958e" points="1461.09,-396.02 1470.79,-391.76 1460.55,-389.04 1461.09,-396.02"/>
</g>
<!-- lunchbox.tools&#45;&gt;shot_glass.hifive.operators -->
<g id="edge39" class="edge">
<title>lunchbox.tools&#45;&gt;shot_glass.hifive.operators</title>
<path fill="none" stroke="#de958e" d="M1377.36,-406.01C1406.08,-406.8 1440.21,-407.61 1471,-408 1595.88,-409.57 1627.12,-409.62 1752,-408 1760.39,-407.89 1769.03,-407.75 1777.74,-407.58"/>
<polygon fill="#de958e" stroke="#de958e" points="1778.06,-411.08 1787.99,-407.38 1777.92,-404.08 1778.06,-411.08"/>
</g>
<!-- mathutils -->
<g id="node24" class="node">
<title>mathutils</title>
<polygon fill="#343434" stroke="#343434" points="1356.5,-644 1265.5,-644 1265.5,-608 1356.5,-608 1356.5,-644"/>
<text text-anchor="middle" x="1311" y="-622.3" font-family="Courier,monospace" font-size="14.00" fill="#de958e">mathutils</text>
</g>
<!-- mathutils&#45;&gt;shot_glass.blender.blender_tools -->
<g id="edge40" class="edge">
<title>mathutils&#45;&gt;shot_glass.blender.blender_tools</title>
<path fill="none" stroke="#de958e" d="M1356.69,-617.47C1396.03,-609.95 1454.84,-598.72 1505.95,-588.96"/>
<polygon fill="#de958e" stroke="#de958e" points="1506.9,-592.35 1516.06,-587.03 1505.58,-585.47 1506.9,-592.35"/>
</g>
<!-- shot_glass.plotly&#45;&gt;shot_glass.plotly.plotly_tools -->
<g id="edge41" class="edge">
<title>shot_glass.plotly&#45;&gt;shot_glass.plotly.plotly_tools</title>
<path fill="none" stroke="#a0d17b" d="M296.1,-142.86C320.75,-148.22 348.25,-154.2 373.87,-159.76"/>
<polygon fill="#a0d17b" stroke="#a0d17b" points="373.44,-163.25 383.96,-161.95 374.93,-156.41 373.44,-163.25"/>
</g>
<!-- pandas -->
<g id="node26" class="node">
<title>pandas</title>
<polygon fill="#343434" stroke="#343434" points="501,-415 435,-415 435,-379 501,-379 501,-415"/>
<text text-anchor="middle" x="468" y="-393.3" font-family="Courier,monospace" font-size="14.00" fill="#de958e">pandas</text>
</g>
<!-- pandas&#45;&gt;shot_glass.blender.blender_tools -->
<g id="edge42" class="edge">
<title>pandas&#45;&gt;shot_glass.blender.blender_tools</title>
<path fill="none" stroke="#de958e" d="M501.01,-395.3C572.69,-391.92 751.48,-385.94 900,-401 926.69,-403.71 1433.15,-506.49 1435,-507 1476.01,-518.3 1521.24,-534.37 1555.51,-547.32"/>
<polygon fill="#de958e" stroke="#de958e" points="1554.29,-550.59 1564.88,-550.88 1556.78,-544.05 1554.29,-550.59"/>
</g>
<!-- pandas&#45;&gt;shot_glass.hifive.hifive -->
<g id="edge43" class="edge">
<title>pandas&#45;&gt;shot_glass.hifive.hifive</title>
<path fill="none" stroke="#de958e" d="M501.16,-397.53C573.89,-399.54 755.9,-409.04 900,-454 937.83,-465.8 977.72,-487.1 1005.64,-503.66"/>
<polygon fill="#de958e" stroke="#de958e" points="1003.9,-506.69 1014.27,-508.85 1007.51,-500.69 1003.9,-506.69"/>
</g>
<!-- pandas&#45;&gt;shot_glass.hifive.hifive_tools -->
<g id="edge44" class="edge">
<title>pandas&#45;&gt;shot_glass.hifive.hifive_tools</title>
<path fill="none" stroke="#de958e" d="M501.17,-406.07C546.82,-418.94 631.66,-442.85 693.24,-460.21"/>
<polygon fill="#de958e" stroke="#de958e" points="692.34,-463.59 702.92,-462.94 694.24,-456.85 692.34,-463.59"/>
</g>
<!-- pandas&#45;&gt;shot_glass.hifive.operators -->
<g id="edge45" class="edge">
<title>pandas&#45;&gt;shot_glass.hifive.operators</title>
<path fill="none" stroke="#de958e" d="M501.03,-390.8C601.58,-371.69 920.12,-313.86 1187,-295 1296.95,-287.23 1324.79,-293.44 1435,-295 1575.93,-297 1617.41,-262.16 1752,-304 1801.08,-319.26 1849.49,-354.83 1878.69,-379.16"/>
<polygon fill="#de958e" stroke="#de958e" points="1876.51,-381.9 1886.4,-385.7 1881.03,-376.56 1876.51,-381.9"/>
</g>
<!-- pandas&#45;&gt;shot_glass.obj.obj_tools -->
<g id="edge46" class="edge">
<title>pandas&#45;&gt;shot_glass.obj.obj_tools</title>
<path fill="none" stroke="#de958e" d="M501.26,-398.9C530.52,-398.84 573.07,-394.05 600,-370 638.37,-335.74 598.26,-294.95 636,-260 640.68,-255.67 645.84,-251.89 651.34,-248.61"/>
<polygon fill="#de958e" stroke="#de958e" points="653.07,-251.66 660.23,-243.85 649.76,-245.49 653.07,-251.66"/>
</g>
<!-- plotly -->
<g id="node27" class="node">
<title>plotly</title>
<polygon fill="#343434" stroke="#343434" points="250.5,-198 184.5,-198 184.5,-162 250.5,-162 250.5,-198"/>
<text text-anchor="middle" x="217.5" y="-176.3" font-family="Courier,monospace" font-size="14.00" fill="#de958e">plotly</text>
</g>
<!-- plotly&#45;&gt;shot_glass.plotly.plotly_tools -->
<g id="edge47" class="edge">
<title>plotly&#45;&gt;shot_glass.plotly.plotly_tools</title>
<path fill="none" stroke="#de958e" d="M250.73,-180C270.59,-180 297.57,-180 325.74,-180"/>
<polygon fill="#de958e" stroke="#de958e" points="325.75,-183.5 335.75,-180 325.75,-176.5 325.75,-183.5"/>
</g>
<!-- wrapt -->
<g id="node28" class="node">
<title>wrapt</title>
<polygon fill="#343434" stroke="#343434" points="1340,-368 1282,-368 1282,-332 1340,-332 1340,-368"/>
<text text-anchor="middle" x="1311" y="-346.3" font-family="Courier,monospace" font-size="14.00" fill="#de958e">wrapt</text>
</g>
<!-- wrapt&#45;&gt;shot_glass.hifive.operator_tools -->
<g id="edge48" class="edge">
<title>wrapt&#45;&gt;shot_glass.hifive.operator_tools</title>
<path fill="none" stroke="#de958e" d="M1340.08,-352.92C1368.41,-355.86 1414.44,-360.64 1460.55,-365.43"/>
<polygon fill="#de958e" stroke="#de958e" points="1460.39,-368.93 1470.7,-366.48 1461.11,-361.97 1460.39,-368.93"/>
</g>
<!-- shot_glass.obj&#45;&gt;shot_glass.obj.obj_parser -->
<g id="edge49" class="edge">
<title>shot_glass.obj&#45;&gt;shot_glass.obj.obj_parser</title>
<path fill="none" stroke="#a0d17b" d="M283.79,-246.61C308.25,-251.34 336.68,-256.83 363.75,-262.06"/>
<polygon fill="#a0d17b" stroke="#a0d17b" points="363.16,-265.51 373.64,-263.97 364.49,-258.63 363.16,-265.51"/>
</g>
<!-- shot_glass.obj&#45;&gt;shot_glass.obj.obj_tools -->
<g id="edge50" class="edge">
<title>shot_glass.obj&#45;&gt;shot_glass.obj.obj_tools</title>
<path fill="none" stroke="#a0d17b" d="M283.57,-233.29C373.77,-232.3 538.27,-230.5 650.07,-229.28"/>
<polygon fill="#a0d17b" stroke="#a0d17b" points="650.42,-232.78 660.38,-229.17 650.34,-225.78 650.42,-232.78"/>
</g>
<!-- lunchbox.stopwatch -->
<g id="node30" class="node">
<title>lunchbox.stopwatch</title>
<polygon fill="#343434" stroke="#343434" points="300,-360 135,-360 135,-324 300,-324 300,-360"/>
<text text-anchor="middle" x="217.5" y="-338.3" font-family="Courier,monospace" font-size="14.00" fill="#de958e">lunchbox.stopwatch</text>
</g>
<!-- lunchbox.stopwatch&#45;&gt;shot_glass.obj.obj_parser -->
<g id="edge51" class="edge">
<title>lunchbox.stopwatch&#45;&gt;shot_glass.obj.obj_parser</title>
<path fill="none" stroke="#de958e" d="M293.06,-324C321.07,-317.24 353.1,-309.5 381.99,-302.53"/>
<polygon fill="#de958e" stroke="#de958e" points="383.17,-305.84 392.07,-300.09 381.52,-299.04 383.17,-305.84"/>
</g>
<!-- pyparsing -->
<g id="node31" class="node">
<title>pyparsing</title>
<polygon fill="#343434" stroke="#343434" points="263,-306 172,-306 172,-270 263,-270 263,-306"/>
<text text-anchor="middle" x="217.5" y="-284.3" font-family="Courier,monospace" font-size="14.00" fill="#de958e">pyparsing</text>
</g>
<!-- pyparsing&#45;&gt;shot_glass.obj.obj_parser -->
<g id="edge52" class="edge">
<title>pyparsing&#45;&gt;shot_glass.obj.obj_parser</title>
<path fill="none" stroke="#de958e" d="M263.21,-286.92C286.69,-286.35 316.7,-285.63 346.43,-284.91"/>
<polygon fill="#de958e" stroke="#de958e" points="346.58,-288.41 356.5,-284.67 346.41,-281.41 346.58,-288.41"/>
</g>
</g>
</svg>
