<?xml version="1.0" encoding="UTF-8" standalone="no"?>
<!DOCTYPE svg PUBLIC "-//W3C//DTD SVG 1.1//EN"
 "http://www.w3.org/Graphics/SVG/1.1/DTD/svg11.dtd">
<!-- Generated by graphviz version 2.43.0 (0)
 -->
<!-- Title: %3 Pages: 1 -->
<svg width="2035pt" height="903pt"
 viewBox="0.00 0.00 2035.00 903.00" xmlns="http://www.w3.org/2000/svg" xmlns:xlink="http://www.w3.org/1999/xlink">
<g id="graph0" class="graph" transform="scale(1 1) rotate(0) translate(4 899)">
<title>%3</title>
<polygon fill="#242424" stroke="transparent" points="-4,4 -4,-899 2031,-899 2031,4 -4,4"/>
<!-- cli -->
<g id="node1" class="node">
<title>cli</title>
<polygon fill="#343434" stroke="#343434" points="76.5,-473 22.5,-473 22.5,-437 76.5,-437 76.5,-473"/>
<text text-anchor="middle" x="49.5" y="-451.3" font-family="Courier,monospace" font-size="14.00" fill="#b6ecf3">cli</text>
</g>
<!-- shot_glass.blender.blender_tools -->
<g id="node2" class="node">
<title>shot_glass.blender.blender_tools</title>
<polygon fill="#343434" stroke="#343434" points="1752,-327 1471,-327 1471,-291 1752,-291 1752,-327"/>
<text text-anchor="middle" x="1611.5" y="-305.3" font-family="Courier,monospace" font-size="14.00" fill="#b6ecf3">shot_glass.blender.blender_tools</text>
</g>
<!-- shot_glass.hifive.operators -->
<g id="node9" class="node">
<title>shot_glass.hifive.operators</title>
<polygon fill="#343434" stroke="#343434" points="2027,-431 1788,-431 1788,-395 2027,-395 2027,-431"/>
<text text-anchor="middle" x="1907.5" y="-409.3" font-family="Courier,monospace" font-size="14.00" fill="#b6ecf3">shot_glass.hifive.operators</text>
</g>
<!-- shot_glass.blender.blender_tools&#45;&gt;shot_glass.hifive.operators -->
<g id="edge1" class="edge">
<title>shot_glass.blender.blender_tools&#45;&gt;shot_glass.hifive.operators</title>
<path fill="none" stroke="#b6ecf3" d="M1663.71,-327.12C1714.36,-345.03 1791.87,-372.45 1845.63,-391.47"/>
<polygon fill="#b6ecf3" stroke="#b6ecf3" points="1844.79,-394.88 1855.38,-394.92 1847.12,-388.28 1844.79,-394.88"/>
</g>
<!-- shot_glass.command -->
<g id="node3" class="node">
<title>shot_glass.command</title>
<polygon fill="#343434" stroke="#343434" points="300,-895 135,-895 135,-859 300,-859 300,-895"/>
<text text-anchor="middle" x="217.5" y="-873.3" font-family="Courier,monospace" font-size="14.00" fill="#b6ecf3">shot_glass.command</text>
</g>
<!-- shot_glass.core.monad -->
<g id="node4" class="node">
<title>shot_glass.core.monad</title>
<polygon fill="#343434" stroke="#343434" points="563,-809 373,-809 373,-773 563,-773 563,-809"/>
<text text-anchor="middle" x="468" y="-787.3" font-family="Courier,monospace" font-size="14.00" fill="#b6ecf3">shot_glass.core.monad</text>
</g>
<!-- shot_glass.core.tools -->
<g id="node5" class="node">
<title>shot_glass.core.tools</title>
<polygon fill="#343434" stroke="#343434" points="563,-564 373,-564 373,-528 563,-528 563,-564"/>
<text text-anchor="middle" x="468" y="-542.3" font-family="Courier,monospace" font-size="14.00" fill="#b6ecf3">shot_glass.core.tools</text>
</g>
<!-- shot_glass.hifive.hifive -->
<g id="node6" class="node">
<title>shot_glass.hifive.hifive</title>
<polygon fill="#343434" stroke="#343434" points="1151,-510 936,-510 936,-474 1151,-474 1151,-510"/>
<text text-anchor="middle" x="1043.5" y="-488.3" font-family="Courier,monospace" font-size="14.00" fill="#b6ecf3">shot_glass.hifive.hifive</text>
</g>
<!-- shot_glass.core.tools&#45;&gt;shot_glass.hifive.hifive -->
<g id="edge2" class="edge">
<title>shot_glass.core.tools&#45;&gt;shot_glass.hifive.hifive</title>
<path fill="none" stroke="#b6ecf3" d="M540.14,-564.04C626.71,-582.91 776.6,-605.62 900,-573 941.46,-562.04 983.48,-535.92 1011.04,-516.28"/>
<polygon fill="#b6ecf3" stroke="#b6ecf3" points="1013.43,-518.87 1019.47,-510.16 1009.32,-513.21 1013.43,-518.87"/>
</g>
<!-- shot_glass.hifive.hifive_tools -->
<g id="node7" class="node">
<title>shot_glass.hifive.hifive_tools</title>
<polygon fill="#343434" stroke="#343434" points="900,-564 636,-564 636,-528 900,-528 900,-564"/>
<text text-anchor="middle" x="768" y="-542.3" font-family="Courier,monospace" font-size="14.00" fill="#b6ecf3">shot_glass.hifive.hifive_tools</text>
</g>
<!-- shot_glass.core.tools&#45;&gt;shot_glass.hifive.hifive_tools -->
<g id="edge3" class="edge">
<title>shot_glass.core.tools&#45;&gt;shot_glass.hifive.hifive_tools</title>
<path fill="none" stroke="#b6ecf3" d="M563.29,-546C583.16,-546 604.54,-546 625.71,-546"/>
<polygon fill="#b6ecf3" stroke="#b6ecf3" points="625.75,-549.5 635.75,-546 625.75,-542.5 625.75,-549.5"/>
</g>
<!-- shot_glass.core.tools&#45;&gt;shot_glass.hifive.operators -->
<g id="edge4" class="edge">
<title>shot_glass.core.tools&#45;&gt;shot_glass.hifive.operators</title>
<path fill="none" stroke="#b6ecf3" d="M518.87,-564C617.5,-597.94 845.02,-668 1042.5,-668 1042.5,-668 1042.5,-668 1312,-668 1544.63,-668 1790.01,-501.06 1875.22,-437.32"/>
<polygon fill="#b6ecf3" stroke="#b6ecf3" points="1877.55,-439.95 1883.42,-431.13 1873.33,-434.36 1877.55,-439.95"/>
</g>
<!-- shot_glass.hifive.type_base -->
<g id="node10" class="node">
<title>shot_glass.hifive.type_base</title>
<polygon fill="#343434" stroke="#343434" points="887.5,-510 648.5,-510 648.5,-474 887.5,-474 887.5,-510"/>
<text text-anchor="middle" x="768" y="-488.3" font-family="Courier,monospace" font-size="14.00" fill="#b6ecf3">shot_glass.hifive.type_base</text>
</g>
<!-- shot_glass.core.tools&#45;&gt;shot_glass.hifive.type_base -->
<g id="edge5" class="edge">
<title>shot_glass.core.tools&#45;&gt;shot_glass.hifive.type_base</title>
<path fill="none" stroke="#b6ecf3" d="M563.29,-528.91C593.22,-523.49 626.56,-517.45 657.47,-511.85"/>
<polygon fill="#b6ecf3" stroke="#b6ecf3" points="658.19,-515.27 667.41,-510.05 656.94,-508.39 658.19,-515.27"/>
</g>
<!-- shot_glass.hifive.validators -->
<g id="node11" class="node">
<title>shot_glass.hifive.validators</title>
<polygon fill="#343434" stroke="#343434" points="1435,-404 1187,-404 1187,-368 1435,-368 1435,-404"/>
<text text-anchor="middle" x="1311" y="-382.3" font-family="Courier,monospace" font-size="14.00" fill="#b6ecf3">shot_glass.hifive.validators</text>
</g>
<!-- shot_glass.core.tools&#45;&gt;shot_glass.hifive.validators -->
<g id="edge6" class="edge">
<title>shot_glass.core.tools&#45;&gt;shot_glass.hifive.validators</title>
<path fill="none" stroke="#b6ecf3" d="M498.55,-527.88C531,-508.89 585.27,-479.81 636,-465 818.46,-411.71 1038.64,-394.22 1176.52,-388.56"/>
<polygon fill="#b6ecf3" stroke="#b6ecf3" points="1176.87,-392.05 1186.72,-388.16 1176.59,-385.05 1176.87,-392.05"/>
</g>
<!-- shot_glass.hifive.hifive&#45;&gt;shot_glass.hifive.operators -->
<g id="edge7" class="edge">
<title>shot_glass.hifive.hifive&#45;&gt;shot_glass.hifive.operators</title>
<path fill="none" stroke="#b6ecf3" d="M1151.07,-489.9C1289.97,-486.05 1540.16,-475.35 1752,-446 1775.07,-442.8 1799.84,-438.09 1822.64,-433.23"/>
<polygon fill="#b6ecf3" stroke="#b6ecf3" points="1823.59,-436.61 1832.62,-431.07 1822.11,-429.77 1823.59,-436.61"/>
</g>
<!-- shot_glass.hifive.hifive&#45;&gt;shot_glass.hifive.validators -->
<g id="edge8" class="edge">
<title>shot_glass.hifive.hifive&#45;&gt;shot_glass.hifive.validators</title>
<path fill="none" stroke="#b6ecf3" d="M1089.84,-473.9C1135.66,-455.6 1206.49,-427.33 1255.38,-407.81"/>
<polygon fill="#b6ecf3" stroke="#b6ecf3" points="1256.86,-410.99 1264.85,-404.03 1254.26,-404.48 1256.86,-410.99"/>
</g>
<!-- shot_glass.hifive.hifive_tools&#45;&gt;shot_glass.hifive.hifive -->
<g id="edge9" class="edge">
<title>shot_glass.hifive.hifive_tools&#45;&gt;shot_glass.hifive.hifive</title>
<path fill="none" stroke="#b6ecf3" d="M860.45,-527.94C886.34,-522.83 914.67,-517.24 941.1,-512.02"/>
<polygon fill="#b6ecf3" stroke="#b6ecf3" points="942,-515.41 951.13,-510.04 940.65,-508.54 942,-515.41"/>
</g>
<!-- shot_glass.hifive.operator_tools -->
<g id="node8" class="node">
<title>shot_glass.hifive.operator_tools</title>
<polygon fill="#343434" stroke="#343434" points="1752,-84 1471,-84 1471,-48 1752,-48 1752,-84"/>
<text text-anchor="middle" x="1611.5" y="-62.3" font-family="Courier,monospace" font-size="14.00" fill="#b6ecf3">shot_glass.hifive.operator_tools</text>
</g>
<!-- shot_glass.hifive.operator_tools&#45;&gt;shot_glass.hifive.operators -->
<g id="edge10" class="edge">
<title>shot_glass.hifive.operator_tools&#45;&gt;shot_glass.hifive.operators</title>
<path fill="none" stroke="#b6ecf3" d="M1725.54,-84.14C1735.03,-88.39 1744.03,-93.61 1752,-100 1846.32,-175.6 1887.45,-323.4 1901.02,-385"/>
<polygon fill="#b6ecf3" stroke="#b6ecf3" points="1897.6,-385.75 1903.11,-394.8 1904.45,-384.29 1897.6,-385.75"/>
</g>
<!-- shot_glass.hifive.type_base&#45;&gt;shot_glass.hifive.hifive -->
<g id="edge11" class="edge">
<title>shot_glass.hifive.type_base&#45;&gt;shot_glass.hifive.hifive</title>
<path fill="none" stroke="#b6ecf3" d="M887.77,-492C900.39,-492 913.23,-492 925.83,-492"/>
<polygon fill="#b6ecf3" stroke="#b6ecf3" points="925.88,-495.5 935.88,-492 925.88,-488.5 925.88,-495.5"/>
</g>
<!-- shot_glass.hifive.validators&#45;&gt;shot_glass.blender.blender_tools -->
<g id="edge12" class="edge">
<title>shot_glass.hifive.validators&#45;&gt;shot_glass.blender.blender_tools</title>
<path fill="none" stroke="#b6ecf3" d="M1397.52,-367.94C1410.12,-365.07 1422.92,-362.04 1435,-359 1470.08,-350.16 1508.78,-339.26 1540.9,-329.89"/>
<polygon fill="#b6ecf3" stroke="#b6ecf3" points="1542.03,-333.21 1550.64,-327.04 1540.06,-326.49 1542.03,-333.21"/>
</g>
<!-- shot_glass.hifive.validators&#45;&gt;shot_glass.hifive.operators -->
<g id="edge13" class="edge">
<title>shot_glass.hifive.validators&#45;&gt;shot_glass.hifive.operators</title>
<path fill="none" stroke="#b6ecf3" d="M1435.18,-391.59C1535.32,-396.14 1676.16,-402.54 1777.77,-407.15"/>
<polygon fill="#b6ecf3" stroke="#b6ecf3" points="1777.64,-410.65 1787.79,-407.61 1777.95,-403.66 1777.64,-410.65"/>
</g>
<!-- shot_glass.obj.obj_parser -->
<g id="node12" class="node">
<title>shot_glass.obj.obj_parser</title>
<polygon fill="#343434" stroke="#343434" points="579.5,-717 356.5,-717 356.5,-681 579.5,-681 579.5,-717"/>
<text text-anchor="middle" x="468" y="-695.3" font-family="Courier,monospace" font-size="14.00" fill="#b6ecf3">shot_glass.obj.obj_parser</text>
</g>
<!-- shot_glass.obj.obj_tools -->
<g id="node13" class="node">
<title>shot_glass.obj.obj_tools</title>
<polygon fill="#343434" stroke="#343434" points="875.5,-808 660.5,-808 660.5,-772 875.5,-772 875.5,-808"/>
<text text-anchor="middle" x="768" y="-786.3" font-family="Courier,monospace" font-size="14.00" fill="#b6ecf3">shot_glass.obj.obj_tools</text>
</g>
<!-- shot_glass.obj.obj_parser&#45;&gt;shot_glass.obj.obj_tools -->
<g id="edge14" class="edge">
<title>shot_glass.obj.obj_parser&#45;&gt;shot_glass.obj.obj_tools</title>
<path fill="none" stroke="#b6ecf3" d="M562.93,-717.03C575.67,-720.88 588.36,-725.5 600,-731 618.08,-739.55 617.92,-749.45 636,-758 644.73,-762.13 654.05,-765.75 663.54,-768.94"/>
<polygon fill="#b6ecf3" stroke="#b6ecf3" points="662.48,-772.27 673.07,-771.97 664.61,-765.6 662.48,-772.27"/>
</g>
<!-- shot_glass.obj.obj_tools&#45;&gt;shot_glass.hifive.operators -->
<g id="edge15" class="edge">
<title>shot_glass.obj.obj_tools&#45;&gt;shot_glass.hifive.operators</title>
<path fill="none" stroke="#b6ecf3" d="M828.91,-808C993.04,-853.47 1457.29,-955.82 1752,-758 1862.95,-683.53 1895.14,-509.28 1903.68,-441.08"/>
<polygon fill="#b6ecf3" stroke="#b6ecf3" points="1907.16,-441.41 1904.85,-431.07 1900.21,-440.6 1907.16,-441.41"/>
</g>
<!-- shot_glass.plotly.plotly_tools -->
<g id="node14" class="node">
<title>shot_glass.plotly.plotly_tools</title>
<polygon fill="#343434" stroke="#343434" points="600,-166 336,-166 336,-130 600,-130 600,-166"/>
<text text-anchor="middle" x="468" y="-144.3" font-family="Courier,monospace" font-size="14.00" fill="#b6ecf3">shot_glass.plotly.plotly_tools</text>
</g>
<!-- shot_glass.plotly.plotly_tools&#45;&gt;shot_glass.hifive.operators -->
<g id="edge16" class="edge">
<title>shot_glass.plotly.plotly_tools&#45;&gt;shot_glass.hifive.operators</title>
<path fill="none" stroke="#b6ecf3" d="M600.34,-140.57C787.38,-132.69 1140.45,-127.75 1435,-181 1580.51,-207.31 1622.65,-210.35 1752,-282 1803.68,-310.63 1854.06,-358.09 1882.6,-387.35"/>
<polygon fill="#b6ecf3" stroke="#b6ecf3" points="1880.25,-389.95 1889.71,-394.73 1885.29,-385.1 1880.25,-389.95"/>
</g>
<!-- click -->
<g id="node15" class="node">
<title>click</title>
<polygon fill="#343434" stroke="#343434" points="78.5,-895 20.5,-895 20.5,-859 78.5,-859 78.5,-895"/>
<text text-anchor="middle" x="49.5" y="-873.3" font-family="Courier,monospace" font-size="14.00" fill="#de958e">click</text>
</g>
<!-- click&#45;&gt;shot_glass.command -->
<g id="edge17" class="edge">
<title>click&#45;&gt;shot_glass.command</title>
<path fill="none" stroke="#de958e" d="M78.66,-877C91.61,-877 107.77,-877 124.43,-877"/>
<polygon fill="#de958e" stroke="#de958e" points="124.85,-880.5 134.85,-877 124.85,-873.5 124.85,-880.5"/>
</g>
<!-- infix -->
<g id="node16" class="node">
<title>infix</title>
<polygon fill="#343434" stroke="#343434" points="246.5,-787 188.5,-787 188.5,-751 246.5,-751 246.5,-787"/>
<text text-anchor="middle" x="217.5" y="-765.3" font-family="Courier,monospace" font-size="14.00" fill="#de958e">infix</text>
</g>
<!-- infix&#45;&gt;shot_glass.core.monad -->
<g id="edge18" class="edge">
<title>infix&#45;&gt;shot_glass.core.monad</title>
<path fill="none" stroke="#de958e" d="M246.52,-771.48C274.84,-773.99 320.35,-778.02 362.68,-781.76"/>
<polygon fill="#de958e" stroke="#de958e" points="362.52,-785.26 372.79,-782.66 363.14,-778.29 362.52,-785.26"/>
</g>
<!-- lunchbox.enforce -->
<g id="node17" class="node">
<title>lunchbox.enforce</title>
<polygon fill="#343434" stroke="#343434" points="292,-841 143,-841 143,-805 292,-805 292,-841"/>
<text text-anchor="middle" x="217.5" y="-819.3" font-family="Courier,monospace" font-size="14.00" fill="#de958e">lunchbox.enforce</text>
</g>
<!-- lunchbox.enforce&#45;&gt;shot_glass.core.monad -->
<g id="edge19" class="edge">
<title>lunchbox.enforce&#45;&gt;shot_glass.core.monad</title>
<path fill="none" stroke="#de958e" d="M292.05,-813.53C314.22,-810.67 338.98,-807.49 362.74,-804.43"/>
<polygon fill="#de958e" stroke="#de958e" points="363.38,-807.87 372.85,-803.12 362.49,-800.93 363.38,-807.87"/>
</g>
<!-- shot_glass.core -->
<g id="node18" class="node">
<title>shot_glass.core</title>
<polygon fill="#343434" stroke="#343434" points="287.5,-564 147.5,-564 147.5,-528 287.5,-528 287.5,-564"/>
<text text-anchor="middle" x="217.5" y="-542.3" font-family="Courier,monospace" font-size="14.00" fill="#a0d17b">shot_glass.core</text>
</g>
<!-- shot_glass.core&#45;&gt;shot_glass.core.monad -->
<g id="edge20" class="edge">
<title>shot_glass.core&#45;&gt;shot_glass.core.monad</title>
<path fill="none" stroke="#a0d17b" d="M280.18,-564.13C287.62,-568.38 294.51,-573.6 300,-580 343.5,-630.74 294.19,-673.86 336,-726 351.29,-745.06 373.6,-758.98 395.49,-768.93"/>
<polygon fill="#a0d17b" stroke="#a0d17b" points="394.26,-772.2 404.82,-772.95 397.03,-765.78 394.26,-772.2"/>
</g>
<!-- shot_glass.core&#45;&gt;shot_glass.core.tools -->
<g id="edge21" class="edge">
<title>shot_glass.core&#45;&gt;shot_glass.core.tools</title>
<path fill="none" stroke="#a0d17b" d="M287.72,-546C310.82,-546 337.1,-546 362.28,-546"/>
<polygon fill="#a0d17b" stroke="#a0d17b" points="362.61,-549.5 372.61,-546 362.61,-542.5 362.61,-549.5"/>
</g>
<!-- shot_glass -->
<g id="node19" class="node">
<title>shot_glass</title>
<polygon fill="#343434" stroke="#343434" points="99,-527 0,-527 0,-491 99,-491 99,-527"/>
<text text-anchor="middle" x="49.5" y="-505.3" font-family="Courier,monospace" font-size="14.00" fill="#a0d17b">shot_glass</text>
</g>
<!-- shot_glass&#45;&gt;shot_glass.command -->
<g id="edge22" class="edge">
<title>shot_glass&#45;&gt;shot_glass.command</title>
<path fill="none" stroke="#a0d17b" d="M52.71,-527.39C60.72,-591.16 90.15,-801.55 135,-850 135.78,-850.85 136.6,-851.67 137.43,-852.46"/>
<polygon fill="#a0d17b" stroke="#a0d17b" points="135.57,-855.45 145.57,-858.95 139.93,-849.98 135.57,-855.45"/>
</g>
<!-- shot_glass&#45;&gt;shot_glass.core -->
<g id="edge23" class="edge">
<title>shot_glass&#45;&gt;shot_glass.core</title>
<path fill="none" stroke="#a0d17b" d="M99.41,-519.9C111.37,-522.57 124.48,-525.49 137.46,-528.38"/>
<polygon fill="#a0d17b" stroke="#a0d17b" points="136.82,-531.83 147.34,-530.58 138.34,-524.99 136.82,-531.83"/>
</g>
<!-- shot_glass.hifive -->
<g id="node20" class="node">
<title>shot_glass.hifive</title>
<polygon fill="#343434" stroke="#343434" points="546.5,-464 389.5,-464 389.5,-428 546.5,-428 546.5,-464"/>
<text text-anchor="middle" x="468" y="-442.3" font-family="Courier,monospace" font-size="14.00" fill="#a0d17b">shot_glass.hifive</text>
</g>
<!-- shot_glass&#45;&gt;shot_glass.hifive -->
<g id="edge24" class="edge">
<title>shot_glass&#45;&gt;shot_glass.hifive</title>
<path fill="none" stroke="#a0d17b" d="M99.09,-501.65C167.73,-491.27 294.18,-472.14 379.43,-459.25"/>
<polygon fill="#a0d17b" stroke="#a0d17b" points="379.99,-462.7 389.36,-457.74 378.95,-455.78 379.99,-462.7"/>
</g>
<!-- shot_glass.blender -->
<g id="node21" class="node">
<title>shot_glass.blender</title>
<polygon fill="#343434" stroke="#343434" points="1126,-212 961,-212 961,-176 1126,-176 1126,-212"/>
<text text-anchor="middle" x="1043.5" y="-190.3" font-family="Courier,monospace" font-size="14.00" fill="#a0d17b">shot_glass.blender</text>
</g>
<!-- shot_glass&#45;&gt;shot_glass.blender -->
<g id="edge25" class="edge">
<title>shot_glass&#45;&gt;shot_glass.blender</title>
<path fill="none" stroke="#a0d17b" d="M83.56,-490.99C189.36,-433.67 519.5,-257.42 636,-226 741.31,-197.6 867.1,-191.79 950.58,-191.67"/>
<polygon fill="#a0d17b" stroke="#a0d17b" points="950.79,-195.17 960.79,-191.68 950.8,-188.17 950.79,-195.17"/>
</g>
<!-- shot_glass.plotly -->
<g id="node24" class="node">
<title>shot_glass.plotly</title>
<polygon fill="#343434" stroke="#343434" points="296,-120 139,-120 139,-84 296,-84 296,-120"/>
<text text-anchor="middle" x="217.5" y="-98.3" font-family="Courier,monospace" font-size="14.00" fill="#a0d17b">shot_glass.plotly</text>
</g>
<!-- shot_glass&#45;&gt;shot_glass.plotly -->
<g id="edge26" class="edge">
<title>shot_glass&#45;&gt;shot_glass.plotly</title>
<path fill="none" stroke="#a0d17b" d="M91.29,-490.65C94.24,-488.09 96.88,-485.22 99,-482 185.72,-350.28 36.3,-252 135,-129 135.59,-128.26 136.2,-127.55 136.84,-126.85"/>
<polygon fill="#a0d17b" stroke="#a0d17b" points="139.23,-129.4 144.28,-120.09 134.53,-124.22 139.23,-129.4"/>
</g>
<!-- shot_glass.obj -->
<g id="node29" class="node">
<title>shot_glass.obj</title>
<polygon fill="#343434" stroke="#343434" points="283.5,-733 151.5,-733 151.5,-697 283.5,-697 283.5,-733"/>
<text text-anchor="middle" x="217.5" y="-711.3" font-family="Courier,monospace" font-size="14.00" fill="#a0d17b">shot_glass.obj</text>
</g>
<!-- shot_glass&#45;&gt;shot_glass.obj -->
<g id="edge27" class="edge">
<title>shot_glass&#45;&gt;shot_glass.obj</title>
<path fill="none" stroke="#a0d17b" d="M54.06,-527.08C62.06,-562.97 84.83,-643.57 135,-688 137.45,-690.17 140.09,-692.17 142.86,-694.01"/>
<polygon fill="#a0d17b" stroke="#a0d17b" points="141.1,-697.04 151.5,-699.06 144.63,-691 141.1,-697.04"/>
</g>
<!-- shot_glass.hifive&#45;&gt;shot_glass.hifive.hifive -->
<g id="edge28" class="edge">
<title>shot_glass.hifive&#45;&gt;shot_glass.hifive.hifive</title>
<path fill="none" stroke="#a0d17b" d="M546.74,-446.09C633.25,-446.96 777.06,-450.72 900,-465 915.64,-466.82 932.14,-469.36 948.14,-472.16"/>
<polygon fill="#a0d17b" stroke="#a0d17b" points="947.58,-475.61 958.04,-473.93 948.81,-468.72 947.58,-475.61"/>
</g>
<!-- shot_glass.hifive&#45;&gt;shot_glass.hifive.hifive_tools -->
<g id="edge29" class="edge">
<title>shot_glass.hifive&#45;&gt;shot_glass.hifive.hifive_tools</title>
<path fill="none" stroke="#a0d17b" d="M504.32,-464.03C537.57,-480.37 589.11,-504.1 636,-519 643.16,-521.27 650.59,-523.4 658.13,-525.39"/>
<polygon fill="#a0d17b" stroke="#a0d17b" points="657.52,-528.85 668.07,-527.92 659.24,-522.06 657.52,-528.85"/>
</g>
<!-- shot_glass.hifive&#45;&gt;shot_glass.hifive.operator_tools -->
<g id="edge30" class="edge">
<title>shot_glass.hifive&#45;&gt;shot_glass.hifive.operator_tools</title>
<path fill="none" stroke="#a0d17b" d="M488.38,-427.76C517.87,-401.03 576.88,-351.53 636,-325 760.56,-269.11 802.09,-285.55 936,-259 1031.18,-240.13 1079.69,-286.81 1151,-221 1197.58,-178.01 1137.63,-122.75 1187,-83 1228.12,-49.89 1356.21,-48.56 1460.84,-53.78"/>
<polygon fill="#a0d17b" stroke="#a0d17b" points="1460.72,-57.28 1470.89,-54.31 1461.09,-50.29 1460.72,-57.28"/>
</g>
<!-- shot_glass.hifive&#45;&gt;shot_glass.hifive.operators -->
<g id="edge31" class="edge">
<title>shot_glass.hifive&#45;&gt;shot_glass.hifive.operators</title>
<path fill="none" stroke="#a0d17b" d="M546.54,-444.22C781.24,-438.83 1485.71,-422.66 1777.62,-415.96"/>
<polygon fill="#a0d17b" stroke="#a0d17b" points="1777.91,-419.45 1787.83,-415.72 1777.75,-412.45 1777.91,-419.45"/>
</g>
<!-- shot_glass.hifive&#45;&gt;shot_glass.hifive.type_base -->
<g id="edge32" class="edge">
<title>shot_glass.hifive&#45;&gt;shot_glass.hifive.type_base</title>
<path fill="none" stroke="#a0d17b" d="M546.52,-457.97C575.07,-462.37 608.22,-467.49 640,-472.4"/>
<polygon fill="#a0d17b" stroke="#a0d17b" points="639.84,-475.91 650.26,-473.98 640.91,-469 639.84,-475.91"/>
</g>
<!-- shot_glass.hifive&#45;&gt;shot_glass.hifive.validators -->
<g id="edge33" class="edge">
<title>shot_glass.hifive&#45;&gt;shot_glass.hifive.validators</title>
<path fill="none" stroke="#a0d17b" d="M493.13,-427.96C524.24,-405.93 580.91,-369.9 636,-356 840.36,-304.44 1090.42,-340.18 1220.98,-365.97"/>
<polygon fill="#a0d17b" stroke="#a0d17b" points="1220.44,-369.44 1230.93,-367.97 1221.82,-362.57 1220.44,-369.44"/>
</g>
<!-- shot_glass.blender&#45;&gt;shot_glass.blender.blender_tools -->
<g id="edge34" class="edge">
<title>shot_glass.blender&#45;&gt;shot_glass.blender.blender_tools</title>
<path fill="none" stroke="#a0d17b" d="M1126.22,-187.47C1206.43,-183.5 1331.45,-183.83 1435,-213 1488.39,-228.04 1543.48,-261.68 1577.36,-284.86"/>
<polygon fill="#a0d17b" stroke="#a0d17b" points="1575.71,-287.98 1585.92,-290.8 1579.7,-282.23 1575.71,-287.98"/>
</g>
<!-- bmesh -->
<g id="node22" class="node">
<title>bmesh</title>
<polygon fill="#343434" stroke="#343434" points="1340,-350 1282,-350 1282,-314 1340,-314 1340,-350"/>
<text text-anchor="middle" x="1311" y="-328.3" font-family="Courier,monospace" font-size="14.00" fill="#de958e">bmesh</text>
</g>
<!-- bmesh&#45;&gt;shot_glass.blender.blender_tools -->
<g id="edge35" class="edge">
<title>bmesh&#45;&gt;shot_glass.blender.blender_tools</title>
<path fill="none" stroke="#de958e" d="M1340.08,-329.84C1368.41,-327.65 1414.44,-324.11 1460.55,-320.55"/>
<polygon fill="#de958e" stroke="#de958e" points="1461,-324.03 1470.7,-319.77 1460.46,-317.05 1461,-324.03"/>
</g>
<!-- bpy -->
<g id="node23" class="node">
<title>bpy</title>
<polygon fill="#343434" stroke="#343434" points="1070.5,-304 1016.5,-304 1016.5,-268 1070.5,-268 1070.5,-304"/>
<text text-anchor="middle" x="1043.5" y="-282.3" font-family="Courier,monospace" font-size="14.00" fill="#de958e">bpy</text>
</g>
<!-- bpy&#45;&gt;shot_glass.blender.blender_tools -->
<g id="edge36" class="edge">
<title>bpy&#45;&gt;shot_glass.blender.blender_tools</title>
<path fill="none" stroke="#de958e" d="M1070.66,-287.06C1138.86,-289.83 1326.09,-297.44 1460.92,-302.92"/>
<polygon fill="#de958e" stroke="#de958e" points="1460.81,-306.42 1470.94,-303.33 1461.09,-299.43 1460.81,-306.42"/>
</g>
<!-- bpy&#45;&gt;shot_glass.hifive.validators -->
<g id="edge37" class="edge">
<title>bpy&#45;&gt;shot_glass.hifive.validators</title>
<path fill="none" stroke="#de958e" d="M1070.72,-289.7C1093.39,-293.83 1126.31,-302.14 1151,-318 1171.4,-331.11 1166.12,-346.67 1187,-359 1189.87,-360.69 1192.84,-362.28 1195.88,-363.77"/>
<polygon fill="#de958e" stroke="#de958e" points="1194.63,-367.05 1205.19,-367.95 1197.5,-360.66 1194.63,-367.05"/>
</g>
<!-- shot_glass.plotly&#45;&gt;shot_glass.plotly.plotly_tools -->
<g id="edge38" class="edge">
<title>shot_glass.plotly&#45;&gt;shot_glass.plotly.plotly_tools</title>
<path fill="none" stroke="#a0d17b" d="M296.1,-116.37C316.14,-120.07 338.08,-124.13 359.35,-128.07"/>
<polygon fill="#a0d17b" stroke="#a0d17b" points="358.92,-131.55 369.39,-129.93 360.2,-124.67 358.92,-131.55"/>
</g>
<!-- lunchbox.tools -->
<g id="node25" class="node">
<title>lunchbox.tools</title>
<polygon fill="#343434" stroke="#343434" points="1377,-128 1245,-128 1245,-92 1377,-92 1377,-128"/>
<text text-anchor="middle" x="1311" y="-106.3" font-family="Courier,monospace" font-size="14.00" fill="#de958e">lunchbox.tools</text>
</g>
<!-- lunchbox.tools&#45;&gt;shot_glass.blender.blender_tools -->
<g id="edge39" class="edge">
<title>lunchbox.tools&#45;&gt;shot_glass.blender.blender_tools</title>
<path fill="none" stroke="#de958e" d="M1346.3,-128.13C1371.33,-141.68 1405.84,-161.07 1435,-180 1487.2,-213.87 1544.8,-257.5 1579.3,-284.35"/>
<polygon fill="#de958e" stroke="#de958e" points="1577.52,-287.4 1587.55,-290.79 1581.83,-281.88 1577.52,-287.4"/>
</g>
<!-- lunchbox.tools&#45;&gt;shot_glass.hifive.operator_tools -->
<g id="edge40" class="edge">
<title>lunchbox.tools&#45;&gt;shot_glass.hifive.operator_tools</title>
<path fill="none" stroke="#de958e" d="M1377.14,-100.4C1406.8,-96.03 1443.05,-90.68 1478.05,-85.52"/>
<polygon fill="#de958e" stroke="#de958e" points="1478.99,-88.92 1488.37,-84 1477.97,-82 1478.99,-88.92"/>
</g>
<!-- lunchbox.tools&#45;&gt;shot_glass.hifive.operators -->
<g id="edge41" class="edge">
<title>lunchbox.tools&#45;&gt;shot_glass.hifive.operators</title>
<path fill="none" stroke="#de958e" d="M1377.03,-107.41C1484.02,-104.34 1691.35,-103.75 1752,-142 1841.92,-198.7 1884.78,-327.77 1899.88,-384.9"/>
<polygon fill="#de958e" stroke="#de958e" points="1896.52,-385.87 1902.38,-394.69 1903.3,-384.14 1896.52,-385.87"/>
</g>
<!-- pandas -->
<g id="node26" class="node">
<title>pandas</title>
<polygon fill="#343434" stroke="#343434" points="501,-663 435,-663 435,-627 501,-627 501,-663"/>
<text text-anchor="middle" x="468" y="-641.3" font-family="Courier,monospace" font-size="14.00" fill="#de958e">pandas</text>
</g>
<!-- pandas&#45;&gt;shot_glass.blender.blender_tools -->
<g id="edge42" class="edge">
<title>pandas&#45;&gt;shot_glass.blender.blender_tools</title>
<path fill="none" stroke="#de958e" d="M501.1,-648.13C573.32,-654.31 753.73,-664.97 900,-634 1176.31,-575.5 1473.16,-397.17 1574.36,-332.63"/>
<polygon fill="#de958e" stroke="#de958e" points="1576.45,-335.45 1582.98,-327.1 1572.67,-329.55 1576.45,-335.45"/>
</g>
<!-- pandas&#45;&gt;shot_glass.hifive.hifive -->
<g id="edge43" class="edge">
<title>pandas&#45;&gt;shot_glass.hifive.hifive</title>
<path fill="none" stroke="#de958e" d="M501.14,-646.68C574.58,-649.39 759.22,-649.71 900,-595 945.58,-577.29 989.91,-541.41 1016.71,-517.04"/>
<polygon fill="#de958e" stroke="#de958e" points="1019.16,-519.55 1024.12,-510.19 1014.4,-514.41 1019.16,-519.55"/>
</g>
<!-- pandas&#45;&gt;shot_glass.hifive.hifive_tools -->
<g id="edge44" class="edge">
<title>pandas&#45;&gt;shot_glass.hifive.hifive_tools</title>
<path fill="none" stroke="#de958e" d="M501.17,-634.31C549.25,-618.34 640.8,-587.93 702.87,-567.31"/>
<polygon fill="#de958e" stroke="#de958e" points="704.18,-570.56 712.56,-564.08 701.97,-563.92 704.18,-570.56"/>
</g>
<!-- pandas&#45;&gt;shot_glass.hifive.operators -->
<g id="edge45" class="edge">
<title>pandas&#45;&gt;shot_glass.hifive.operators</title>
<path fill="none" stroke="#de958e" d="M501.06,-651.19C613.73,-672.87 987.69,-744 1042.5,-744 1042.5,-744 1042.5,-744 1312,-744 1518.18,-744 1581.53,-712.97 1752,-597 1814.71,-554.34 1866.28,-479.45 1890.9,-439.64"/>
<polygon fill="#de958e" stroke="#de958e" points="1893.95,-441.37 1896.16,-431.01 1887.97,-437.73 1893.95,-441.37"/>
</g>
<!-- pandas&#45;&gt;shot_glass.obj.obj_tools -->
<g id="edge46" class="edge">
<title>pandas&#45;&gt;shot_glass.obj.obj_tools</title>
<path fill="none" stroke="#de958e" d="M501.11,-643.61C530.05,-644.05 572.21,-649.12 600,-672 631.99,-698.34 604.49,-731.09 636,-758 640.79,-762.09 646.02,-765.68 651.54,-768.82"/>
<polygon fill="#de958e" stroke="#de958e" points="649.95,-771.93 660.45,-773.39 653.15,-765.71 649.95,-771.93"/>
</g>
<!-- mathutils -->
<g id="node27" class="node">
<title>mathutils</title>
<polygon fill="#343434" stroke="#343434" points="1356.5,-258 1265.5,-258 1265.5,-222 1356.5,-222 1356.5,-258"/>
<text text-anchor="middle" x="1311" y="-236.3" font-family="Courier,monospace" font-size="14.00" fill="#de958e">mathutils</text>
</g>
<!-- mathutils&#45;&gt;shot_glass.blender.blender_tools -->
<g id="edge47" class="edge">
<title>mathutils&#45;&gt;shot_glass.blender.blender_tools</title>
<path fill="none" stroke="#de958e" d="M1356.69,-250.33C1400.32,-260.42 1467.93,-276.04 1522.39,-288.63"/>
<polygon fill="#de958e" stroke="#de958e" points="1521.87,-292.1 1532.4,-290.95 1523.45,-285.28 1521.87,-292.1"/>
</g>
<!-- wrapt -->
<g id="node28" class="node">
<title>wrapt</title>
<polygon fill="#343434" stroke="#343434" points="1340,-36 1282,-36 1282,0 1340,0 1340,-36"/>
<text text-anchor="middle" x="1311" y="-14.3" font-family="Courier,monospace" font-size="14.00" fill="#de958e">wrapt</text>
</g>
<!-- wrapt&#45;&gt;shot_glass.hifive.operator_tools -->
<g id="edge48" class="edge">
<title>wrapt&#45;&gt;shot_glass.hifive.operator_tools</title>
<path fill="none" stroke="#de958e" d="M1340.08,-22.52C1374.1,-27.99 1433.65,-37.56 1488.23,-46.34"/>
<polygon fill="#de958e" stroke="#de958e" points="1487.92,-49.83 1498.35,-47.97 1489.04,-42.92 1487.92,-49.83"/>
</g>
<!-- shot_glass.obj&#45;&gt;shot_glass.obj.obj_parser -->
<g id="edge49" class="edge">
<title>shot_glass.obj&#45;&gt;shot_glass.obj.obj_parser</title>
<path fill="none" stroke="#a0d17b" d="M283.79,-710.8C302.91,-709.57 324.45,-708.18 345.87,-706.8"/>
<polygon fill="#a0d17b" stroke="#a0d17b" points="346.27,-710.28 356.03,-706.15 345.82,-703.3 346.27,-710.28"/>
</g>
<!-- shot_glass.obj&#45;&gt;shot_glass.obj.obj_tools -->
<g id="edge50" class="edge">
<title>shot_glass.obj&#45;&gt;shot_glass.obj.obj_tools</title>
<path fill="none" stroke="#a0d17b" d="M283.71,-722.84C359.73,-732.1 489.1,-748.25 600,-764 616.12,-766.29 633.1,-768.81 649.8,-771.35"/>
<polygon fill="#a0d17b" stroke="#a0d17b" points="649.74,-774.88 660.16,-772.93 650.8,-767.96 649.74,-774.88"/>
</g>
<!-- plotly -->
<g id="node30" class="node">
<title>plotly</title>
<polygon fill="#343434" stroke="#343434" points="250.5,-174 184.5,-174 184.5,-138 250.5,-138 250.5,-174"/>
<text text-anchor="middle" x="217.5" y="-152.3" font-family="Courier,monospace" font-size="14.00" fill="#de958e">plotly</text>
</g>
<!-- plotly&#45;&gt;shot_glass.plotly.plotly_tools -->
<g id="edge51" class="edge">
<title>plotly&#45;&gt;shot_glass.plotly.plotly_tools</title>
<path fill="none" stroke="#de958e" d="M250.73,-154.96C270.59,-154.32 297.57,-153.45 325.74,-152.55"/>
<polygon fill="#de958e" stroke="#de958e" points="325.86,-156.05 335.75,-152.23 325.64,-149.05 325.86,-156.05"/>
</g>
<!-- lunchbox.stopwatch -->
<g id="node31" class="node">
<title>lunchbox.stopwatch</title>
<polygon fill="#343434" stroke="#343434" points="300,-625 135,-625 135,-589 300,-589 300,-625"/>
<text text-anchor="middle" x="217.5" y="-603.3" font-family="Courier,monospace" font-size="14.00" fill="#de958e">lunchbox.stopwatch</text>
</g>
<!-- lunchbox.stopwatch&#45;&gt;shot_glass.obj.obj_parser -->
<g id="edge52" class="edge">
<title>lunchbox.stopwatch&#45;&gt;shot_glass.obj.obj_parser</title>
<path fill="none" stroke="#de958e" d="M283.06,-625.02C288.97,-627.66 294.72,-630.64 300,-634 319.63,-646.48 315.67,-660.69 336,-672 339.5,-673.95 343.11,-675.75 346.82,-677.43"/>
<polygon fill="#de958e" stroke="#de958e" points="345.63,-680.72 356.21,-681.33 348.32,-674.26 345.63,-680.72"/>
</g>
<!-- pyparsing -->
<g id="node32" class="node">
<title>pyparsing</title>
<polygon fill="#343434" stroke="#343434" points="263,-679 172,-679 172,-643 263,-643 263,-679"/>
<text text-anchor="middle" x="217.5" y="-657.3" font-family="Courier,monospace" font-size="14.00" fill="#de958e">pyparsing</text>
</g>
<!-- pyparsing&#45;&gt;shot_glass.obj.obj_parser -->
<g id="edge53" class="edge">
<title>pyparsing&#45;&gt;shot_glass.obj.obj_parser</title>
<path fill="none" stroke="#de958e" d="M263.21,-667.84C286.69,-671.43 316.7,-676.02 346.43,-680.56"/>
<polygon fill="#de958e" stroke="#de958e" points="346.08,-684.05 356.5,-682.1 347.14,-677.13 346.08,-684.05"/>
</g>
</g>
</svg>
