<?xml version="1.0" encoding="UTF-8" standalone="no"?>
<!DOCTYPE svg PUBLIC "-//W3C//DTD SVG 1.1//EN"
 "http://www.w3.org/Graphics/SVG/1.1/DTD/svg11.dtd">
<!-- Generated by graphviz version 2.43.0 (0)
 -->
<!-- Title: %3 Pages: 1 -->
<svg width="2035pt" height="1063pt"
 viewBox="0.00 0.00 2035.00 1063.00" xmlns="http://www.w3.org/2000/svg" xmlns:xlink="http://www.w3.org/1999/xlink">
<g id="graph0" class="graph" transform="scale(1 1) rotate(0) translate(4 1059)">
<title>%3</title>
<polygon fill="#242424" stroke="transparent" points="-4,4 -4,-1059 2031,-1059 2031,4 -4,4"/>
<!-- cli -->
<g id="node1" class="node">
<title>cli</title>
<polygon fill="#343434" stroke="#343434" points="76.5,-36 22.5,-36 22.5,0 76.5,0 76.5,-36"/>
<text text-anchor="middle" x="49.5" y="-14.3" font-family="Courier,monospace" font-size="14.00" fill="#b6ecf3">cli</text>
</g>
<!-- shot_glass.blender.blender_tools -->
<g id="node2" class="node">
<title>shot_glass.blender.blender_tools</title>
<polygon fill="#343434" stroke="#343434" points="1752,-714 1471,-714 1471,-678 1752,-678 1752,-714"/>
<text text-anchor="middle" x="1611.5" y="-692.3" font-family="Courier,monospace" font-size="14.00" fill="#b6ecf3">shot_glass.blender.blender_tools</text>
</g>
<!-- shot_glass.hifive.operators -->
<g id="node11" class="node">
<title>shot_glass.hifive.operators</title>
<polygon fill="#343434" stroke="#343434" points="2027,-685 1788,-685 1788,-649 2027,-649 2027,-685"/>
<text text-anchor="middle" x="1907.5" y="-663.3" font-family="Courier,monospace" font-size="14.00" fill="#b6ecf3">shot_glass.hifive.operators</text>
</g>
<!-- shot_glass.blender.blender_tools&#45;&gt;shot_glass.hifive.operators -->
<g id="edge1" class="edge">
<title>shot_glass.blender.blender_tools&#45;&gt;shot_glass.hifive.operators</title>
<path fill="none" stroke="#b6ecf3" d="M1752.18,-682.22C1760.61,-681.39 1769.07,-680.56 1777.45,-679.73"/>
<polygon fill="#b6ecf3" stroke="#b6ecf3" points="1778.01,-683.19 1787.62,-678.73 1777.33,-676.22 1778.01,-683.19"/>
</g>
<!-- shot_glass.command -->
<g id="node3" class="node">
<title>shot_glass.command</title>
<polygon fill="#343434" stroke="#343434" points="300,-90 135,-90 135,-54 300,-54 300,-90"/>
<text text-anchor="middle" x="217.5" y="-68.3" font-family="Courier,monospace" font-size="14.00" fill="#b6ecf3">shot_glass.command</text>
</g>
<!-- shot_glass.core.df_monad -->
<g id="node4" class="node">
<title>shot_glass.core.df_monad</title>
<polygon fill="#343434" stroke="#343434" points="1151,-340 936,-340 936,-304 1151,-304 1151,-340"/>
<text text-anchor="middle" x="1043.5" y="-318.3" font-family="Courier,monospace" font-size="14.00" fill="#b6ecf3">shot_glass.core.df_monad</text>
</g>
<!-- shot_glass.core.monad -->
<g id="node5" class="node">
<title>shot_glass.core.monad</title>
<polygon fill="#343434" stroke="#343434" points="563,-363 373,-363 373,-327 563,-327 563,-363"/>
<text text-anchor="middle" x="468" y="-341.3" font-family="Courier,monospace" font-size="14.00" fill="#b6ecf3">shot_glass.core.monad</text>
</g>
<!-- shot_glass.core.monad&#45;&gt;shot_glass.core.df_monad -->
<g id="edge2" class="edge">
<title>shot_glass.core.monad&#45;&gt;shot_glass.core.df_monad</title>
<path fill="none" stroke="#b6ecf3" d="M563.06,-341.23C662.19,-337.25 818.49,-330.98 925.5,-326.69"/>
<polygon fill="#b6ecf3" stroke="#b6ecf3" points="925.85,-330.18 935.7,-326.28 925.57,-323.19 925.85,-330.18"/>
</g>
<!-- shot_glass.core.s_monad -->
<g id="node6" class="node">
<title>shot_glass.core.s_monad</title>
<polygon fill="#343434" stroke="#343434" points="871,-317 665,-317 665,-281 871,-281 871,-317"/>
<text text-anchor="middle" x="768" y="-295.3" font-family="Courier,monospace" font-size="14.00" fill="#b6ecf3">shot_glass.core.s_monad</text>
</g>
<!-- shot_glass.core.monad&#45;&gt;shot_glass.core.s_monad -->
<g id="edge3" class="edge">
<title>shot_glass.core.monad&#45;&gt;shot_glass.core.s_monad</title>
<path fill="none" stroke="#b6ecf3" d="M563.29,-330.45C592.32,-325.96 624.57,-320.99 654.69,-316.34"/>
<polygon fill="#b6ecf3" stroke="#b6ecf3" points="655.46,-319.76 664.81,-314.77 654.39,-312.84 655.46,-319.76"/>
</g>
<!-- shot_glass.core.s_monad&#45;&gt;shot_glass.core.df_monad -->
<g id="edge4" class="edge">
<title>shot_glass.core.s_monad&#45;&gt;shot_glass.core.df_monad</title>
<path fill="none" stroke="#b6ecf3" d="M871.23,-307.6C889.02,-309.09 907.65,-310.66 925.8,-312.19"/>
<polygon fill="#b6ecf3" stroke="#b6ecf3" points="925.57,-315.68 935.83,-313.03 926.15,-308.7 925.57,-315.68"/>
</g>
<!-- shot_glass.core.tools -->
<g id="node7" class="node">
<title>shot_glass.core.tools</title>
<polygon fill="#343434" stroke="#343434" points="563,-595 373,-595 373,-559 563,-559 563,-595"/>
<text text-anchor="middle" x="468" y="-573.3" font-family="Courier,monospace" font-size="14.00" fill="#b6ecf3">shot_glass.core.tools</text>
</g>
<!-- shot_glass.hifive.hifive -->
<g id="node8" class="node">
<title>shot_glass.hifive.hifive</title>
<polygon fill="#343434" stroke="#343434" points="1151,-561 936,-561 936,-525 1151,-525 1151,-561"/>
<text text-anchor="middle" x="1043.5" y="-539.3" font-family="Courier,monospace" font-size="14.00" fill="#b6ecf3">shot_glass.hifive.hifive</text>
</g>
<!-- shot_glass.core.tools&#45;&gt;shot_glass.hifive.hifive -->
<g id="edge5" class="edge">
<title>shot_glass.core.tools&#45;&gt;shot_glass.hifive.hifive</title>
<path fill="none" stroke="#b6ecf3" d="M563.06,-571.42C662.19,-565.55 818.49,-556.28 925.5,-549.94"/>
<polygon fill="#b6ecf3" stroke="#b6ecf3" points="925.93,-553.42 935.7,-549.33 925.51,-546.43 925.93,-553.42"/>
</g>
<!-- shot_glass.hifive.hifive_tools -->
<g id="node9" class="node">
<title>shot_glass.hifive.hifive_tools</title>
<polygon fill="#343434" stroke="#343434" points="900,-637 636,-637 636,-601 900,-601 900,-637"/>
<text text-anchor="middle" x="768" y="-615.3" font-family="Courier,monospace" font-size="14.00" fill="#b6ecf3">shot_glass.hifive.hifive_tools</text>
</g>
<!-- shot_glass.core.tools&#45;&gt;shot_glass.hifive.hifive_tools -->
<g id="edge6" class="edge">
<title>shot_glass.core.tools&#45;&gt;shot_glass.hifive.hifive_tools</title>
<path fill="none" stroke="#b6ecf3" d="M563.29,-590.29C584.21,-593.24 606.81,-596.42 629.07,-599.56"/>
<polygon fill="#b6ecf3" stroke="#b6ecf3" points="628.88,-603.07 639.27,-601 629.86,-596.14 628.88,-603.07"/>
</g>
<!-- shot_glass.core.tools&#45;&gt;shot_glass.hifive.operators -->
<g id="edge7" class="edge">
<title>shot_glass.core.tools&#45;&gt;shot_glass.hifive.operators</title>
<path fill="none" stroke="#b6ecf3" d="M547.83,-558.95C657.94,-535.35 864.31,-497 1042.5,-497 1042.5,-497 1042.5,-497 1312,-497 1508.81,-497 1569.72,-472.76 1752,-547 1804.55,-568.4 1854.31,-612.98 1882.55,-641.37"/>
<polygon fill="#b6ecf3" stroke="#b6ecf3" points="1880.09,-643.86 1889.58,-648.56 1885.09,-638.97 1880.09,-643.86"/>
</g>
<!-- shot_glass.hifive.type_base -->
<g id="node12" class="node">
<title>shot_glass.hifive.type_base</title>
<polygon fill="#343434" stroke="#343434" points="887.5,-691 648.5,-691 648.5,-655 887.5,-655 887.5,-691"/>
<text text-anchor="middle" x="768" y="-669.3" font-family="Courier,monospace" font-size="14.00" fill="#b6ecf3">shot_glass.hifive.type_base</text>
</g>
<!-- shot_glass.core.tools&#45;&gt;shot_glass.hifive.type_base -->
<g id="edge8" class="edge">
<title>shot_glass.core.tools&#45;&gt;shot_glass.hifive.type_base</title>
<path fill="none" stroke="#b6ecf3" d="M507.05,-595.14C540.42,-610.46 590.56,-632.07 636,-646 643.58,-648.32 651.46,-650.51 659.44,-652.55"/>
<polygon fill="#b6ecf3" stroke="#b6ecf3" points="658.65,-655.96 669.19,-654.96 660.33,-649.16 658.65,-655.96"/>
</g>
<!-- shot_glass.hifive.validators -->
<g id="node13" class="node">
<title>shot_glass.hifive.validators</title>
<polygon fill="#343434" stroke="#343434" points="1435,-599 1187,-599 1187,-563 1435,-563 1435,-599"/>
<text text-anchor="middle" x="1311" y="-577.3" font-family="Courier,monospace" font-size="14.00" fill="#b6ecf3">shot_glass.hifive.validators</text>
</g>
<!-- shot_glass.core.tools&#45;&gt;shot_glass.hifive.validators -->
<g id="edge9" class="edge">
<title>shot_glass.core.tools&#45;&gt;shot_glass.hifive.validators</title>
<path fill="none" stroke="#b6ecf3" d="M485.81,-595.34C513.68,-624.23 572.71,-679.21 636,-700 747.47,-736.62 802.45,-765.2 900,-700 934.79,-676.75 902.23,-637.72 936,-613 973.44,-585.59 1084.97,-578.77 1176.56,-578.12"/>
<polygon fill="#b6ecf3" stroke="#b6ecf3" points="1176.79,-581.62 1186.77,-578.07 1176.76,-574.62 1176.79,-581.62"/>
</g>
<!-- shot_glass.hifive.hifive&#45;&gt;shot_glass.hifive.operators -->
<g id="edge10" class="edge">
<title>shot_glass.hifive.hifive&#45;&gt;shot_glass.hifive.operators</title>
<path fill="none" stroke="#b6ecf3" d="M1151.07,-538.8C1291.56,-536.12 1545.14,-541.27 1752,-600 1790.87,-611.04 1832.8,-629.68 1863.16,-644.51"/>
<polygon fill="#b6ecf3" stroke="#b6ecf3" points="1861.67,-647.68 1872.19,-648.97 1864.78,-641.4 1861.67,-647.68"/>
</g>
<!-- shot_glass.hifive.hifive&#45;&gt;shot_glass.hifive.validators -->
<g id="edge11" class="edge">
<title>shot_glass.hifive.hifive&#45;&gt;shot_glass.hifive.validators</title>
<path fill="none" stroke="#b6ecf3" d="M1151.34,-558.29C1159.73,-559.49 1168.26,-560.71 1176.8,-561.94"/>
<polygon fill="#b6ecf3" stroke="#b6ecf3" points="1176.41,-565.42 1186.81,-563.37 1177.41,-558.49 1176.41,-565.42"/>
</g>
<!-- shot_glass.hifive.hifive_tools&#45;&gt;shot_glass.hifive.hifive -->
<g id="edge12" class="edge">
<title>shot_glass.hifive.hifive_tools&#45;&gt;shot_glass.hifive.hifive</title>
<path fill="none" stroke="#b6ecf3" d="M833.82,-600.99C874.03,-589.81 925.85,-575.41 967.79,-563.76"/>
<polygon fill="#b6ecf3" stroke="#b6ecf3" points="968.98,-567.06 977.68,-561.01 967.1,-560.32 968.98,-567.06"/>
</g>
<!-- shot_glass.hifive.operator_tools -->
<g id="node10" class="node">
<title>shot_glass.hifive.operator_tools</title>
<polygon fill="#343434" stroke="#343434" points="1752,-921 1471,-921 1471,-885 1752,-885 1752,-921"/>
<text text-anchor="middle" x="1611.5" y="-899.3" font-family="Courier,monospace" font-size="14.00" fill="#b6ecf3">shot_glass.hifive.operator_tools</text>
</g>
<!-- shot_glass.hifive.operator_tools&#45;&gt;shot_glass.hifive.operators -->
<g id="edge13" class="edge">
<title>shot_glass.hifive.operator_tools&#45;&gt;shot_glass.hifive.operators</title>
<path fill="none" stroke="#b6ecf3" d="M1644.7,-884.86C1673.76,-867.94 1717.16,-841.27 1752,-814 1801.45,-775.29 1853.2,-723.34 1882.49,-692.69"/>
<polygon fill="#b6ecf3" stroke="#b6ecf3" points="1885.09,-695.04 1889.44,-685.38 1880.01,-690.22 1885.09,-695.04"/>
</g>
<!-- shot_glass.hifive.type_base&#45;&gt;shot_glass.hifive.hifive -->
<g id="edge14" class="edge">
<title>shot_glass.hifive.type_base&#45;&gt;shot_glass.hifive.hifive</title>
<path fill="none" stroke="#b6ecf3" d="M886.16,-654.84C891.02,-652.25 895.66,-649.31 900,-646 928.11,-624.52 908.86,-597.7 936,-575 940.06,-571.6 944.47,-568.57 949.12,-565.85"/>
<polygon fill="#b6ecf3" stroke="#b6ecf3" points="951.08,-568.77 958.29,-561.02 947.82,-562.58 951.08,-568.77"/>
</g>
<!-- shot_glass.hifive.validators&#45;&gt;shot_glass.blender.blender_tools -->
<g id="edge15" class="edge">
<title>shot_glass.hifive.validators&#45;&gt;shot_glass.blender.blender_tools</title>
<path fill="none" stroke="#b6ecf3" d="M1390.43,-599.05C1405.38,-603.16 1420.79,-607.84 1435,-613 1481.82,-629.99 1533.08,-655.03 1568.04,-673.16"/>
<polygon fill="#b6ecf3" stroke="#b6ecf3" points="1566.52,-676.31 1577.01,-677.84 1569.76,-670.11 1566.52,-676.31"/>
</g>
<!-- shot_glass.hifive.validators&#45;&gt;shot_glass.hifive.operators -->
<g id="edge16" class="edge">
<title>shot_glass.hifive.validators&#45;&gt;shot_glass.hifive.operators</title>
<path fill="none" stroke="#b6ecf3" d="M1435.18,-598.82C1535.32,-613.31 1676.16,-633.68 1777.77,-648.38"/>
<polygon fill="#b6ecf3" stroke="#b6ecf3" points="1777.39,-651.86 1787.79,-649.83 1778.39,-644.93 1777.39,-651.86"/>
</g>
<!-- shot_glass.obj.obj_parser -->
<g id="node14" class="node">
<title>shot_glass.obj.obj_parser</title>
<polygon fill="#343434" stroke="#343434" points="579.5,-187 356.5,-187 356.5,-151 579.5,-151 579.5,-187"/>
<text text-anchor="middle" x="468" y="-165.3" font-family="Courier,monospace" font-size="14.00" fill="#b6ecf3">shot_glass.obj.obj_parser</text>
</g>
<!-- shot_glass.obj.obj_tools -->
<g id="node15" class="node">
<title>shot_glass.obj.obj_tools</title>
<polygon fill="#343434" stroke="#343434" points="875.5,-225 660.5,-225 660.5,-189 875.5,-189 875.5,-225"/>
<text text-anchor="middle" x="768" y="-203.3" font-family="Courier,monospace" font-size="14.00" fill="#b6ecf3">shot_glass.obj.obj_tools</text>
</g>
<!-- shot_glass.obj.obj_parser&#45;&gt;shot_glass.obj.obj_tools -->
<g id="edge17" class="edge">
<title>shot_glass.obj.obj_parser&#45;&gt;shot_glass.obj.obj_tools</title>
<path fill="none" stroke="#b6ecf3" d="M579.54,-183.1C602.48,-186.02 626.73,-189.11 649.9,-192.07"/>
<polygon fill="#b6ecf3" stroke="#b6ecf3" points="649.74,-195.58 660.1,-193.37 650.63,-188.63 649.74,-195.58"/>
</g>
<!-- shot_glass.obj.obj_tools&#45;&gt;shot_glass.hifive.operators -->
<g id="edge18" class="edge">
<title>shot_glass.obj.obj_tools&#45;&gt;shot_glass.hifive.operators</title>
<path fill="none" stroke="#b6ecf3" d="M875.63,-201.85C1068.72,-197.91 1481.36,-214.73 1752,-407 1835.24,-466.14 1881.17,-585.46 1898.44,-639.41"/>
<polygon fill="#b6ecf3" stroke="#b6ecf3" points="1895.11,-640.48 1901.42,-648.99 1901.79,-638.4 1895.11,-640.48"/>
</g>
<!-- shot_glass.plotly.plotly_tools -->
<g id="node16" class="node">
<title>shot_glass.plotly.plotly_tools</title>
<polygon fill="#343434" stroke="#343434" points="600,-1051 336,-1051 336,-1015 600,-1015 600,-1051"/>
<text text-anchor="middle" x="468" y="-1029.3" font-family="Courier,monospace" font-size="14.00" fill="#b6ecf3">shot_glass.plotly.plotly_tools</text>
</g>
<!-- shot_glass.plotly.plotly_tools&#45;&gt;shot_glass.hifive.operators -->
<g id="edge19" class="edge">
<title>shot_glass.plotly.plotly_tools&#45;&gt;shot_glass.hifive.operators</title>
<path fill="none" stroke="#b6ecf3" d="M600.26,-1033C716.5,-1033 890.79,-1033 1042.5,-1033 1042.5,-1033 1042.5,-1033 1312,-1033 1508.92,-1033 1591.23,-1094.71 1752,-981 1851.41,-910.69 1889.86,-758.03 1901.87,-695.05"/>
<polygon fill="#b6ecf3" stroke="#b6ecf3" points="1905.34,-695.51 1903.7,-685.05 1898.46,-694.26 1905.34,-695.51"/>
</g>
<!-- click -->
<g id="node17" class="node">
<title>click</title>
<polygon fill="#343434" stroke="#343434" points="78.5,-90 20.5,-90 20.5,-54 78.5,-54 78.5,-90"/>
<text text-anchor="middle" x="49.5" y="-68.3" font-family="Courier,monospace" font-size="14.00" fill="#de958e">click</text>
</g>
<!-- click&#45;&gt;shot_glass.command -->
<g id="edge20" class="edge">
<title>click&#45;&gt;shot_glass.command</title>
<path fill="none" stroke="#de958e" d="M78.66,-72C91.61,-72 107.77,-72 124.43,-72"/>
<polygon fill="#de958e" stroke="#de958e" points="124.85,-75.5 134.85,-72 124.85,-68.5 124.85,-75.5"/>
</g>
<!-- shot_glass.hifive -->
<g id="node18" class="node">
<title>shot_glass.hifive</title>
<polygon fill="#343434" stroke="#343434" points="546.5,-737 389.5,-737 389.5,-701 546.5,-701 546.5,-737"/>
<text text-anchor="middle" x="468" y="-715.3" font-family="Courier,monospace" font-size="14.00" fill="#a0d17b">shot_glass.hifive</text>
</g>
<!-- shot_glass.hifive&#45;&gt;shot_glass.hifive.hifive -->
<g id="edge21" class="edge">
<title>shot_glass.hifive&#45;&gt;shot_glass.hifive.hifive</title>
<path fill="none" stroke="#a0d17b" d="M538.51,-737.01C630.2,-756.43 792.51,-775.33 900,-700 934.27,-675.98 909.34,-645.25 936,-613 951.97,-593.69 974.65,-577.77 994.98,-566.01"/>
<polygon fill="#a0d17b" stroke="#a0d17b" points="996.8,-569 1003.82,-561.07 993.38,-562.89 996.8,-569"/>
</g>
<!-- shot_glass.hifive&#45;&gt;shot_glass.hifive.hifive_tools -->
<g id="edge22" class="edge">
<title>shot_glass.hifive&#45;&gt;shot_glass.hifive.hifive_tools</title>
<path fill="none" stroke="#a0d17b" d="M504.32,-700.97C537.57,-684.63 589.11,-660.9 636,-646 643.16,-643.73 650.59,-641.6 658.13,-639.61"/>
<polygon fill="#a0d17b" stroke="#a0d17b" points="659.24,-642.94 668.07,-637.08 657.52,-636.15 659.24,-642.94"/>
</g>
<!-- shot_glass.hifive&#45;&gt;shot_glass.hifive.operator_tools -->
<g id="edge23" class="edge">
<title>shot_glass.hifive&#45;&gt;shot_glass.hifive.operator_tools</title>
<path fill="none" stroke="#a0d17b" d="M516.58,-737.01C600.13,-767.83 779.24,-830.32 936,-861 1045.94,-882.52 1075.24,-876.38 1187,-884 1277.66,-890.18 1379.38,-894.82 1460.41,-897.97"/>
<polygon fill="#a0d17b" stroke="#a0d17b" points="1460.56,-901.48 1470.69,-898.36 1460.83,-894.48 1460.56,-901.48"/>
</g>
<!-- shot_glass.hifive&#45;&gt;shot_glass.hifive.operators -->
<g id="edge24" class="edge">
<title>shot_glass.hifive&#45;&gt;shot_glass.hifive.operators</title>
<path fill="none" stroke="#a0d17b" d="M489.15,-737.11C559.63,-798.51 803.83,-995 1042.5,-995 1042.5,-995 1042.5,-995 1312,-995 1509.68,-995 1588.09,-1040.5 1752,-930 1837.6,-872.3 1882.42,-749.97 1898.93,-694.9"/>
<polygon fill="#a0d17b" stroke="#a0d17b" points="1902.34,-695.71 1901.78,-685.13 1895.62,-693.75 1902.34,-695.71"/>
</g>
<!-- shot_glass.hifive&#45;&gt;shot_glass.hifive.type_base -->
<g id="edge25" class="edge">
<title>shot_glass.hifive&#45;&gt;shot_glass.hifive.type_base</title>
<path fill="none" stroke="#a0d17b" d="M546.52,-707.03C575.07,-702.63 608.22,-697.51 640,-692.6"/>
<polygon fill="#a0d17b" stroke="#a0d17b" points="640.91,-696 650.26,-691.02 639.84,-689.09 640.91,-696"/>
</g>
<!-- shot_glass.hifive&#45;&gt;shot_glass.hifive.validators -->
<g id="edge26" class="edge">
<title>shot_glass.hifive&#45;&gt;shot_glass.hifive.validators</title>
<path fill="none" stroke="#a0d17b" d="M546.66,-726.87C574.77,-729.36 606.79,-731.78 636,-733 753.23,-737.91 794.25,-783.83 900,-733 923.08,-721.9 914.68,-702.19 936,-688 981.61,-657.64 1119.65,-622.78 1214.63,-601.32"/>
<polygon fill="#a0d17b" stroke="#a0d17b" points="1215.55,-604.7 1224.54,-599.09 1214.02,-597.87 1215.55,-604.7"/>
</g>
<!-- bpy -->
<g id="node19" class="node">
<title>bpy</title>
<polygon fill="#343434" stroke="#343434" points="1070.5,-733 1016.5,-733 1016.5,-697 1070.5,-697 1070.5,-733"/>
<text text-anchor="middle" x="1043.5" y="-711.3" font-family="Courier,monospace" font-size="14.00" fill="#de958e">bpy</text>
</g>
<!-- bpy&#45;&gt;shot_glass.blender.blender_tools -->
<g id="edge27" class="edge">
<title>bpy&#45;&gt;shot_glass.blender.blender_tools</title>
<path fill="none" stroke="#de958e" d="M1070.66,-714.12C1138.86,-711.83 1326.09,-705.55 1460.92,-701.02"/>
<polygon fill="#de958e" stroke="#de958e" points="1461.07,-704.52 1470.94,-700.68 1460.83,-697.52 1461.07,-704.52"/>
</g>
<!-- bpy&#45;&gt;shot_glass.hifive.validators -->
<g id="edge28" class="edge">
<title>bpy&#45;&gt;shot_glass.hifive.validators</title>
<path fill="none" stroke="#de958e" d="M1070.93,-701.66C1116.28,-678.77 1209.4,-631.77 1265.1,-603.66"/>
<polygon fill="#de958e" stroke="#de958e" points="1266.68,-606.78 1274.03,-599.15 1263.53,-600.53 1266.68,-606.78"/>
</g>
<!-- shot_glass.blender -->
<g id="node20" class="node">
<title>shot_glass.blender</title>
<polygon fill="#343434" stroke="#343434" points="1126,-852 961,-852 961,-816 1126,-816 1126,-852"/>
<text text-anchor="middle" x="1043.5" y="-830.3" font-family="Courier,monospace" font-size="14.00" fill="#a0d17b">shot_glass.blender</text>
</g>
<!-- shot_glass.blender&#45;&gt;shot_glass.blender.blender_tools -->
<g id="edge29" class="edge">
<title>shot_glass.blender&#45;&gt;shot_glass.blender.blender_tools</title>
<path fill="none" stroke="#a0d17b" d="M1126.24,-828.98C1223.37,-822.36 1379.29,-809.47 1435,-792 1487.63,-775.5 1542.5,-742.53 1576.58,-719.87"/>
<polygon fill="#a0d17b" stroke="#a0d17b" points="1578.86,-722.55 1585.2,-714.06 1574.95,-716.75 1578.86,-722.55"/>
</g>
<!-- shot_glass -->
<g id="node21" class="node">
<title>shot_glass</title>
<polygon fill="#343434" stroke="#343434" points="99,-460 0,-460 0,-424 99,-424 99,-460"/>
<text text-anchor="middle" x="49.5" y="-438.3" font-family="Courier,monospace" font-size="14.00" fill="#a0d17b">shot_glass</text>
</g>
<!-- shot_glass&#45;&gt;shot_glass.command -->
<g id="edge30" class="edge">
<title>shot_glass&#45;&gt;shot_glass.command</title>
<path fill="none" stroke="#a0d17b" d="M52.64,-423.95C60.52,-360.34 89.83,-147.86 135,-99 135.78,-98.15 136.6,-97.33 137.43,-96.53"/>
<polygon fill="#a0d17b" stroke="#a0d17b" points="139.93,-99.02 145.57,-90.05 135.57,-93.55 139.93,-99.02"/>
</g>
<!-- shot_glass&#45;&gt;shot_glass.hifive -->
<g id="edge31" class="edge">
<title>shot_glass&#45;&gt;shot_glass.hifive</title>
<path fill="none" stroke="#a0d17b" d="M77.83,-460.17C150.73,-508.66 349.81,-641.06 431.4,-695.33"/>
<polygon fill="#a0d17b" stroke="#a0d17b" points="429.58,-698.32 439.84,-700.94 433.45,-692.49 429.58,-698.32"/>
</g>
<!-- shot_glass&#45;&gt;shot_glass.blender -->
<g id="edge32" class="edge">
<title>shot_glass&#45;&gt;shot_glass.blender</title>
<path fill="none" stroke="#a0d17b" d="M60.51,-460.24C92.15,-515.73 196.21,-682.61 336,-746 540.82,-838.88 811.37,-844.19 950.76,-839.49"/>
<polygon fill="#a0d17b" stroke="#a0d17b" points="951.11,-842.98 960.98,-839.11 950.86,-835.98 951.11,-842.98"/>
</g>
<!-- shot_glass.plotly -->
<g id="node24" class="node">
<title>shot_glass.plotly</title>
<polygon fill="#343434" stroke="#343434" points="296,-1001 139,-1001 139,-965 296,-965 296,-1001"/>
<text text-anchor="middle" x="217.5" y="-979.3" font-family="Courier,monospace" font-size="14.00" fill="#a0d17b">shot_glass.plotly</text>
</g>
<!-- shot_glass&#45;&gt;shot_glass.plotly -->
<g id="edge33" class="edge">
<title>shot_glass&#45;&gt;shot_glass.plotly</title>
<path fill="none" stroke="#a0d17b" d="M51.17,-460.22C54.52,-541.8 71.87,-873.03 135,-951 137.39,-953.95 140.09,-956.63 143.01,-959.06"/>
<polygon fill="#a0d17b" stroke="#a0d17b" points="141.05,-961.97 151.22,-964.94 145.13,-956.27 141.05,-961.97"/>
</g>
<!-- shot_glass.core -->
<g id="node27" class="node">
<title>shot_glass.core</title>
<polygon fill="#343434" stroke="#343434" points="287.5,-317 147.5,-317 147.5,-281 287.5,-281 287.5,-317"/>
<text text-anchor="middle" x="217.5" y="-295.3" font-family="Courier,monospace" font-size="14.00" fill="#a0d17b">shot_glass.core</text>
</g>
<!-- shot_glass&#45;&gt;shot_glass.core -->
<g id="edge34" class="edge">
<title>shot_glass&#45;&gt;shot_glass.core</title>
<path fill="none" stroke="#a0d17b" d="M59.06,-423.97C72.02,-398.53 98.98,-352.3 135,-326 136.86,-324.64 138.79,-323.35 140.78,-322.12"/>
<polygon fill="#a0d17b" stroke="#a0d17b" points="142.75,-325.03 149.81,-317.13 139.36,-318.91 142.75,-325.03"/>
</g>
<!-- shot_glass.obj -->
<g id="node29" class="node">
<title>shot_glass.obj</title>
<polygon fill="#343434" stroke="#343434" points="283.5,-252 151.5,-252 151.5,-216 283.5,-216 283.5,-252"/>
<text text-anchor="middle" x="217.5" y="-230.3" font-family="Courier,monospace" font-size="14.00" fill="#a0d17b">shot_glass.obj</text>
</g>
<!-- shot_glass&#45;&gt;shot_glass.obj -->
<g id="edge35" class="edge">
<title>shot_glass&#45;&gt;shot_glass.obj</title>
<path fill="none" stroke="#a0d17b" d="M55.13,-423.99C64.69,-390.1 89.58,-316.3 135,-272 140.82,-266.33 147.63,-261.39 154.81,-257.13"/>
<polygon fill="#a0d17b" stroke="#a0d17b" points="156.94,-259.95 164.03,-252.08 153.58,-253.81 156.94,-259.95"/>
</g>
<!-- bmesh -->
<g id="node22" class="node">
<title>bmesh</title>
<polygon fill="#343434" stroke="#343434" points="1340,-783 1282,-783 1282,-747 1340,-747 1340,-783"/>
<text text-anchor="middle" x="1311" y="-761.3" font-family="Courier,monospace" font-size="14.00" fill="#de958e">bmesh</text>
</g>
<!-- bmesh&#45;&gt;shot_glass.blender.blender_tools -->
<g id="edge36" class="edge">
<title>bmesh&#45;&gt;shot_glass.blender.blender_tools</title>
<path fill="none" stroke="#de958e" d="M1340.08,-758.51C1381.48,-748.94 1460.68,-730.63 1522.72,-716.29"/>
<polygon fill="#de958e" stroke="#de958e" points="1523.56,-719.69 1532.52,-714.03 1521.99,-712.87 1523.56,-719.69"/>
</g>
<!-- lunchbox.tools -->
<g id="node23" class="node">
<title>lunchbox.tools</title>
<polygon fill="#343434" stroke="#343434" points="1377,-875 1245,-875 1245,-839 1377,-839 1377,-875"/>
<text text-anchor="middle" x="1311" y="-853.3" font-family="Courier,monospace" font-size="14.00" fill="#de958e">lunchbox.tools</text>
</g>
<!-- lunchbox.tools&#45;&gt;shot_glass.blender.blender_tools -->
<g id="edge37" class="edge">
<title>lunchbox.tools&#45;&gt;shot_glass.blender.blender_tools</title>
<path fill="none" stroke="#de958e" d="M1377.01,-847.35C1396.58,-842.58 1417.49,-835.49 1435,-825 1455.23,-812.87 1452.95,-801.18 1471,-786 1501.55,-760.31 1539.88,-736.07 1568.63,-719.24"/>
<polygon fill="#de958e" stroke="#de958e" points="1570.7,-722.08 1577.6,-714.04 1567.2,-716.02 1570.7,-722.08"/>
</g>
<!-- lunchbox.tools&#45;&gt;shot_glass.hifive.operator_tools -->
<g id="edge38" class="edge">
<title>lunchbox.tools&#45;&gt;shot_glass.hifive.operator_tools</title>
<path fill="none" stroke="#de958e" d="M1377.14,-867.04C1408.26,-871.83 1446.63,-877.75 1483.21,-883.38"/>
<polygon fill="#de958e" stroke="#de958e" points="1483.05,-886.9 1493.47,-884.96 1484.12,-879.98 1483.05,-886.9"/>
</g>
<!-- lunchbox.tools&#45;&gt;shot_glass.hifive.operators -->
<g id="edge39" class="edge">
<title>lunchbox.tools&#45;&gt;shot_glass.hifive.operators</title>
<path fill="none" stroke="#de958e" d="M1376.56,-838.96C1395.43,-833.6 1416.07,-827.65 1435,-822 1576.44,-779.8 1612.14,-770.16 1752,-723 1784.18,-712.15 1819.84,-699.28 1848.79,-688.62"/>
<polygon fill="#de958e" stroke="#de958e" points="1850.16,-691.84 1858.33,-685.09 1847.74,-685.27 1850.16,-691.84"/>
</g>
<!-- shot_glass.plotly&#45;&gt;shot_glass.plotly.plotly_tools -->
<g id="edge40" class="edge">
<title>shot_glass.plotly&#45;&gt;shot_glass.plotly.plotly_tools</title>
<path fill="none" stroke="#a0d17b" d="M296.1,-998.61C318.66,-1003.15 343.61,-1008.17 367.32,-1012.94"/>
<polygon fill="#a0d17b" stroke="#a0d17b" points="366.9,-1016.43 377.39,-1014.97 368.28,-1009.57 366.9,-1016.43"/>
</g>
<!-- wrapt -->
<g id="node25" class="node">
<title>wrapt</title>
<polygon fill="#343434" stroke="#343434" points="1340,-967 1282,-967 1282,-931 1340,-931 1340,-967"/>
<text text-anchor="middle" x="1311" y="-945.3" font-family="Courier,monospace" font-size="14.00" fill="#de958e">wrapt</text>
</g>
<!-- wrapt&#45;&gt;shot_glass.hifive.operator_tools -->
<g id="edge41" class="edge">
<title>wrapt&#45;&gt;shot_glass.hifive.operator_tools</title>
<path fill="none" stroke="#de958e" d="M1340.08,-944.67C1373.15,-939.58 1430.33,-930.77 1483.61,-922.55"/>
<polygon fill="#de958e" stroke="#de958e" points="1484.16,-926.01 1493.51,-921.03 1483.1,-919.09 1484.16,-926.01"/>
</g>
<!-- mathutils -->
<g id="node26" class="node">
<title>mathutils</title>
<polygon fill="#343434" stroke="#343434" points="1356.5,-691 1265.5,-691 1265.5,-655 1356.5,-655 1356.5,-691"/>
<text text-anchor="middle" x="1311" y="-669.3" font-family="Courier,monospace" font-size="14.00" fill="#de958e">mathutils</text>
</g>
<!-- mathutils&#45;&gt;shot_glass.blender.blender_tools -->
<g id="edge42" class="edge">
<title>mathutils&#45;&gt;shot_glass.blender.blender_tools</title>
<path fill="none" stroke="#de958e" d="M1356.69,-676.44C1384.76,-678.61 1422.74,-681.53 1460.76,-684.46"/>
<polygon fill="#de958e" stroke="#de958e" points="1460.71,-687.97 1470.95,-685.25 1461.25,-680.99 1460.71,-687.97"/>
</g>
<!-- shot_glass.core&#45;&gt;shot_glass.core.df_monad -->
<g id="edge43" class="edge">
<title>shot_glass.core&#45;&gt;shot_glass.core.df_monad</title>
<path fill="none" stroke="#a0d17b" d="M287.79,-286.85C411.65,-267.22 678.8,-234.32 900,-272 931.88,-277.43 966.12,-289.24 993.05,-300.01"/>
<polygon fill="#a0d17b" stroke="#a0d17b" points="992.04,-303.38 1002.62,-303.92 994.69,-296.9 992.04,-303.38"/>
</g>
<!-- shot_glass.core&#45;&gt;shot_glass.core.monad -->
<g id="edge44" class="edge">
<title>shot_glass.core&#45;&gt;shot_glass.core.monad</title>
<path fill="none" stroke="#a0d17b" d="M287.72,-311.81C310.92,-316.11 337.33,-321 362.61,-325.68"/>
<polygon fill="#a0d17b" stroke="#a0d17b" points="362.14,-329.15 372.61,-327.53 363.42,-322.27 362.14,-329.15"/>
</g>
<!-- shot_glass.core&#45;&gt;shot_glass.core.s_monad -->
<g id="edge45" class="edge">
<title>shot_glass.core&#45;&gt;shot_glass.core.s_monad</title>
<path fill="none" stroke="#a0d17b" d="M287.69,-299C379.99,-299 544.55,-299 654.73,-299"/>
<polygon fill="#a0d17b" stroke="#a0d17b" points="654.89,-302.5 664.89,-299 654.89,-295.5 654.89,-302.5"/>
</g>
<!-- shot_glass.core&#45;&gt;shot_glass.core.tools -->
<g id="edge46" class="edge">
<title>shot_glass.core&#45;&gt;shot_glass.core.tools</title>
<path fill="none" stroke="#a0d17b" d="M287.74,-316.24C292.21,-319.02 296.37,-322.25 300,-326 339.31,-366.63 306.93,-399.51 336,-448 361.5,-490.54 404.31,-528.97 434.02,-552.6"/>
<polygon fill="#a0d17b" stroke="#a0d17b" points="431.99,-555.46 442.03,-558.86 436.31,-549.95 431.99,-555.46"/>
</g>
<!-- plotly -->
<g id="node28" class="node">
<title>plotly</title>
<polygon fill="#343434" stroke="#343434" points="250.5,-1055 184.5,-1055 184.5,-1019 250.5,-1019 250.5,-1055"/>
<text text-anchor="middle" x="217.5" y="-1033.3" font-family="Courier,monospace" font-size="14.00" fill="#de958e">plotly</text>
</g>
<!-- plotly&#45;&gt;shot_glass.plotly.plotly_tools -->
<g id="edge47" class="edge">
<title>plotly&#45;&gt;shot_glass.plotly.plotly_tools</title>
<path fill="none" stroke="#de958e" d="M250.73,-1036.48C270.59,-1036.16 297.57,-1035.73 325.74,-1035.27"/>
<polygon fill="#de958e" stroke="#de958e" points="325.8,-1038.77 335.75,-1035.11 325.69,-1031.77 325.8,-1038.77"/>
</g>
<!-- shot_glass.obj&#45;&gt;shot_glass.obj.obj_parser -->
<g id="edge48" class="edge">
<title>shot_glass.obj&#45;&gt;shot_glass.obj.obj_parser</title>
<path fill="none" stroke="#a0d17b" d="M281.2,-215.96C298.89,-210.99 318.17,-205.68 336,-201 350.67,-197.15 366.31,-193.2 381.49,-189.44"/>
<polygon fill="#a0d17b" stroke="#a0d17b" points="382.51,-192.79 391.38,-187 380.83,-186 382.51,-192.79"/>
</g>
<!-- shot_glass.obj&#45;&gt;shot_glass.obj.obj_tools -->
<g id="edge49" class="edge">
<title>shot_glass.obj&#45;&gt;shot_glass.obj.obj_tools</title>
<path fill="none" stroke="#a0d17b" d="M283.57,-230.8C373.77,-226.36 538.27,-218.26 650.07,-212.76"/>
<polygon fill="#a0d17b" stroke="#a0d17b" points="650.56,-216.24 660.38,-212.25 650.22,-209.24 650.56,-216.24"/>
</g>
<!-- pandas -->
<g id="node30" class="node">
<title>pandas</title>
<polygon fill="#343434" stroke="#343434" points="501,-439 435,-439 435,-403 501,-403 501,-439"/>
<text text-anchor="middle" x="468" y="-417.3" font-family="Courier,monospace" font-size="14.00" fill="#de958e">pandas</text>
</g>
<!-- pandas&#45;&gt;shot_glass.blender.blender_tools -->
<g id="edge50" class="edge">
<title>pandas&#45;&gt;shot_glass.blender.blender_tools</title>
<path fill="none" stroke="#de958e" d="M501.21,-437.86C534.31,-454.66 587.68,-480.29 636,-497 765.69,-541.84 801.37,-543.42 936,-570 963.51,-575.43 1407.6,-640.04 1435,-646 1471.47,-653.94 1511.54,-665.16 1544.18,-674.96"/>
<polygon fill="#de958e" stroke="#de958e" points="1543.47,-678.4 1554.05,-677.95 1545.5,-671.7 1543.47,-678.4"/>
</g>
<!-- pandas&#45;&gt;shot_glass.core.df_monad -->
<g id="edge51" class="edge">
<title>pandas&#45;&gt;shot_glass.core.df_monad</title>
<path fill="none" stroke="#de958e" d="M501.19,-415.69C572.88,-403.84 751.07,-374.2 900,-348 911.11,-346.05 922.7,-343.98 934.27,-341.9"/>
<polygon fill="#de958e" stroke="#de958e" points="935.19,-345.29 944.41,-340.07 933.95,-338.4 935.19,-345.29"/>
</g>
<!-- pandas&#45;&gt;shot_glass.core.s_monad -->
<g id="edge52" class="edge">
<title>pandas&#45;&gt;shot_glass.core.s_monad</title>
<path fill="none" stroke="#de958e" d="M501.22,-409.5C527.85,-399.86 566.58,-385.54 600,-372 640.04,-355.78 684.87,-336.09 717.99,-321.26"/>
<polygon fill="#de958e" stroke="#de958e" points="719.75,-324.3 727.44,-317.01 716.88,-317.92 719.75,-324.3"/>
</g>
<!-- pandas&#45;&gt;shot_glass.hifive.hifive -->
<g id="edge53" class="edge">
<title>pandas&#45;&gt;shot_glass.hifive.hifive</title>
<path fill="none" stroke="#de958e" d="M501.06,-427.82C585.44,-445.77 816.17,-494.85 947.59,-522.81"/>
<polygon fill="#de958e" stroke="#de958e" points="947.14,-526.29 957.65,-524.95 948.6,-519.45 947.14,-526.29"/>
</g>
<!-- pandas&#45;&gt;shot_glass.hifive.hifive_tools -->
<g id="edge54" class="edge">
<title>pandas&#45;&gt;shot_glass.hifive.hifive_tools</title>
<path fill="none" stroke="#de958e" d="M487.78,-439.25C513.33,-464.13 560.4,-510.16 600,-550 616.17,-566.27 616.08,-575.61 636,-587 642.94,-590.97 650.35,-594.44 657.99,-597.49"/>
<polygon fill="#de958e" stroke="#de958e" points="656.82,-600.79 667.41,-601 659.26,-594.23 656.82,-600.79"/>
</g>
<!-- pandas&#45;&gt;shot_glass.hifive.operators -->
<g id="edge55" class="edge">
<title>pandas&#45;&gt;shot_glass.hifive.operators</title>
<path fill="none" stroke="#de958e" d="M501.02,-421C588.04,-421 836.15,-421 1042.5,-421 1042.5,-421 1042.5,-421 1312,-421 1509.88,-421 1578.79,-393.33 1752,-489 1817.3,-525.07 1867.94,-600.03 1891.69,-640.2"/>
<polygon fill="#de958e" stroke="#de958e" points="1888.7,-642.03 1896.75,-648.92 1894.76,-638.52 1888.7,-642.03"/>
</g>
<!-- pandas&#45;&gt;shot_glass.obj.obj_tools -->
<g id="edge56" class="edge">
<title>pandas&#45;&gt;shot_glass.obj.obj_tools</title>
<path fill="none" stroke="#de958e" d="M501.17,-416.75C530.56,-411.25 573.38,-398.95 600,-372 633.19,-338.39 604.57,-307.27 636,-272 652.85,-253.09 676.46,-239.05 699,-228.95"/>
<polygon fill="#de958e" stroke="#de958e" points="700.42,-232.15 708.24,-225 697.67,-225.72 700.42,-232.15"/>
</g>
<!-- lunchbox.stopwatch -->
<g id="node31" class="node">
<title>lunchbox.stopwatch</title>
<polygon fill="#343434" stroke="#343434" points="300,-144 135,-144 135,-108 300,-108 300,-144"/>
<text text-anchor="middle" x="217.5" y="-122.3" font-family="Courier,monospace" font-size="14.00" fill="#de958e">lunchbox.stopwatch</text>
</g>
<!-- lunchbox.stopwatch&#45;&gt;shot_glass.obj.obj_parser -->
<g id="edge57" class="edge">
<title>lunchbox.stopwatch&#45;&gt;shot_glass.obj.obj_parser</title>
<path fill="none" stroke="#de958e" d="M300.21,-140.14C316.89,-143.02 334.72,-146.11 352.3,-149.15"/>
<polygon fill="#de958e" stroke="#de958e" points="352.16,-152.68 362.61,-150.94 353.35,-145.78 352.16,-152.68"/>
</g>
<!-- pyparsing -->
<g id="node32" class="node">
<title>pyparsing</title>
<polygon fill="#343434" stroke="#343434" points="263,-198 172,-198 172,-162 263,-162 263,-198"/>
<text text-anchor="middle" x="217.5" y="-176.3" font-family="Courier,monospace" font-size="14.00" fill="#de958e">pyparsing</text>
</g>
<!-- pyparsing&#45;&gt;shot_glass.obj.obj_parser -->
<g id="edge58" class="edge">
<title>pyparsing&#45;&gt;shot_glass.obj.obj_parser</title>
<path fill="none" stroke="#de958e" d="M263.21,-178.02C286.69,-176.98 316.7,-175.65 346.43,-174.34"/>
<polygon fill="#de958e" stroke="#de958e" points="346.66,-177.83 356.5,-173.89 346.35,-170.84 346.66,-177.83"/>
</g>
<!-- infix -->
<g id="node33" class="node">
<title>infix</title>
<polygon fill="#343434" stroke="#343434" points="246.5,-371 188.5,-371 188.5,-335 246.5,-335 246.5,-371"/>
<text text-anchor="middle" x="217.5" y="-349.3" font-family="Courier,monospace" font-size="14.00" fill="#de958e">infix</text>
</g>
<!-- infix&#45;&gt;shot_glass.core.monad -->
<g id="edge59" class="edge">
<title>infix&#45;&gt;shot_glass.core.monad</title>
<path fill="none" stroke="#de958e" d="M246.52,-352.1C274.84,-351.19 320.35,-349.72 362.68,-348.36"/>
<polygon fill="#de958e" stroke="#de958e" points="362.91,-351.85 372.79,-348.03 362.69,-344.86 362.91,-351.85"/>
</g>
<!-- lunchbox.enforce -->
<g id="node34" class="node">
<title>lunchbox.enforce</title>
<polygon fill="#343434" stroke="#343434" points="292,-425 143,-425 143,-389 292,-389 292,-425"/>
<text text-anchor="middle" x="217.5" y="-403.3" font-family="Courier,monospace" font-size="14.00" fill="#de958e">lunchbox.enforce</text>
</g>
<!-- lunchbox.enforce&#45;&gt;shot_glass.core.monad -->
<g id="edge60" class="edge">
<title>lunchbox.enforce&#45;&gt;shot_glass.core.monad</title>
<path fill="none" stroke="#de958e" d="M290.71,-388.98C320.19,-381.63 354.45,-373.08 384.88,-365.49"/>
<polygon fill="#de958e" stroke="#de958e" points="385.75,-368.88 394.61,-363.06 384.06,-362.09 385.75,-368.88"/>
</g>
</g>
</svg>
