<?xml version="1.0" encoding="UTF-8" standalone="no"?>
<!DOCTYPE svg PUBLIC "-//W3C//DTD SVG 1.1//EN"
 "http://www.w3.org/Graphics/SVG/1.1/DTD/svg11.dtd">
<!-- Generated by graphviz version 2.43.0 (0)
 -->
<!-- Title: %3 Pages: 1 -->
<svg width="2035pt" height="843pt"
 viewBox="0.00 0.00 2035.00 843.00" xmlns="http://www.w3.org/2000/svg" xmlns:xlink="http://www.w3.org/1999/xlink">
<g id="graph0" class="graph" transform="scale(1 1) rotate(0) translate(4 839)">
<title>%3</title>
<polygon fill="#242424" stroke="transparent" points="-4,4 -4,-839 2031,-839 2031,4 -4,4"/>
<!-- cli -->
<g id="node1" class="node">
<title>cli</title>
<polygon fill="#343434" stroke="#343434" points="76.5,-382 22.5,-382 22.5,-346 76.5,-346 76.5,-382"/>
<text text-anchor="middle" x="49.5" y="-360.3" font-family="Courier,monospace" font-size="14.00" fill="#b6ecf3">cli</text>
</g>
<!-- shot_glass.blender.blender_tools -->
<g id="node2" class="node">
<title>shot_glass.blender.blender_tools</title>
<polygon fill="#343434" stroke="#343434" points="1752,-327 1471,-327 1471,-291 1752,-291 1752,-327"/>
<text text-anchor="middle" x="1611.5" y="-305.3" font-family="Courier,monospace" font-size="14.00" fill="#b6ecf3">shot_glass.blender.blender_tools</text>
</g>
<!-- shot_glass.hifive.operators -->
<g id="node8" class="node">
<title>shot_glass.hifive.operators</title>
<polygon fill="#343434" stroke="#343434" points="2027,-419 1788,-419 1788,-383 2027,-383 2027,-419"/>
<text text-anchor="middle" x="1907.5" y="-397.3" font-family="Courier,monospace" font-size="14.00" fill="#b6ecf3">shot_glass.hifive.operators</text>
</g>
<!-- shot_glass.blender.blender_tools&#45;&gt;shot_glass.hifive.operators -->
<g id="edge1" class="edge">
<title>shot_glass.blender.blender_tools&#45;&gt;shot_glass.hifive.operators</title>
<path fill="none" stroke="#b6ecf3" d="M1670.23,-327.07C1718.78,-342.26 1788.23,-363.99 1839.27,-379.96"/>
<polygon fill="#b6ecf3" stroke="#b6ecf3" points="1838.31,-383.33 1848.9,-382.97 1840.4,-376.65 1838.31,-383.33"/>
</g>
<!-- shot_glass.command -->
<g id="node3" class="node">
<title>shot_glass.command</title>
<polygon fill="#343434" stroke="#343434" points="300,-835 135,-835 135,-799 300,-799 300,-835"/>
<text text-anchor="middle" x="217.5" y="-813.3" font-family="Courier,monospace" font-size="14.00" fill="#b6ecf3">shot_glass.command</text>
</g>
<!-- shot_glass.core.tools -->
<g id="node4" class="node">
<title>shot_glass.core.tools</title>
<polygon fill="#343434" stroke="#343434" points="563,-410 373,-410 373,-374 563,-374 563,-410"/>
<text text-anchor="middle" x="468" y="-388.3" font-family="Courier,monospace" font-size="14.00" fill="#b6ecf3">shot_glass.core.tools</text>
</g>
<!-- shot_glass.hifive.hifive -->
<g id="node5" class="node">
<title>shot_glass.hifive.hifive</title>
<polygon fill="#343434" stroke="#343434" points="1151,-502 936,-502 936,-466 1151,-466 1151,-502"/>
<text text-anchor="middle" x="1043.5" y="-480.3" font-family="Courier,monospace" font-size="14.00" fill="#b6ecf3">shot_glass.hifive.hifive</text>
</g>
<!-- shot_glass.core.tools&#45;&gt;shot_glass.hifive.hifive -->
<g id="edge2" class="edge">
<title>shot_glass.core.tools&#45;&gt;shot_glass.hifive.hifive</title>
<path fill="none" stroke="#b6ecf3" d="M563.21,-384.75C651.71,-380.59 787.05,-381.1 900,-411 938.92,-421.3 979.41,-443.31 1007.24,-460.48"/>
<polygon fill="#b6ecf3" stroke="#b6ecf3" points="1005.48,-463.51 1015.81,-465.87 1009.2,-457.59 1005.48,-463.51"/>
</g>
<!-- shot_glass.hifive.hifive_tools -->
<g id="node6" class="node">
<title>shot_glass.hifive.hifive_tools</title>
<polygon fill="#343434" stroke="#343434" points="900,-548 636,-548 636,-512 900,-512 900,-548"/>
<text text-anchor="middle" x="768" y="-526.3" font-family="Courier,monospace" font-size="14.00" fill="#b6ecf3">shot_glass.hifive.hifive_tools</text>
</g>
<!-- shot_glass.core.tools&#45;&gt;shot_glass.hifive.hifive_tools -->
<g id="edge3" class="edge">
<title>shot_glass.core.tools&#45;&gt;shot_glass.hifive.hifive_tools</title>
<path fill="none" stroke="#b6ecf3" d="M563.02,-402.94C576.02,-406.82 588.75,-412.03 600,-419 622.06,-432.68 615.87,-448.6 636,-465 657.63,-482.63 684.84,-497.1 708.84,-507.88"/>
<polygon fill="#b6ecf3" stroke="#b6ecf3" points="707.65,-511.17 718.21,-511.97 710.45,-504.76 707.65,-511.17"/>
</g>
<!-- shot_glass.core.tools&#45;&gt;shot_glass.hifive.operators -->
<g id="edge4" class="edge">
<title>shot_glass.core.tools&#45;&gt;shot_glass.hifive.operators</title>
<path fill="none" stroke="#b6ecf3" d="M536.02,-373.94C626.13,-350.68 791.73,-311.53 936,-297 1031.07,-287.43 1068.19,-249.32 1151,-297 1178.61,-312.9 1159.86,-342.3 1187,-359 1235.88,-389.07 1584.25,-397.61 1777.73,-400.04"/>
<polygon fill="#b6ecf3" stroke="#b6ecf3" points="1777.92,-403.54 1787.96,-400.16 1778,-396.54 1777.92,-403.54"/>
</g>
<!-- shot_glass.hifive.type_base -->
<g id="node9" class="node">
<title>shot_glass.hifive.type_base</title>
<polygon fill="#343434" stroke="#343434" points="887.5,-456 648.5,-456 648.5,-420 887.5,-420 887.5,-456"/>
<text text-anchor="middle" x="768" y="-434.3" font-family="Courier,monospace" font-size="14.00" fill="#b6ecf3">shot_glass.hifive.type_base</text>
</g>
<!-- shot_glass.core.tools&#45;&gt;shot_glass.hifive.type_base -->
<g id="edge5" class="edge">
<title>shot_glass.core.tools&#45;&gt;shot_glass.hifive.type_base</title>
<path fill="none" stroke="#b6ecf3" d="M563.29,-406.55C587.68,-410.32 614.33,-414.43 640.09,-418.41"/>
<polygon fill="#b6ecf3" stroke="#b6ecf3" points="639.87,-421.92 650.29,-419.98 640.94,-415 639.87,-421.92"/>
</g>
<!-- shot_glass.hifive.validators -->
<g id="node10" class="node">
<title>shot_glass.hifive.validators</title>
<polygon fill="#343434" stroke="#343434" points="1435,-442 1187,-442 1187,-406 1435,-406 1435,-442"/>
<text text-anchor="middle" x="1311" y="-420.3" font-family="Courier,monospace" font-size="14.00" fill="#b6ecf3">shot_glass.hifive.validators</text>
</g>
<!-- shot_glass.core.tools&#45;&gt;shot_glass.hifive.validators -->
<g id="edge6" class="edge">
<title>shot_glass.core.tools&#45;&gt;shot_glass.hifive.validators</title>
<path fill="none" stroke="#b6ecf3" d="M563.02,-387.2C694.79,-381.66 941.73,-375.61 1151,-395 1172.35,-396.98 1195.11,-400.36 1216.55,-404.13"/>
<polygon fill="#b6ecf3" stroke="#b6ecf3" points="1216.16,-407.61 1226.63,-405.94 1217.4,-400.73 1216.16,-407.61"/>
</g>
<!-- shot_glass.hifive.hifive&#45;&gt;shot_glass.hifive.operators -->
<g id="edge7" class="edge">
<title>shot_glass.hifive.hifive&#45;&gt;shot_glass.hifive.operators</title>
<path fill="none" stroke="#b6ecf3" d="M1151.14,-477.88C1289.86,-469.32 1539.59,-451.85 1752,-426 1764.9,-424.43 1778.36,-422.58 1791.74,-420.6"/>
<polygon fill="#b6ecf3" stroke="#b6ecf3" points="1792.57,-424.01 1801.94,-419.06 1791.53,-417.09 1792.57,-424.01"/>
</g>
<!-- shot_glass.hifive.hifive&#45;&gt;shot_glass.hifive.validators -->
<g id="edge8" class="edge">
<title>shot_glass.hifive.hifive&#45;&gt;shot_glass.hifive.validators</title>
<path fill="none" stroke="#b6ecf3" d="M1124.16,-466C1154.34,-459.18 1188.91,-451.36 1219.98,-444.34"/>
<polygon fill="#b6ecf3" stroke="#b6ecf3" points="1220.96,-447.71 1229.94,-442.09 1219.41,-440.88 1220.96,-447.71"/>
</g>
<!-- shot_glass.hifive.hifive_tools&#45;&gt;shot_glass.hifive.hifive -->
<g id="edge9" class="edge">
<title>shot_glass.hifive.hifive_tools&#45;&gt;shot_glass.hifive.hifive</title>
<path fill="none" stroke="#b6ecf3" d="M876.31,-511.95C892.54,-509.22 909.36,-506.39 925.78,-503.63"/>
<polygon fill="#b6ecf3" stroke="#b6ecf3" points="926.67,-507.03 935.95,-501.92 925.51,-500.13 926.67,-507.03"/>
</g>
<!-- shot_glass.hifive.operator_tools -->
<g id="node7" class="node">
<title>shot_glass.hifive.operator_tools</title>
<polygon fill="#343434" stroke="#343434" points="1752,-84 1471,-84 1471,-48 1752,-48 1752,-84"/>
<text text-anchor="middle" x="1611.5" y="-62.3" font-family="Courier,monospace" font-size="14.00" fill="#b6ecf3">shot_glass.hifive.operator_tools</text>
</g>
<!-- shot_glass.hifive.operator_tools&#45;&gt;shot_glass.hifive.operators -->
<g id="edge10" class="edge">
<title>shot_glass.hifive.operator_tools&#45;&gt;shot_glass.hifive.operators</title>
<path fill="none" stroke="#b6ecf3" d="M1725.08,-84.12C1734.72,-88.37 1743.88,-93.59 1752,-100 1843.37,-172.06 1885.85,-312.85 1900.39,-372.84"/>
<polygon fill="#b6ecf3" stroke="#b6ecf3" points="1897.02,-373.8 1902.71,-382.74 1903.83,-372.2 1897.02,-373.8"/>
</g>
<!-- shot_glass.hifive.type_base&#45;&gt;shot_glass.hifive.hifive -->
<g id="edge11" class="edge">
<title>shot_glass.hifive.type_base&#45;&gt;shot_glass.hifive.hifive</title>
<path fill="none" stroke="#b6ecf3" d="M876.31,-456.05C892.54,-458.78 909.36,-461.61 925.78,-464.37"/>
<polygon fill="#b6ecf3" stroke="#b6ecf3" points="925.51,-467.87 935.95,-466.08 926.67,-460.97 925.51,-467.87"/>
</g>
<!-- shot_glass.hifive.validators&#45;&gt;shot_glass.blender.blender_tools -->
<g id="edge12" class="edge">
<title>shot_glass.hifive.validators&#45;&gt;shot_glass.blender.blender_tools</title>
<path fill="none" stroke="#b6ecf3" d="M1358.97,-405.9C1411.74,-385.57 1497.38,-352.58 1553.82,-330.84"/>
<polygon fill="#b6ecf3" stroke="#b6ecf3" points="1555.24,-334.04 1563.31,-327.18 1552.72,-327.51 1555.24,-334.04"/>
</g>
<!-- shot_glass.hifive.validators&#45;&gt;shot_glass.hifive.operators -->
<g id="edge13" class="edge">
<title>shot_glass.hifive.validators&#45;&gt;shot_glass.hifive.operators</title>
<path fill="none" stroke="#b6ecf3" d="M1435.18,-419.23C1535.32,-415.36 1676.16,-409.91 1777.77,-405.98"/>
<polygon fill="#b6ecf3" stroke="#b6ecf3" points="1777.93,-409.48 1787.79,-405.59 1777.66,-402.48 1777.93,-409.48"/>
</g>
<!-- shot_glass.obj.obj_parser -->
<g id="node11" class="node">
<title>shot_glass.obj.obj_parser</title>
<polygon fill="#343434" stroke="#343434" points="579.5,-754 356.5,-754 356.5,-718 579.5,-718 579.5,-754"/>
<text text-anchor="middle" x="468" y="-732.3" font-family="Courier,monospace" font-size="14.00" fill="#b6ecf3">shot_glass.obj.obj_parser</text>
</g>
<!-- shot_glass.obj.obj_tools -->
<g id="node12" class="node">
<title>shot_glass.obj.obj_tools</title>
<polygon fill="#343434" stroke="#343434" points="875.5,-754 660.5,-754 660.5,-718 875.5,-718 875.5,-754"/>
<text text-anchor="middle" x="768" y="-732.3" font-family="Courier,monospace" font-size="14.00" fill="#b6ecf3">shot_glass.obj.obj_tools</text>
</g>
<!-- shot_glass.obj.obj_parser&#45;&gt;shot_glass.obj.obj_tools -->
<g id="edge14" class="edge">
<title>shot_glass.obj.obj_parser&#45;&gt;shot_glass.obj.obj_tools</title>
<path fill="none" stroke="#b6ecf3" d="M579.54,-736C602.48,-736 626.73,-736 649.9,-736"/>
<polygon fill="#b6ecf3" stroke="#b6ecf3" points="650.1,-739.5 660.1,-736 650.1,-732.5 650.1,-739.5"/>
</g>
<!-- shot_glass.obj.obj_tools&#45;&gt;shot_glass.hifive.operators -->
<g id="edge15" class="edge">
<title>shot_glass.obj.obj_tools&#45;&gt;shot_glass.hifive.operators</title>
<path fill="none" stroke="#b6ecf3" d="M831.66,-754.08C997.29,-797.93 1454.37,-893.06 1752,-704 1851.65,-640.7 1889.89,-491.46 1901.85,-429.13"/>
<polygon fill="#b6ecf3" stroke="#b6ecf3" points="1905.31,-429.68 1903.67,-419.21 1898.43,-428.42 1905.31,-429.68"/>
</g>
<!-- shot_glass.plotly.plotly_tools -->
<g id="node13" class="node">
<title>shot_glass.plotly.plotly_tools</title>
<polygon fill="#343434" stroke="#343434" points="600,-166 336,-166 336,-130 600,-130 600,-166"/>
<text text-anchor="middle" x="468" y="-144.3" font-family="Courier,monospace" font-size="14.00" fill="#b6ecf3">shot_glass.plotly.plotly_tools</text>
</g>
<!-- shot_glass.plotly.plotly_tools&#45;&gt;shot_glass.hifive.operators -->
<g id="edge16" class="edge">
<title>shot_glass.plotly.plotly_tools&#45;&gt;shot_glass.hifive.operators</title>
<path fill="none" stroke="#b6ecf3" d="M600.34,-140.57C787.38,-132.69 1140.45,-127.75 1435,-181 1580.51,-207.31 1621.01,-213.41 1752,-282 1801.07,-307.7 1850.53,-349.16 1879.83,-375.73"/>
<polygon fill="#b6ecf3" stroke="#b6ecf3" points="1877.81,-378.63 1887.55,-382.81 1882.54,-373.47 1877.81,-378.63"/>
</g>
<!-- click -->
<g id="node14" class="node">
<title>click</title>
<polygon fill="#343434" stroke="#343434" points="78.5,-835 20.5,-835 20.5,-799 78.5,-799 78.5,-835"/>
<text text-anchor="middle" x="49.5" y="-813.3" font-family="Courier,monospace" font-size="14.00" fill="#de958e">click</text>
</g>
<!-- click&#45;&gt;shot_glass.command -->
<g id="edge17" class="edge">
<title>click&#45;&gt;shot_glass.command</title>
<path fill="none" stroke="#de958e" d="M78.66,-817C91.61,-817 107.77,-817 124.43,-817"/>
<polygon fill="#de958e" stroke="#de958e" points="124.85,-820.5 134.85,-817 124.85,-813.5 124.85,-820.5"/>
</g>
<!-- shot_glass.core -->
<g id="node15" class="node">
<title>shot_glass.core</title>
<polygon fill="#343434" stroke="#343434" points="287.5,-412 147.5,-412 147.5,-376 287.5,-376 287.5,-412"/>
<text text-anchor="middle" x="217.5" y="-390.3" font-family="Courier,monospace" font-size="14.00" fill="#a0d17b">shot_glass.core</text>
</g>
<!-- shot_glass.core&#45;&gt;shot_glass.core.tools -->
<g id="edge18" class="edge">
<title>shot_glass.core&#45;&gt;shot_glass.core.tools</title>
<path fill="none" stroke="#a0d17b" d="M287.72,-393.44C310.82,-393.26 337.1,-393.05 362.28,-392.84"/>
<polygon fill="#a0d17b" stroke="#a0d17b" points="362.64,-396.34 372.61,-392.76 362.58,-389.34 362.64,-396.34"/>
</g>
<!-- shot_glass -->
<g id="node16" class="node">
<title>shot_glass</title>
<polygon fill="#343434" stroke="#343434" points="99,-436 0,-436 0,-400 99,-400 99,-436"/>
<text text-anchor="middle" x="49.5" y="-414.3" font-family="Courier,monospace" font-size="14.00" fill="#a0d17b">shot_glass</text>
</g>
<!-- shot_glass&#45;&gt;shot_glass.command -->
<g id="edge19" class="edge">
<title>shot_glass&#45;&gt;shot_glass.command</title>
<path fill="none" stroke="#a0d17b" d="M52.28,-436.16C59.19,-503.31 86.37,-736.43 135,-790 135.75,-790.83 136.53,-791.63 137.33,-792.41"/>
<polygon fill="#a0d17b" stroke="#a0d17b" points="135.16,-795.16 145.12,-798.77 139.59,-789.73 135.16,-795.16"/>
</g>
<!-- shot_glass&#45;&gt;shot_glass.core -->
<g id="edge20" class="edge">
<title>shot_glass&#45;&gt;shot_glass.core</title>
<path fill="none" stroke="#a0d17b" d="M99.41,-410.93C111.26,-409.22 124.22,-407.34 137.08,-405.48"/>
<polygon fill="#a0d17b" stroke="#a0d17b" points="137.94,-408.89 147.34,-404 136.94,-401.97 137.94,-408.89"/>
</g>
<!-- shot_glass.hifive -->
<g id="node17" class="node">
<title>shot_glass.hifive</title>
<polygon fill="#343434" stroke="#343434" points="546.5,-464 389.5,-464 389.5,-428 546.5,-428 546.5,-464"/>
<text text-anchor="middle" x="468" y="-442.3" font-family="Courier,monospace" font-size="14.00" fill="#a0d17b">shot_glass.hifive</text>
</g>
<!-- shot_glass&#45;&gt;shot_glass.hifive -->
<g id="edge21" class="edge">
<title>shot_glass&#45;&gt;shot_glass.hifive</title>
<path fill="none" stroke="#a0d17b" d="M99.09,-421.27C167.66,-425.88 293.92,-434.36 379.17,-440.1"/>
<polygon fill="#a0d17b" stroke="#a0d17b" points="379.14,-443.6 389.36,-440.78 379.61,-436.62 379.14,-443.6"/>
</g>
<!-- shot_glass.blender -->
<g id="node19" class="node">
<title>shot_glass.blender</title>
<polygon fill="#343434" stroke="#343434" points="1126,-212 961,-212 961,-176 1126,-176 1126,-212"/>
<text text-anchor="middle" x="1043.5" y="-190.3" font-family="Courier,monospace" font-size="14.00" fill="#a0d17b">shot_glass.blender</text>
</g>
<!-- shot_glass&#45;&gt;shot_glass.blender -->
<g id="edge22" class="edge">
<title>shot_glass&#45;&gt;shot_glass.blender</title>
<path fill="none" stroke="#a0d17b" d="M83.84,-399.9C88.95,-396.99 94.15,-393.96 99,-391 115.41,-380.98 117.53,-375.04 135,-367 345.15,-270.32 408.27,-266.6 636,-226 743.04,-206.91 867.97,-199.21 950.78,-196.1"/>
<polygon fill="#a0d17b" stroke="#a0d17b" points="951.06,-199.6 960.92,-195.74 950.8,-192.6 951.06,-199.6"/>
</g>
<!-- shot_glass.plotly -->
<g id="node24" class="node">
<title>shot_glass.plotly</title>
<polygon fill="#343434" stroke="#343434" points="296,-120 139,-120 139,-84 296,-84 296,-120"/>
<text text-anchor="middle" x="217.5" y="-98.3" font-family="Courier,monospace" font-size="14.00" fill="#a0d17b">shot_glass.plotly</text>
</g>
<!-- shot_glass&#45;&gt;shot_glass.plotly -->
<g id="edge23" class="edge">
<title>shot_glass&#45;&gt;shot_glass.plotly</title>
<path fill="none" stroke="#a0d17b" d="M90.72,-399.95C93.88,-397.31 96.72,-394.34 99,-391 165.34,-293.97 59.85,-219.37 135,-129 135.6,-128.27 136.23,-127.57 136.87,-126.88"/>
<polygon fill="#a0d17b" stroke="#a0d17b" points="139.25,-129.45 144.42,-120.2 134.61,-124.2 139.25,-129.45"/>
</g>
<!-- shot_glass.obj -->
<g id="node27" class="node">
<title>shot_glass.obj</title>
<polygon fill="#343434" stroke="#343434" points="283.5,-673 151.5,-673 151.5,-637 283.5,-637 283.5,-673"/>
<text text-anchor="middle" x="217.5" y="-651.3" font-family="Courier,monospace" font-size="14.00" fill="#a0d17b">shot_glass.obj</text>
</g>
<!-- shot_glass&#45;&gt;shot_glass.obj -->
<g id="edge24" class="edge">
<title>shot_glass&#45;&gt;shot_glass.obj</title>
<path fill="none" stroke="#a0d17b" d="M63.25,-436.2C92.34,-477.73 163.71,-579.64 197.8,-628.3"/>
<polygon fill="#a0d17b" stroke="#a0d17b" points="195.1,-630.55 203.71,-636.73 200.84,-626.54 195.1,-630.55"/>
</g>
<!-- shot_glass.hifive&#45;&gt;shot_glass.hifive.hifive -->
<g id="edge25" class="edge">
<title>shot_glass.hifive&#45;&gt;shot_glass.hifive.hifive</title>
<path fill="none" stroke="#a0d17b" d="M546.64,-455.92C574.75,-459.22 606.77,-462.66 636,-465 733.42,-472.81 844.25,-477.73 925.55,-480.6"/>
<polygon fill="#a0d17b" stroke="#a0d17b" points="925.7,-484.11 935.82,-480.95 925.95,-477.11 925.7,-484.11"/>
</g>
<!-- shot_glass.hifive&#45;&gt;shot_glass.hifive.hifive_tools -->
<g id="edge26" class="edge">
<title>shot_glass.hifive&#45;&gt;shot_glass.hifive.hifive_tools</title>
<path fill="none" stroke="#a0d17b" d="M524.03,-464.08C556.47,-474.5 598.4,-487.56 636,-498 650.02,-501.89 664.96,-505.78 679.54,-509.44"/>
<polygon fill="#a0d17b" stroke="#a0d17b" points="679.01,-512.91 689.56,-511.93 680.7,-506.12 679.01,-512.91"/>
</g>
<!-- shot_glass.hifive&#45;&gt;shot_glass.hifive.operator_tools -->
<g id="edge27" class="edge">
<title>shot_glass.hifive&#45;&gt;shot_glass.hifive.operator_tools</title>
<path fill="none" stroke="#a0d17b" d="M546.69,-435.12C564.6,-431.21 583.29,-425.98 600,-419 617.74,-411.59 618.74,-403.48 636,-395 649.55,-388.34 1140.71,-232.05 1151,-221 1194.21,-174.62 1137.63,-122.75 1187,-83 1228.12,-49.89 1356.21,-48.56 1460.84,-53.78"/>
<polygon fill="#a0d17b" stroke="#a0d17b" points="1460.72,-57.28 1470.89,-54.31 1461.09,-50.29 1460.72,-57.28"/>
</g>
<!-- shot_glass.hifive&#45;&gt;shot_glass.hifive.operators -->
<g id="edge28" class="edge">
<title>shot_glass.hifive&#45;&gt;shot_glass.hifive.operators</title>
<path fill="none" stroke="#a0d17b" d="M489.43,-464.08C519.31,-489.42 577.74,-534.87 636,-557 806.55,-621.77 860.07,-614 1042.5,-614 1042.5,-614 1042.5,-614 1312,-614 1534.82,-614 1778.53,-479.76 1869.54,-424.42"/>
<polygon fill="#a0d17b" stroke="#a0d17b" points="1871.42,-427.37 1878.11,-419.16 1867.76,-421.4 1871.42,-427.37"/>
</g>
<!-- shot_glass.hifive&#45;&gt;shot_glass.hifive.type_base -->
<g id="edge29" class="edge">
<title>shot_glass.hifive&#45;&gt;shot_glass.hifive.type_base</title>
<path fill="none" stroke="#a0d17b" d="M546.52,-443.92C574.53,-443.17 606.96,-442.3 638.18,-441.46"/>
<polygon fill="#a0d17b" stroke="#a0d17b" points="638.36,-444.95 648.27,-441.19 638.18,-437.96 638.36,-444.95"/>
</g>
<!-- shot_glass.hifive&#45;&gt;shot_glass.hifive.validators -->
<g id="edge30" class="edge">
<title>shot_glass.hifive&#45;&gt;shot_glass.hifive.validators</title>
<path fill="none" stroke="#a0d17b" d="M546.62,-430.21C564.19,-426.58 582.74,-422.7 600,-419 616.03,-415.57 619.71,-412.79 636,-411 822.84,-390.49 1040.53,-400.83 1176.82,-411.39"/>
<polygon fill="#a0d17b" stroke="#a0d17b" points="1176.65,-414.88 1186.89,-412.18 1177.2,-407.91 1176.65,-414.88"/>
</g>
<!-- bmesh -->
<g id="node18" class="node">
<title>bmesh</title>
<polygon fill="#343434" stroke="#343434" points="1340,-350 1282,-350 1282,-314 1340,-314 1340,-350"/>
<text text-anchor="middle" x="1311" y="-328.3" font-family="Courier,monospace" font-size="14.00" fill="#de958e">bmesh</text>
</g>
<!-- bmesh&#45;&gt;shot_glass.blender.blender_tools -->
<g id="edge31" class="edge">
<title>bmesh&#45;&gt;shot_glass.blender.blender_tools</title>
<path fill="none" stroke="#de958e" d="M1340.08,-329.84C1368.41,-327.65 1414.44,-324.11 1460.55,-320.55"/>
<polygon fill="#de958e" stroke="#de958e" points="1461,-324.03 1470.7,-319.77 1460.46,-317.05 1461,-324.03"/>
</g>
<!-- shot_glass.blender&#45;&gt;shot_glass.blender.blender_tools -->
<g id="edge32" class="edge">
<title>shot_glass.blender&#45;&gt;shot_glass.blender.blender_tools</title>
<path fill="none" stroke="#a0d17b" d="M1126.22,-187.47C1206.43,-183.5 1331.45,-183.83 1435,-213 1488.39,-228.04 1543.48,-261.68 1577.36,-284.86"/>
<polygon fill="#a0d17b" stroke="#a0d17b" points="1575.71,-287.98 1585.92,-290.8 1579.7,-282.23 1575.71,-287.98"/>
</g>
<!-- bpy -->
<g id="node20" class="node">
<title>bpy</title>
<polygon fill="#343434" stroke="#343434" points="1070.5,-342 1016.5,-342 1016.5,-306 1070.5,-306 1070.5,-342"/>
<text text-anchor="middle" x="1043.5" y="-320.3" font-family="Courier,monospace" font-size="14.00" fill="#de958e">bpy</text>
</g>
<!-- bpy&#45;&gt;shot_glass.blender.blender_tools -->
<g id="edge33" class="edge">
<title>bpy&#45;&gt;shot_glass.blender.blender_tools</title>
<path fill="none" stroke="#de958e" d="M1070.66,-319.45C1099.16,-314.75 1146.16,-307.71 1187,-305 1277.58,-298.99 1379.3,-299.71 1460.35,-302.06"/>
<polygon fill="#de958e" stroke="#de958e" points="1460.53,-305.57 1470.63,-302.37 1460.74,-298.57 1460.53,-305.57"/>
</g>
<!-- bpy&#45;&gt;shot_glass.hifive.validators -->
<g id="edge34" class="edge">
<title>bpy&#45;&gt;shot_glass.hifive.validators</title>
<path fill="none" stroke="#de958e" d="M1070.92,-328.19C1093.42,-332.6 1125.98,-341.05 1151,-356 1170.42,-367.61 1167.36,-380.76 1187,-392 1193.8,-395.89 1201.08,-399.32 1208.57,-402.34"/>
<polygon fill="#de958e" stroke="#de958e" points="1207.57,-405.7 1218.16,-405.95 1210.04,-399.15 1207.57,-405.7"/>
</g>
<!-- lunchbox.tools -->
<g id="node21" class="node">
<title>lunchbox.tools</title>
<polygon fill="#343434" stroke="#343434" points="1377,-128 1245,-128 1245,-92 1377,-92 1377,-128"/>
<text text-anchor="middle" x="1311" y="-106.3" font-family="Courier,monospace" font-size="14.00" fill="#de958e">lunchbox.tools</text>
</g>
<!-- lunchbox.tools&#45;&gt;shot_glass.blender.blender_tools -->
<g id="edge35" class="edge">
<title>lunchbox.tools&#45;&gt;shot_glass.blender.blender_tools</title>
<path fill="none" stroke="#de958e" d="M1346.3,-128.13C1371.33,-141.68 1405.84,-161.07 1435,-180 1487.2,-213.87 1544.8,-257.5 1579.3,-284.35"/>
<polygon fill="#de958e" stroke="#de958e" points="1577.52,-287.4 1587.55,-290.79 1581.83,-281.88 1577.52,-287.4"/>
</g>
<!-- lunchbox.tools&#45;&gt;shot_glass.hifive.operator_tools -->
<g id="edge36" class="edge">
<title>lunchbox.tools&#45;&gt;shot_glass.hifive.operator_tools</title>
<path fill="none" stroke="#de958e" d="M1377.14,-100.4C1406.8,-96.03 1443.05,-90.68 1478.05,-85.52"/>
<polygon fill="#de958e" stroke="#de958e" points="1478.99,-88.92 1488.37,-84 1477.97,-82 1478.99,-88.92"/>
</g>
<!-- lunchbox.tools&#45;&gt;shot_glass.hifive.operators -->
<g id="edge37" class="edge">
<title>lunchbox.tools&#45;&gt;shot_glass.hifive.operators</title>
<path fill="none" stroke="#de958e" d="M1377.38,-107.53C1484.37,-104.66 1691.05,-104.4 1752,-142 1838.86,-195.59 1883.02,-317.74 1899.15,-372.97"/>
<polygon fill="#de958e" stroke="#de958e" points="1895.83,-374.11 1901.92,-382.78 1902.57,-372.2 1895.83,-374.11"/>
</g>
<!-- pandas -->
<g id="node22" class="node">
<title>pandas</title>
<polygon fill="#343434" stroke="#343434" points="501,-662 435,-662 435,-626 501,-626 501,-662"/>
<text text-anchor="middle" x="468" y="-640.3" font-family="Courier,monospace" font-size="14.00" fill="#de958e">pandas</text>
</g>
<!-- pandas&#45;&gt;shot_glass.blender.blender_tools -->
<g id="edge38" class="edge">
<title>pandas&#45;&gt;shot_glass.blender.blender_tools</title>
<path fill="none" stroke="#de958e" d="M501.12,-643.9C627.65,-642.26 1101.02,-624.26 1435,-451 1495.23,-419.76 1554.26,-365.83 1586.17,-334.19"/>
<polygon fill="#de958e" stroke="#de958e" points="1588.72,-336.58 1593.3,-327.03 1583.76,-331.64 1588.72,-336.58"/>
</g>
<!-- pandas&#45;&gt;shot_glass.hifive.hifive -->
<g id="edge39" class="edge">
<title>pandas&#45;&gt;shot_glass.hifive.hifive</title>
<path fill="none" stroke="#de958e" d="M501.16,-640.56C573.89,-632.14 755.88,-607.38 900,-557 937.05,-544.05 976.59,-523.17 1004.59,-507.05"/>
<polygon fill="#de958e" stroke="#de958e" points="1006.38,-510.06 1013.26,-502.01 1002.86,-504.01 1006.38,-510.06"/>
</g>
<!-- pandas&#45;&gt;shot_glass.hifive.hifive_tools -->
<g id="edge40" class="edge">
<title>pandas&#45;&gt;shot_glass.hifive.hifive_tools</title>
<path fill="none" stroke="#de958e" d="M500.73,-625.83C533.67,-607.6 587.12,-579.73 636,-562 647.46,-557.84 659.68,-554.05 671.88,-550.65"/>
<polygon fill="#de958e" stroke="#de958e" points="672.9,-554 681.64,-548.01 671.07,-547.24 672.9,-554"/>
</g>
<!-- pandas&#45;&gt;shot_glass.hifive.operators -->
<g id="edge41" class="edge">
<title>pandas&#45;&gt;shot_glass.hifive.operators</title>
<path fill="none" stroke="#de958e" d="M501.26,-648.41C588.38,-659.92 835.74,-690 1042.5,-690 1042.5,-690 1042.5,-690 1312,-690 1516.29,-690 1576.97,-662.37 1752,-557 1809.35,-522.47 1860.72,-461.9 1887.33,-427.27"/>
<polygon fill="#de958e" stroke="#de958e" points="1890.31,-429.14 1893.55,-419.06 1884.72,-424.92 1890.31,-429.14"/>
</g>
<!-- pandas&#45;&gt;shot_glass.obj.obj_tools -->
<g id="edge42" class="edge">
<title>pandas&#45;&gt;shot_glass.obj.obj_tools</title>
<path fill="none" stroke="#de958e" d="M501.24,-648.01C528.58,-652.3 568.28,-660.66 600,-676 618.25,-684.82 617.75,-695.18 636,-704 644.45,-708.08 653.46,-711.67 662.66,-714.82"/>
<polygon fill="#de958e" stroke="#de958e" points="661.7,-718.19 672.29,-717.95 663.86,-711.53 661.7,-718.19"/>
</g>
<!-- mathutils -->
<g id="node23" class="node">
<title>mathutils</title>
<polygon fill="#343434" stroke="#343434" points="1356.5,-258 1265.5,-258 1265.5,-222 1356.5,-222 1356.5,-258"/>
<text text-anchor="middle" x="1311" y="-236.3" font-family="Courier,monospace" font-size="14.00" fill="#de958e">mathutils</text>
</g>
<!-- mathutils&#45;&gt;shot_glass.blender.blender_tools -->
<g id="edge43" class="edge">
<title>mathutils&#45;&gt;shot_glass.blender.blender_tools</title>
<path fill="none" stroke="#de958e" d="M1356.69,-250.33C1400.32,-260.42 1467.93,-276.04 1522.39,-288.63"/>
<polygon fill="#de958e" stroke="#de958e" points="1521.87,-292.1 1532.4,-290.95 1523.45,-285.28 1521.87,-292.1"/>
</g>
<!-- shot_glass.plotly&#45;&gt;shot_glass.plotly.plotly_tools -->
<g id="edge44" class="edge">
<title>shot_glass.plotly&#45;&gt;shot_glass.plotly.plotly_tools</title>
<path fill="none" stroke="#a0d17b" d="M296.1,-116.37C316.14,-120.07 338.08,-124.13 359.35,-128.07"/>
<polygon fill="#a0d17b" stroke="#a0d17b" points="358.92,-131.55 369.39,-129.93 360.2,-124.67 358.92,-131.55"/>
</g>
<!-- wrapt -->
<g id="node25" class="node">
<title>wrapt</title>
<polygon fill="#343434" stroke="#343434" points="1340,-36 1282,-36 1282,0 1340,0 1340,-36"/>
<text text-anchor="middle" x="1311" y="-14.3" font-family="Courier,monospace" font-size="14.00" fill="#de958e">wrapt</text>
</g>
<!-- wrapt&#45;&gt;shot_glass.hifive.operator_tools -->
<g id="edge45" class="edge">
<title>wrapt&#45;&gt;shot_glass.hifive.operator_tools</title>
<path fill="none" stroke="#de958e" d="M1340.08,-22.52C1374.1,-27.99 1433.65,-37.56 1488.23,-46.34"/>
<polygon fill="#de958e" stroke="#de958e" points="1487.92,-49.83 1498.35,-47.97 1489.04,-42.92 1487.92,-49.83"/>
</g>
<!-- plotly -->
<g id="node26" class="node">
<title>plotly</title>
<polygon fill="#343434" stroke="#343434" points="250.5,-174 184.5,-174 184.5,-138 250.5,-138 250.5,-174"/>
<text text-anchor="middle" x="217.5" y="-152.3" font-family="Courier,monospace" font-size="14.00" fill="#de958e">plotly</text>
</g>
<!-- plotly&#45;&gt;shot_glass.plotly.plotly_tools -->
<g id="edge46" class="edge">
<title>plotly&#45;&gt;shot_glass.plotly.plotly_tools</title>
<path fill="none" stroke="#de958e" d="M250.73,-154.96C270.59,-154.32 297.57,-153.45 325.74,-152.55"/>
<polygon fill="#de958e" stroke="#de958e" points="325.86,-156.05 335.75,-152.23 325.64,-149.05 325.86,-156.05"/>
</g>
<!-- shot_glass.obj&#45;&gt;shot_glass.obj.obj_parser -->
<g id="edge47" class="edge">
<title>shot_glass.obj&#45;&gt;shot_glass.obj.obj_parser</title>
<path fill="none" stroke="#a0d17b" d="M278.32,-673.06C285.72,-675.81 293.1,-678.8 300,-682 317.01,-689.89 318.69,-696.8 336,-704 345.93,-708.13 356.52,-711.81 367.2,-715.06"/>
<polygon fill="#a0d17b" stroke="#a0d17b" points="366.44,-718.49 377.02,-717.93 368.41,-711.77 366.44,-718.49"/>
</g>
<!-- shot_glass.obj&#45;&gt;shot_glass.obj.obj_tools -->
<g id="edge48" class="edge">
<title>shot_glass.obj&#45;&gt;shot_glass.obj.obj_tools</title>
<path fill="none" stroke="#a0d17b" d="M283.7,-663.83C359.7,-674.22 489.05,-692.18 600,-709 616.26,-711.47 633.4,-714.14 650.26,-716.83"/>
<polygon fill="#a0d17b" stroke="#a0d17b" points="649.72,-720.28 660.14,-718.4 650.82,-713.37 649.72,-720.28"/>
</g>
<!-- lunchbox.stopwatch -->
<g id="node28" class="node">
<title>lunchbox.stopwatch</title>
<polygon fill="#343434" stroke="#343434" points="300,-727 135,-727 135,-691 300,-691 300,-727"/>
<text text-anchor="middle" x="217.5" y="-705.3" font-family="Courier,monospace" font-size="14.00" fill="#de958e">lunchbox.stopwatch</text>
</g>
<!-- lunchbox.stopwatch&#45;&gt;shot_glass.obj.obj_parser -->
<g id="edge49" class="edge">
<title>lunchbox.stopwatch&#45;&gt;shot_glass.obj.obj_parser</title>
<path fill="none" stroke="#de958e" d="M300.21,-717.88C314.95,-719.48 330.6,-721.18 346.17,-722.87"/>
<polygon fill="#de958e" stroke="#de958e" points="346.06,-726.38 356.38,-723.98 346.82,-719.42 346.06,-726.38"/>
</g>
<!-- pyparsing -->
<g id="node29" class="node">
<title>pyparsing</title>
<polygon fill="#343434" stroke="#343434" points="263,-781 172,-781 172,-745 263,-745 263,-781"/>
<text text-anchor="middle" x="217.5" y="-759.3" font-family="Courier,monospace" font-size="14.00" fill="#de958e">pyparsing</text>
</g>
<!-- pyparsing&#45;&gt;shot_glass.obj.obj_parser -->
<g id="edge50" class="edge">
<title>pyparsing&#45;&gt;shot_glass.obj.obj_parser</title>
<path fill="none" stroke="#de958e" d="M263.21,-758.14C286.69,-755.59 316.7,-752.33 346.43,-749.1"/>
<polygon fill="#de958e" stroke="#de958e" points="346.93,-752.57 356.5,-748.01 346.18,-745.61 346.93,-752.57"/>
</g>
</g>
</svg>
