<?xml version="1.0" encoding="UTF-8" standalone="no"?>
<!DOCTYPE svg PUBLIC "-//W3C//DTD SVG 1.1//EN"
 "http://www.w3.org/Graphics/SVG/1.1/DTD/svg11.dtd">
<!-- Generated by graphviz version 2.43.0 (0)
 -->
<!-- Title: %3 Pages: 1 -->
<svg width="2035pt" height="886pt"
 viewBox="0.00 0.00 2035.00 886.00" xmlns="http://www.w3.org/2000/svg" xmlns:xlink="http://www.w3.org/1999/xlink">
<g id="graph0" class="graph" transform="scale(1 1) rotate(0) translate(4 882)">
<title>%3</title>
<polygon fill="#242424" stroke="transparent" points="-4,4 -4,-882 2031,-882 2031,4 -4,4"/>
<!-- cli -->
<g id="node1" class="node">
<title>cli</title>
<polygon fill="#343434" stroke="#343434" points="76.5,-404 22.5,-404 22.5,-368 76.5,-368 76.5,-404"/>
<text text-anchor="middle" x="49.5" y="-382.3" font-family="Courier,monospace" font-size="14.00" fill="#b6ecf3">cli</text>
</g>
<!-- shot_glass.blender.blender_tools -->
<g id="node2" class="node">
<title>shot_glass.blender.blender_tools</title>
<polygon fill="#343434" stroke="#343434" points="1752,-323 1471,-323 1471,-287 1752,-287 1752,-323"/>
<text text-anchor="middle" x="1611.5" y="-301.3" font-family="Courier,monospace" font-size="14.00" fill="#b6ecf3">shot_glass.blender.blender_tools</text>
</g>
<!-- shot_glass.hifive.operators -->
<g id="node9" class="node">
<title>shot_glass.hifive.operators</title>
<polygon fill="#343434" stroke="#343434" points="2027,-419 1788,-419 1788,-383 2027,-383 2027,-419"/>
<text text-anchor="middle" x="1907.5" y="-397.3" font-family="Courier,monospace" font-size="14.00" fill="#b6ecf3">shot_glass.hifive.operators</text>
</g>
<!-- shot_glass.blender.blender_tools&#45;&gt;shot_glass.hifive.operators -->
<g id="edge1" class="edge">
<title>shot_glass.blender.blender_tools&#45;&gt;shot_glass.hifive.operators</title>
<path fill="none" stroke="#b6ecf3" d="M1667.8,-323.06C1717.1,-339.16 1789.32,-362.74 1841.39,-379.74"/>
<polygon fill="#b6ecf3" stroke="#b6ecf3" points="1840.61,-383.17 1851.2,-382.94 1842.78,-376.51 1840.61,-383.17"/>
</g>
<!-- shot_glass.command -->
<g id="node3" class="node">
<title>shot_glass.command</title>
<polygon fill="#343434" stroke="#343434" points="300,-878 135,-878 135,-842 300,-842 300,-878"/>
<text text-anchor="middle" x="217.5" y="-856.3" font-family="Courier,monospace" font-size="14.00" fill="#b6ecf3">shot_glass.command</text>
</g>
<!-- shot_glass.core.monad -->
<g id="node4" class="node">
<title>shot_glass.core.monad</title>
<polygon fill="#343434" stroke="#343434" points="563,-789 373,-789 373,-753 563,-753 563,-789"/>
<text text-anchor="middle" x="468" y="-767.3" font-family="Courier,monospace" font-size="14.00" fill="#b6ecf3">shot_glass.core.monad</text>
</g>
<!-- shot_glass.core.tools -->
<g id="node5" class="node">
<title>shot_glass.core.tools</title>
<polygon fill="#343434" stroke="#343434" points="563,-502 373,-502 373,-466 563,-466 563,-502"/>
<text text-anchor="middle" x="468" y="-480.3" font-family="Courier,monospace" font-size="14.00" fill="#b6ecf3">shot_glass.core.tools</text>
</g>
<!-- shot_glass.hifive.hifive -->
<g id="node6" class="node">
<title>shot_glass.hifive.hifive</title>
<polygon fill="#343434" stroke="#343434" points="1151,-502 936,-502 936,-466 1151,-466 1151,-502"/>
<text text-anchor="middle" x="1043.5" y="-480.3" font-family="Courier,monospace" font-size="14.00" fill="#b6ecf3">shot_glass.hifive.hifive</text>
</g>
<!-- shot_glass.core.tools&#45;&gt;shot_glass.hifive.hifive -->
<g id="edge2" class="edge">
<title>shot_glass.core.tools&#45;&gt;shot_glass.hifive.hifive</title>
<path fill="none" stroke="#b6ecf3" d="M563.06,-484C662.19,-484 818.49,-484 925.5,-484"/>
<polygon fill="#b6ecf3" stroke="#b6ecf3" points="925.7,-487.5 935.7,-484 925.7,-480.5 925.7,-487.5"/>
</g>
<!-- shot_glass.hifive.hifive_tools -->
<g id="node7" class="node">
<title>shot_glass.hifive.hifive_tools</title>
<polygon fill="#343434" stroke="#343434" points="900,-548 636,-548 636,-512 900,-512 900,-548"/>
<text text-anchor="middle" x="768" y="-526.3" font-family="Courier,monospace" font-size="14.00" fill="#b6ecf3">shot_glass.hifive.hifive_tools</text>
</g>
<!-- shot_glass.core.tools&#45;&gt;shot_glass.hifive.hifive_tools -->
<g id="edge3" class="edge">
<title>shot_glass.core.tools&#45;&gt;shot_glass.hifive.hifive_tools</title>
<path fill="none" stroke="#b6ecf3" d="M563.29,-498.55C587.68,-502.32 614.33,-506.43 640.09,-510.41"/>
<polygon fill="#b6ecf3" stroke="#b6ecf3" points="639.87,-513.92 650.29,-511.98 640.94,-507 639.87,-513.92"/>
</g>
<!-- shot_glass.core.tools&#45;&gt;shot_glass.hifive.operators -->
<g id="edge4" class="edge">
<title>shot_glass.core.tools&#45;&gt;shot_glass.hifive.operators</title>
<path fill="none" stroke="#b6ecf3" d="M500.73,-502.08C533.46,-519.69 586.54,-545.45 636,-557 812.13,-598.13 861.64,-576 1042.5,-576 1042.5,-576 1042.5,-576 1312,-576 1525.45,-576 1765.11,-470.9 1862.16,-423.6"/>
<polygon fill="#b6ecf3" stroke="#b6ecf3" points="1863.95,-426.62 1871.38,-419.07 1860.86,-420.34 1863.95,-426.62"/>
</g>
<!-- shot_glass.hifive.type_base -->
<g id="node10" class="node">
<title>shot_glass.hifive.type_base</title>
<polygon fill="#343434" stroke="#343434" points="887.5,-456 648.5,-456 648.5,-420 887.5,-420 887.5,-456"/>
<text text-anchor="middle" x="768" y="-434.3" font-family="Courier,monospace" font-size="14.00" fill="#b6ecf3">shot_glass.hifive.type_base</text>
</g>
<!-- shot_glass.core.tools&#45;&gt;shot_glass.hifive.type_base -->
<g id="edge5" class="edge">
<title>shot_glass.core.tools&#45;&gt;shot_glass.hifive.type_base</title>
<path fill="none" stroke="#b6ecf3" d="M563.29,-469.45C587.68,-465.68 614.33,-461.57 640.09,-457.59"/>
<polygon fill="#b6ecf3" stroke="#b6ecf3" points="640.94,-461 650.29,-456.02 639.87,-454.08 640.94,-461"/>
</g>
<!-- shot_glass.hifive.validators -->
<g id="node11" class="node">
<title>shot_glass.hifive.validators</title>
<polygon fill="#343434" stroke="#343434" points="1435,-442 1187,-442 1187,-406 1435,-406 1435,-442"/>
<text text-anchor="middle" x="1311" y="-420.3" font-family="Courier,monospace" font-size="14.00" fill="#b6ecf3">shot_glass.hifive.validators</text>
</g>
<!-- shot_glass.core.tools&#45;&gt;shot_glass.hifive.validators -->
<g id="edge6" class="edge">
<title>shot_glass.core.tools&#45;&gt;shot_glass.hifive.validators</title>
<path fill="none" stroke="#b6ecf3" d="M499.72,-465.94C532.28,-447.93 585.82,-421.49 636,-411 823.06,-371.9 1045.71,-387.97 1182.44,-404.74"/>
<polygon fill="#b6ecf3" stroke="#b6ecf3" points="1182.18,-408.23 1192.54,-405.99 1183.05,-401.28 1182.18,-408.23"/>
</g>
<!-- shot_glass.hifive.hifive&#45;&gt;shot_glass.hifive.operators -->
<g id="edge7" class="edge">
<title>shot_glass.hifive.hifive&#45;&gt;shot_glass.hifive.operators</title>
<path fill="none" stroke="#b6ecf3" d="M1151.14,-477.88C1289.86,-469.32 1539.59,-451.85 1752,-426 1764.9,-424.43 1778.36,-422.58 1791.74,-420.6"/>
<polygon fill="#b6ecf3" stroke="#b6ecf3" points="1792.57,-424.01 1801.94,-419.06 1791.53,-417.09 1792.57,-424.01"/>
</g>
<!-- shot_glass.hifive.hifive&#45;&gt;shot_glass.hifive.validators -->
<g id="edge8" class="edge">
<title>shot_glass.hifive.hifive&#45;&gt;shot_glass.hifive.validators</title>
<path fill="none" stroke="#b6ecf3" d="M1124.16,-466C1154.34,-459.18 1188.91,-451.36 1219.98,-444.34"/>
<polygon fill="#b6ecf3" stroke="#b6ecf3" points="1220.96,-447.71 1229.94,-442.09 1219.41,-440.88 1220.96,-447.71"/>
</g>
<!-- shot_glass.hifive.hifive_tools&#45;&gt;shot_glass.hifive.hifive -->
<g id="edge9" class="edge">
<title>shot_glass.hifive.hifive_tools&#45;&gt;shot_glass.hifive.hifive</title>
<path fill="none" stroke="#b6ecf3" d="M876.31,-511.95C892.54,-509.22 909.36,-506.39 925.78,-503.63"/>
<polygon fill="#b6ecf3" stroke="#b6ecf3" points="926.67,-507.03 935.95,-501.92 925.51,-500.13 926.67,-507.03"/>
</g>
<!-- shot_glass.hifive.operator_tools -->
<g id="node8" class="node">
<title>shot_glass.hifive.operator_tools</title>
<polygon fill="#343434" stroke="#343434" points="1752,-84 1471,-84 1471,-48 1752,-48 1752,-84"/>
<text text-anchor="middle" x="1611.5" y="-62.3" font-family="Courier,monospace" font-size="14.00" fill="#b6ecf3">shot_glass.hifive.operator_tools</text>
</g>
<!-- shot_glass.hifive.operator_tools&#45;&gt;shot_glass.hifive.operators -->
<g id="edge10" class="edge">
<title>shot_glass.hifive.operator_tools&#45;&gt;shot_glass.hifive.operators</title>
<path fill="none" stroke="#b6ecf3" d="M1725.08,-84.12C1734.72,-88.37 1743.88,-93.59 1752,-100 1843.37,-172.06 1885.85,-312.85 1900.39,-372.84"/>
<polygon fill="#b6ecf3" stroke="#b6ecf3" points="1897.02,-373.8 1902.71,-382.74 1903.83,-372.2 1897.02,-373.8"/>
</g>
<!-- shot_glass.hifive.type_base&#45;&gt;shot_glass.hifive.hifive -->
<g id="edge11" class="edge">
<title>shot_glass.hifive.type_base&#45;&gt;shot_glass.hifive.hifive</title>
<path fill="none" stroke="#b6ecf3" d="M876.31,-456.05C892.54,-458.78 909.36,-461.61 925.78,-464.37"/>
<polygon fill="#b6ecf3" stroke="#b6ecf3" points="925.51,-467.87 935.95,-466.08 926.67,-460.97 925.51,-467.87"/>
</g>
<!-- shot_glass.hifive.validators&#45;&gt;shot_glass.blender.blender_tools -->
<g id="edge12" class="edge">
<title>shot_glass.hifive.validators&#45;&gt;shot_glass.blender.blender_tools</title>
<path fill="none" stroke="#b6ecf3" d="M1357.34,-405.93C1410.53,-384.72 1498.67,-349.58 1555.66,-326.86"/>
<polygon fill="#b6ecf3" stroke="#b6ecf3" points="1557.23,-330 1565.23,-323.05 1554.64,-323.5 1557.23,-330"/>
</g>
<!-- shot_glass.hifive.validators&#45;&gt;shot_glass.hifive.operators -->
<g id="edge13" class="edge">
<title>shot_glass.hifive.validators&#45;&gt;shot_glass.hifive.operators</title>
<path fill="none" stroke="#b6ecf3" d="M1435.18,-419.23C1535.32,-415.36 1676.16,-409.91 1777.77,-405.98"/>
<polygon fill="#b6ecf3" stroke="#b6ecf3" points="1777.93,-409.48 1787.79,-405.59 1777.66,-402.48 1777.93,-409.48"/>
</g>
<!-- shot_glass.obj.obj_parser -->
<g id="node12" class="node">
<title>shot_glass.obj.obj_parser</title>
<polygon fill="#343434" stroke="#343434" points="579.5,-697 356.5,-697 356.5,-661 579.5,-661 579.5,-697"/>
<text text-anchor="middle" x="468" y="-675.3" font-family="Courier,monospace" font-size="14.00" fill="#b6ecf3">shot_glass.obj.obj_parser</text>
</g>
<!-- shot_glass.obj.obj_tools -->
<g id="node13" class="node">
<title>shot_glass.obj.obj_tools</title>
<polygon fill="#343434" stroke="#343434" points="875.5,-754 660.5,-754 660.5,-718 875.5,-718 875.5,-754"/>
<text text-anchor="middle" x="768" y="-732.3" font-family="Courier,monospace" font-size="14.00" fill="#b6ecf3">shot_glass.obj.obj_tools</text>
</g>
<!-- shot_glass.obj.obj_parser&#45;&gt;shot_glass.obj.obj_tools -->
<g id="edge14" class="edge">
<title>shot_glass.obj.obj_parser&#45;&gt;shot_glass.obj.obj_tools</title>
<path fill="none" stroke="#b6ecf3" d="M563.29,-697.04C594.97,-703.09 630.48,-709.89 662.87,-716.08"/>
<polygon fill="#b6ecf3" stroke="#b6ecf3" points="662.33,-719.54 672.81,-717.98 663.65,-712.67 662.33,-719.54"/>
</g>
<!-- shot_glass.obj.obj_tools&#45;&gt;shot_glass.hifive.operators -->
<g id="edge15" class="edge">
<title>shot_glass.obj.obj_tools&#45;&gt;shot_glass.hifive.operators</title>
<path fill="none" stroke="#b6ecf3" d="M831.66,-754.08C997.29,-797.93 1454.37,-893.06 1752,-704 1851.65,-640.7 1889.89,-491.46 1901.85,-429.13"/>
<polygon fill="#b6ecf3" stroke="#b6ecf3" points="1905.31,-429.68 1903.67,-419.21 1898.43,-428.42 1905.31,-429.68"/>
</g>
<!-- shot_glass.plotly.plotly_tools -->
<g id="node14" class="node">
<title>shot_glass.plotly.plotly_tools</title>
<polygon fill="#343434" stroke="#343434" points="600,-166 336,-166 336,-130 600,-130 600,-166"/>
<text text-anchor="middle" x="468" y="-144.3" font-family="Courier,monospace" font-size="14.00" fill="#b6ecf3">shot_glass.plotly.plotly_tools</text>
</g>
<!-- shot_glass.plotly.plotly_tools&#45;&gt;shot_glass.hifive.operators -->
<g id="edge16" class="edge">
<title>shot_glass.plotly.plotly_tools&#45;&gt;shot_glass.hifive.operators</title>
<path fill="none" stroke="#b6ecf3" d="M600.27,-143.19C787.22,-138.78 1140.19,-139.46 1435,-192 1578.72,-217.61 1621.76,-212.06 1752,-278 1802.82,-303.73 1852.76,-347.87 1881.55,-375.69"/>
<polygon fill="#b6ecf3" stroke="#b6ecf3" points="1879.15,-378.24 1888.74,-382.73 1884.04,-373.24 1879.15,-378.24"/>
</g>
<!-- click -->
<g id="node15" class="node">
<title>click</title>
<polygon fill="#343434" stroke="#343434" points="78.5,-878 20.5,-878 20.5,-842 78.5,-842 78.5,-878"/>
<text text-anchor="middle" x="49.5" y="-856.3" font-family="Courier,monospace" font-size="14.00" fill="#de958e">click</text>
</g>
<!-- click&#45;&gt;shot_glass.command -->
<g id="edge17" class="edge">
<title>click&#45;&gt;shot_glass.command</title>
<path fill="none" stroke="#de958e" d="M78.66,-860C91.61,-860 107.77,-860 124.43,-860"/>
<polygon fill="#de958e" stroke="#de958e" points="124.85,-863.5 134.85,-860 124.85,-856.5 124.85,-863.5"/>
</g>
<!-- infix -->
<g id="node16" class="node">
<title>infix</title>
<polygon fill="#343434" stroke="#343434" points="246.5,-770 188.5,-770 188.5,-734 246.5,-734 246.5,-770"/>
<text text-anchor="middle" x="217.5" y="-748.3" font-family="Courier,monospace" font-size="14.00" fill="#de958e">infix</text>
</g>
<!-- infix&#45;&gt;shot_glass.core.monad -->
<g id="edge18" class="edge">
<title>infix&#45;&gt;shot_glass.core.monad</title>
<path fill="none" stroke="#de958e" d="M246.52,-754.14C274.84,-756.31 320.35,-759.79 362.68,-763.02"/>
<polygon fill="#de958e" stroke="#de958e" points="362.56,-766.52 372.79,-763.8 363.09,-759.54 362.56,-766.52"/>
</g>
<!-- lunchbox.enforce -->
<g id="node17" class="node">
<title>lunchbox.enforce</title>
<polygon fill="#343434" stroke="#343434" points="292,-824 143,-824 143,-788 292,-788 292,-824"/>
<text text-anchor="middle" x="217.5" y="-802.3" font-family="Courier,monospace" font-size="14.00" fill="#de958e">lunchbox.enforce</text>
</g>
<!-- lunchbox.enforce&#45;&gt;shot_glass.core.monad -->
<g id="edge19" class="edge">
<title>lunchbox.enforce&#45;&gt;shot_glass.core.monad</title>
<path fill="none" stroke="#de958e" d="M292.05,-795.64C314.22,-792.52 338.98,-789.03 362.74,-785.68"/>
<polygon fill="#de958e" stroke="#de958e" points="363.44,-789.12 372.85,-784.26 362.46,-782.19 363.44,-789.12"/>
</g>
<!-- shot_glass.core -->
<g id="node18" class="node">
<title>shot_glass.core</title>
<polygon fill="#343434" stroke="#343434" points="287.5,-502 147.5,-502 147.5,-466 287.5,-466 287.5,-502"/>
<text text-anchor="middle" x="217.5" y="-480.3" font-family="Courier,monospace" font-size="14.00" fill="#a0d17b">shot_glass.core</text>
</g>
<!-- shot_glass.core&#45;&gt;shot_glass.core.monad -->
<g id="edge20" class="edge">
<title>shot_glass.core&#45;&gt;shot_glass.core.monad</title>
<path fill="none" stroke="#a0d17b" d="M243.5,-502.02C261.79,-516.5 285.81,-538.43 300,-563 332.78,-619.75 294.87,-654.97 336,-706 351.34,-725.03 373.66,-738.93 395.54,-748.88"/>
<polygon fill="#a0d17b" stroke="#a0d17b" points="394.31,-752.16 404.88,-752.91 397.08,-745.73 394.31,-752.16"/>
</g>
<!-- shot_glass.core&#45;&gt;shot_glass.core.tools -->
<g id="edge21" class="edge">
<title>shot_glass.core&#45;&gt;shot_glass.core.tools</title>
<path fill="none" stroke="#a0d17b" d="M287.72,-484C310.82,-484 337.1,-484 362.28,-484"/>
<polygon fill="#a0d17b" stroke="#a0d17b" points="362.61,-487.5 372.61,-484 362.61,-480.5 362.61,-487.5"/>
</g>
<!-- shot_glass -->
<g id="node19" class="node">
<title>shot_glass</title>
<polygon fill="#343434" stroke="#343434" points="99,-458 0,-458 0,-422 99,-422 99,-458"/>
<text text-anchor="middle" x="49.5" y="-436.3" font-family="Courier,monospace" font-size="14.00" fill="#a0d17b">shot_glass</text>
</g>
<!-- shot_glass&#45;&gt;shot_glass.command -->
<g id="edge22" class="edge">
<title>shot_glass&#45;&gt;shot_glass.command</title>
<path fill="none" stroke="#a0d17b" d="M52.04,-458.21C58.29,-527.82 83.85,-775.99 135,-833 135.75,-833.83 136.52,-834.64 137.32,-835.42"/>
<polygon fill="#a0d17b" stroke="#a0d17b" points="135.13,-838.16 145.08,-841.81 139.58,-832.75 135.13,-838.16"/>
</g>
<!-- shot_glass&#45;&gt;shot_glass.core -->
<g id="edge23" class="edge">
<title>shot_glass&#45;&gt;shot_glass.core</title>
<path fill="none" stroke="#a0d17b" d="M99.41,-452.96C111.8,-456.25 125.41,-459.86 138.84,-463.42"/>
<polygon fill="#a0d17b" stroke="#a0d17b" points="138.01,-466.82 148.57,-465.99 139.8,-460.05 138.01,-466.82"/>
</g>
<!-- shot_glass.blender -->
<g id="node20" class="node">
<title>shot_glass.blender</title>
<polygon fill="#343434" stroke="#343434" points="1126,-212 961,-212 961,-176 1126,-176 1126,-212"/>
<text text-anchor="middle" x="1043.5" y="-190.3" font-family="Courier,monospace" font-size="14.00" fill="#a0d17b">shot_glass.blender</text>
</g>
<!-- shot_glass&#45;&gt;shot_glass.blender -->
<g id="edge24" class="edge">
<title>shot_glass&#45;&gt;shot_glass.blender</title>
<path fill="none" stroke="#a0d17b" d="M84.55,-421.91C89.47,-419.05 94.42,-416.03 99,-413 115.9,-401.82 117.06,-394.44 135,-385 341.76,-276.26 406.72,-270.79 636,-226 742.71,-205.15 867.7,-197.8 950.63,-195.26"/>
<polygon fill="#a0d17b" stroke="#a0d17b" points="950.88,-198.75 960.78,-194.96 950.68,-191.75 950.88,-198.75"/>
</g>
<!-- shot_glass.hifive -->
<g id="node21" class="node">
<title>shot_glass.hifive</title>
<polygon fill="#343434" stroke="#343434" points="546.5,-372 389.5,-372 389.5,-336 546.5,-336 546.5,-372"/>
<text text-anchor="middle" x="468" y="-350.3" font-family="Courier,monospace" font-size="14.00" fill="#a0d17b">shot_glass.hifive</text>
</g>
<!-- shot_glass&#45;&gt;shot_glass.hifive -->
<g id="edge25" class="edge">
<title>shot_glass&#45;&gt;shot_glass.hifive</title>
<path fill="none" stroke="#a0d17b" d="M99.09,-429.97C167.73,-415.79 294.18,-389.68 379.43,-372.08"/>
<polygon fill="#a0d17b" stroke="#a0d17b" points="380.27,-375.48 389.36,-370.03 378.86,-368.63 380.27,-375.48"/>
</g>
<!-- shot_glass.plotly -->
<g id="node23" class="node">
<title>shot_glass.plotly</title>
<polygon fill="#343434" stroke="#343434" points="296,-120 139,-120 139,-84 296,-84 296,-120"/>
<text text-anchor="middle" x="217.5" y="-98.3" font-family="Courier,monospace" font-size="14.00" fill="#a0d17b">shot_glass.plotly</text>
</g>
<!-- shot_glass&#45;&gt;shot_glass.plotly -->
<g id="edge26" class="edge">
<title>shot_glass&#45;&gt;shot_glass.plotly</title>
<path fill="none" stroke="#a0d17b" d="M90.76,-421.97C93.9,-419.33 96.73,-416.35 99,-413 170.26,-307.59 54.16,-227.25 135,-129 135.6,-128.27 136.22,-127.56 136.86,-126.87"/>
<polygon fill="#a0d17b" stroke="#a0d17b" points="139.24,-129.43 144.38,-120.17 134.59,-124.21 139.24,-129.43"/>
</g>
<!-- shot_glass.obj -->
<g id="node29" class="node">
<title>shot_glass.obj</title>
<polygon fill="#343434" stroke="#343434" points="283.5,-716 151.5,-716 151.5,-680 283.5,-680 283.5,-716"/>
<text text-anchor="middle" x="217.5" y="-694.3" font-family="Courier,monospace" font-size="14.00" fill="#a0d17b">shot_glass.obj</text>
</g>
<!-- shot_glass&#45;&gt;shot_glass.obj -->
<g id="edge27" class="edge">
<title>shot_glass&#45;&gt;shot_glass.obj</title>
<path fill="none" stroke="#a0d17b" d="M51.9,-458.16C56.18,-501.3 72.92,-610.8 135,-671 137.41,-673.33 140.02,-675.47 142.79,-677.42"/>
<polygon fill="#a0d17b" stroke="#a0d17b" points="141.12,-680.5 151.48,-682.73 144.77,-674.53 141.12,-680.5"/>
</g>
<!-- shot_glass.blender&#45;&gt;shot_glass.blender.blender_tools -->
<g id="edge28" class="edge">
<title>shot_glass.blender&#45;&gt;shot_glass.blender.blender_tools</title>
<path fill="none" stroke="#a0d17b" d="M1126.14,-194.18C1206.02,-196.06 1330.55,-203.56 1435,-230 1482.12,-241.93 1532.87,-264.82 1567.62,-282.18"/>
<polygon fill="#a0d17b" stroke="#a0d17b" points="1566.47,-285.53 1576.98,-286.92 1569.64,-279.28 1566.47,-285.53"/>
</g>
<!-- shot_glass.hifive&#45;&gt;shot_glass.hifive.hifive -->
<g id="edge29" class="edge">
<title>shot_glass.hifive&#45;&gt;shot_glass.hifive.hifive</title>
<path fill="none" stroke="#a0d17b" d="M546.61,-356.32C634.24,-360.75 780.21,-373.62 900,-411 937.83,-422.8 977.72,-444.1 1005.64,-460.66"/>
<polygon fill="#a0d17b" stroke="#a0d17b" points="1003.9,-463.69 1014.27,-465.85 1007.51,-457.69 1003.9,-463.69"/>
</g>
<!-- shot_glass.hifive&#45;&gt;shot_glass.hifive.hifive_tools -->
<g id="edge30" class="edge">
<title>shot_glass.hifive&#45;&gt;shot_glass.hifive.hifive_tools</title>
<path fill="none" stroke="#a0d17b" d="M494.11,-372.14C526.25,-395.01 583.99,-434.97 636,-465 662.52,-480.31 693.12,-495.62 718.08,-507.53"/>
<polygon fill="#a0d17b" stroke="#a0d17b" points="716.81,-510.8 727.34,-511.92 719.81,-504.48 716.81,-510.8"/>
</g>
<!-- shot_glass.hifive&#45;&gt;shot_glass.hifive.operator_tools -->
<g id="edge31" class="edge">
<title>shot_glass.hifive&#45;&gt;shot_glass.hifive.operator_tools</title>
<path fill="none" stroke="#a0d17b" d="M494.43,-335.94C525.97,-314.6 582.17,-279.99 636,-264 746.09,-231.29 1063.12,-294.94 1151,-221 1199.5,-180.19 1137.63,-122.75 1187,-83 1228.12,-49.89 1356.21,-48.56 1460.84,-53.78"/>
<polygon fill="#a0d17b" stroke="#a0d17b" points="1460.72,-57.28 1470.89,-54.31 1461.09,-50.29 1460.72,-57.28"/>
</g>
<!-- shot_glass.hifive&#45;&gt;shot_glass.hifive.operators -->
<g id="edge32" class="edge">
<title>shot_glass.hifive&#45;&gt;shot_glass.hifive.operators</title>
<path fill="none" stroke="#a0d17b" d="M546.82,-341.57C639.3,-327.47 798.42,-305.37 936,-297 1031.38,-291.2 1068.19,-249.32 1151,-297 1178.61,-312.9 1159.86,-342.3 1187,-359 1235.88,-389.07 1584.25,-397.61 1777.73,-400.04"/>
<polygon fill="#a0d17b" stroke="#a0d17b" points="1777.92,-403.54 1787.96,-400.16 1778,-396.54 1777.92,-403.54"/>
</g>
<!-- shot_glass.hifive&#45;&gt;shot_glass.hifive.type_base -->
<g id="edge33" class="edge">
<title>shot_glass.hifive&#45;&gt;shot_glass.hifive.type_base</title>
<path fill="none" stroke="#a0d17b" d="M532.93,-372.02C579.99,-385.28 644.07,-403.35 693.28,-417.22"/>
<polygon fill="#a0d17b" stroke="#a0d17b" points="692.35,-420.59 702.92,-419.94 694.25,-413.86 692.35,-420.59"/>
</g>
<!-- shot_glass.hifive&#45;&gt;shot_glass.hifive.validators -->
<g id="edge34" class="edge">
<title>shot_glass.hifive&#45;&gt;shot_glass.hifive.validators</title>
<path fill="none" stroke="#a0d17b" d="M546.68,-350.86C674.02,-347.18 934.65,-345.78 1151,-384 1159.42,-385.49 1194.99,-394.4 1230.35,-403.43"/>
<polygon fill="#a0d17b" stroke="#a0d17b" points="1229.74,-406.89 1240.3,-405.98 1231.48,-400.11 1229.74,-406.89"/>
</g>
<!-- bmesh -->
<g id="node22" class="node">
<title>bmesh</title>
<polygon fill="#343434" stroke="#343434" points="1340,-350 1282,-350 1282,-314 1340,-314 1340,-350"/>
<text text-anchor="middle" x="1311" y="-328.3" font-family="Courier,monospace" font-size="14.00" fill="#de958e">bmesh</text>
</g>
<!-- bmesh&#45;&gt;shot_glass.blender.blender_tools -->
<g id="edge35" class="edge">
<title>bmesh&#45;&gt;shot_glass.blender.blender_tools</title>
<path fill="none" stroke="#de958e" d="M1340.08,-329.46C1368.41,-326.9 1414.44,-322.73 1460.55,-318.56"/>
<polygon fill="#de958e" stroke="#de958e" points="1461.05,-322.03 1470.7,-317.65 1460.42,-315.06 1461.05,-322.03"/>
</g>
<!-- shot_glass.plotly&#45;&gt;shot_glass.plotly.plotly_tools -->
<g id="edge36" class="edge">
<title>shot_glass.plotly&#45;&gt;shot_glass.plotly.plotly_tools</title>
<path fill="none" stroke="#a0d17b" d="M296.1,-116.37C316.14,-120.07 338.08,-124.13 359.35,-128.07"/>
<polygon fill="#a0d17b" stroke="#a0d17b" points="358.92,-131.55 369.39,-129.93 360.2,-124.67 358.92,-131.55"/>
</g>
<!-- bpy -->
<g id="node24" class="node">
<title>bpy</title>
<polygon fill="#343434" stroke="#343434" points="1070.5,-342 1016.5,-342 1016.5,-306 1070.5,-306 1070.5,-342"/>
<text text-anchor="middle" x="1043.5" y="-320.3" font-family="Courier,monospace" font-size="14.00" fill="#de958e">bpy</text>
</g>
<!-- bpy&#45;&gt;shot_glass.blender.blender_tools -->
<g id="edge37" class="edge">
<title>bpy&#45;&gt;shot_glass.blender.blender_tools</title>
<path fill="none" stroke="#de958e" d="M1070.32,-305.97C1097.79,-287.99 1143.22,-261.56 1187,-251 1294.15,-225.15 1326,-234.61 1435,-251 1476.32,-257.21 1521.33,-271.22 1555.42,-283.41"/>
<polygon fill="#de958e" stroke="#de958e" points="1554.59,-286.83 1565.18,-286.96 1556.98,-280.25 1554.59,-286.83"/>
</g>
<!-- bpy&#45;&gt;shot_glass.hifive.validators -->
<g id="edge38" class="edge">
<title>bpy&#45;&gt;shot_glass.hifive.validators</title>
<path fill="none" stroke="#de958e" d="M1070.92,-328.19C1093.42,-332.6 1125.98,-341.05 1151,-356 1170.42,-367.61 1167.36,-380.76 1187,-392 1193.8,-395.89 1201.08,-399.32 1208.57,-402.34"/>
<polygon fill="#de958e" stroke="#de958e" points="1207.57,-405.7 1218.16,-405.95 1210.04,-399.15 1207.57,-405.7"/>
</g>
<!-- pandas -->
<g id="node25" class="node">
<title>pandas</title>
<polygon fill="#343434" stroke="#343434" points="501,-643 435,-643 435,-607 501,-607 501,-643"/>
<text text-anchor="middle" x="468" y="-621.3" font-family="Courier,monospace" font-size="14.00" fill="#de958e">pandas</text>
</g>
<!-- pandas&#45;&gt;shot_glass.blender.blender_tools -->
<g id="edge39" class="edge">
<title>pandas&#45;&gt;shot_glass.blender.blender_tools</title>
<path fill="none" stroke="#de958e" d="M501.22,-625.94C628.11,-628.29 1102.65,-624.46 1435,-451 1496.15,-419.08 1555.27,-363.08 1586.86,-330.49"/>
<polygon fill="#de958e" stroke="#de958e" points="1589.52,-332.78 1593.91,-323.13 1584.47,-327.93 1589.52,-332.78"/>
</g>
<!-- pandas&#45;&gt;shot_glass.hifive.hifive -->
<g id="edge40" class="edge">
<title>pandas&#45;&gt;shot_glass.hifive.hifive</title>
<path fill="none" stroke="#de958e" d="M501.17,-623.4C573.92,-619.04 755.95,-603.93 900,-557 937.56,-544.76 977.34,-523.61 1005.29,-507.22"/>
<polygon fill="#de958e" stroke="#de958e" points="1007.13,-510.2 1013.93,-502.08 1003.55,-504.18 1007.13,-510.2"/>
</g>
<!-- pandas&#45;&gt;shot_glass.hifive.hifive_tools -->
<g id="edge41" class="edge">
<title>pandas&#45;&gt;shot_glass.hifive.hifive_tools</title>
<path fill="none" stroke="#de958e" d="M501.17,-614.74C548.67,-599.6 638.63,-570.92 700.64,-551.15"/>
<polygon fill="#de958e" stroke="#de958e" points="701.88,-554.43 710.34,-548.06 699.75,-547.76 701.88,-554.43"/>
</g>
<!-- pandas&#45;&gt;shot_glass.hifive.operators -->
<g id="edge42" class="edge">
<title>pandas&#45;&gt;shot_glass.hifive.operators</title>
<path fill="none" stroke="#de958e" d="M501.19,-631.23C588.13,-647.5 835.08,-690 1042.5,-690 1042.5,-690 1042.5,-690 1312,-690 1519.93,-690 1571.88,-634.88 1752,-531 1802.73,-501.74 1853.05,-455.3 1881.89,-426.57"/>
<polygon fill="#de958e" stroke="#de958e" points="1884.53,-428.88 1889.09,-419.32 1879.56,-423.95 1884.53,-428.88"/>
</g>
<!-- pandas&#45;&gt;shot_glass.obj.obj_tools -->
<g id="edge43" class="edge">
<title>pandas&#45;&gt;shot_glass.obj.obj_tools</title>
<path fill="none" stroke="#de958e" d="M501.16,-625.08C529.36,-626.59 570.37,-632.4 600,-652 623.45,-667.5 612.84,-688.07 636,-704 641.32,-707.66 647.01,-710.9 652.93,-713.77"/>
<polygon fill="#de958e" stroke="#de958e" points="651.85,-717.12 662.41,-717.98 654.69,-710.72 651.85,-717.12"/>
</g>
<!-- mathutils -->
<g id="node26" class="node">
<title>mathutils</title>
<polygon fill="#343434" stroke="#343434" points="1356.5,-296 1265.5,-296 1265.5,-260 1356.5,-260 1356.5,-296"/>
<text text-anchor="middle" x="1311" y="-274.3" font-family="Courier,monospace" font-size="14.00" fill="#de958e">mathutils</text>
</g>
<!-- mathutils&#45;&gt;shot_glass.blender.blender_tools -->
<g id="edge44" class="edge">
<title>mathutils&#45;&gt;shot_glass.blender.blender_tools</title>
<path fill="none" stroke="#de958e" d="M1356.69,-282.04C1384.76,-284.58 1422.74,-288.02 1460.76,-291.46"/>
<polygon fill="#de958e" stroke="#de958e" points="1460.68,-294.96 1470.95,-292.38 1461.31,-287.99 1460.68,-294.96"/>
</g>
<!-- lunchbox.tools -->
<g id="node27" class="node">
<title>lunchbox.tools</title>
<polygon fill="#343434" stroke="#343434" points="1377,-128 1245,-128 1245,-92 1377,-92 1377,-128"/>
<text text-anchor="middle" x="1311" y="-106.3" font-family="Courier,monospace" font-size="14.00" fill="#de958e">lunchbox.tools</text>
</g>
<!-- lunchbox.tools&#45;&gt;shot_glass.blender.blender_tools -->
<g id="edge45" class="edge">
<title>lunchbox.tools&#45;&gt;shot_glass.blender.blender_tools</title>
<path fill="none" stroke="#de958e" d="M1345.96,-128.11C1370.96,-141.74 1405.59,-161.23 1435,-180 1486.45,-212.84 1543.61,-254.6 1578.3,-280.57"/>
<polygon fill="#de958e" stroke="#de958e" points="1576.52,-283.61 1586.62,-286.81 1580.73,-278.01 1576.52,-283.61"/>
</g>
<!-- lunchbox.tools&#45;&gt;shot_glass.hifive.operator_tools -->
<g id="edge46" class="edge">
<title>lunchbox.tools&#45;&gt;shot_glass.hifive.operator_tools</title>
<path fill="none" stroke="#de958e" d="M1377.14,-100.4C1406.8,-96.03 1443.05,-90.68 1478.05,-85.52"/>
<polygon fill="#de958e" stroke="#de958e" points="1478.99,-88.92 1488.37,-84 1477.97,-82 1478.99,-88.92"/>
</g>
<!-- lunchbox.tools&#45;&gt;shot_glass.hifive.operators -->
<g id="edge47" class="edge">
<title>lunchbox.tools&#45;&gt;shot_glass.hifive.operators</title>
<path fill="none" stroke="#de958e" d="M1377.38,-107.53C1484.37,-104.66 1691.05,-104.4 1752,-142 1838.86,-195.59 1883.02,-317.74 1899.15,-372.97"/>
<polygon fill="#de958e" stroke="#de958e" points="1895.83,-374.11 1901.92,-382.78 1902.57,-372.2 1895.83,-374.11"/>
</g>
<!-- plotly -->
<g id="node28" class="node">
<title>plotly</title>
<polygon fill="#343434" stroke="#343434" points="250.5,-174 184.5,-174 184.5,-138 250.5,-138 250.5,-174"/>
<text text-anchor="middle" x="217.5" y="-152.3" font-family="Courier,monospace" font-size="14.00" fill="#de958e">plotly</text>
</g>
<!-- plotly&#45;&gt;shot_glass.plotly.plotly_tools -->
<g id="edge48" class="edge">
<title>plotly&#45;&gt;shot_glass.plotly.plotly_tools</title>
<path fill="none" stroke="#de958e" d="M250.73,-154.96C270.59,-154.32 297.57,-153.45 325.74,-152.55"/>
<polygon fill="#de958e" stroke="#de958e" points="325.86,-156.05 335.75,-152.23 325.64,-149.05 325.86,-156.05"/>
</g>
<!-- shot_glass.obj&#45;&gt;shot_glass.obj.obj_parser -->
<g id="edge49" class="edge">
<title>shot_glass.obj&#45;&gt;shot_glass.obj.obj_parser</title>
<path fill="none" stroke="#a0d17b" d="M283.79,-693.01C302.91,-691.55 324.45,-689.9 345.87,-688.26"/>
<polygon fill="#a0d17b" stroke="#a0d17b" points="346.32,-691.74 356.03,-687.48 345.79,-684.76 346.32,-691.74"/>
</g>
<!-- shot_glass.obj&#45;&gt;shot_glass.obj.obj_tools -->
<g id="edge50" class="edge">
<title>shot_glass.obj&#45;&gt;shot_glass.obj.obj_tools</title>
<path fill="none" stroke="#a0d17b" d="M283.57,-702.51C373.77,-708.76 538.27,-720.15 650.07,-727.9"/>
<polygon fill="#a0d17b" stroke="#a0d17b" points="650.16,-731.41 660.38,-728.61 650.64,-724.43 650.16,-731.41"/>
</g>
<!-- wrapt -->
<g id="node30" class="node">
<title>wrapt</title>
<polygon fill="#343434" stroke="#343434" points="1340,-36 1282,-36 1282,0 1340,0 1340,-36"/>
<text text-anchor="middle" x="1311" y="-14.3" font-family="Courier,monospace" font-size="14.00" fill="#de958e">wrapt</text>
</g>
<!-- wrapt&#45;&gt;shot_glass.hifive.operator_tools -->
<g id="edge51" class="edge">
<title>wrapt&#45;&gt;shot_glass.hifive.operator_tools</title>
<path fill="none" stroke="#de958e" d="M1340.08,-22.52C1374.1,-27.99 1433.65,-37.56 1488.23,-46.34"/>
<polygon fill="#de958e" stroke="#de958e" points="1487.92,-49.83 1498.35,-47.97 1489.04,-42.92 1487.92,-49.83"/>
</g>
<!-- lunchbox.stopwatch -->
<g id="node31" class="node">
<title>lunchbox.stopwatch</title>
<polygon fill="#343434" stroke="#343434" points="300,-608 135,-608 135,-572 300,-572 300,-608"/>
<text text-anchor="middle" x="217.5" y="-586.3" font-family="Courier,monospace" font-size="14.00" fill="#de958e">lunchbox.stopwatch</text>
</g>
<!-- lunchbox.stopwatch&#45;&gt;shot_glass.obj.obj_parser -->
<g id="edge52" class="edge">
<title>lunchbox.stopwatch&#45;&gt;shot_glass.obj.obj_parser</title>
<path fill="none" stroke="#de958e" d="M282.5,-608.06C288.58,-610.7 294.52,-613.67 300,-617 319.08,-628.58 316.28,-641.55 336,-652 339.53,-653.87 343.19,-655.62 346.92,-657.24"/>
<polygon fill="#de958e" stroke="#de958e" points="345.79,-660.55 356.37,-661.03 348.39,-654.06 345.79,-660.55"/>
</g>
<!-- pyparsing -->
<g id="node32" class="node">
<title>pyparsing</title>
<polygon fill="#343434" stroke="#343434" points="263,-662 172,-662 172,-626 263,-626 263,-662"/>
<text text-anchor="middle" x="217.5" y="-640.3" font-family="Courier,monospace" font-size="14.00" fill="#de958e">pyparsing</text>
</g>
<!-- pyparsing&#45;&gt;shot_glass.obj.obj_parser -->
<g id="edge53" class="edge">
<title>pyparsing&#45;&gt;shot_glass.obj.obj_parser</title>
<path fill="none" stroke="#de958e" d="M263.21,-650.3C286.69,-653.6 316.7,-657.83 346.43,-662.02"/>
<polygon fill="#de958e" stroke="#de958e" points="346.11,-665.51 356.5,-663.44 347.08,-658.58 346.11,-665.51"/>
</g>
</g>
</svg>
