<?xml version="1.0" encoding="UTF-8" standalone="no"?>
<!DOCTYPE svg PUBLIC "-//W3C//DTD SVG 1.1//EN"
 "http://www.w3.org/Graphics/SVG/1.1/DTD/svg11.dtd">
<!-- Generated by graphviz version 2.43.0 (0)
 -->
<!-- Title: %3 Pages: 1 -->
<svg width="2035pt" height="870pt"
 viewBox="0.00 0.00 2035.00 870.00" xmlns="http://www.w3.org/2000/svg" xmlns:xlink="http://www.w3.org/1999/xlink">
<g id="graph0" class="graph" transform="scale(1 1) rotate(0) translate(4 866)">
<title>%3</title>
<polygon fill="#242424" stroke="transparent" points="-4,4 -4,-866 2031,-866 2031,4 -4,4"/>
<!-- cli -->
<g id="node1" class="node">
<title>cli</title>
<polygon fill="#343434" stroke="#343434" points="76.5,-511 22.5,-511 22.5,-475 76.5,-475 76.5,-511"/>
<text text-anchor="middle" x="49.5" y="-489.3" font-family="Courier,monospace" font-size="14.00" fill="#b6ecf3">cli</text>
</g>
<!-- shot_glass.blender.blender_tools -->
<g id="node2" class="node">
<title>shot_glass.blender.blender_tools</title>
<polygon fill="#343434" stroke="#343434" points="1752,-313 1471,-313 1471,-277 1752,-277 1752,-313"/>
<text text-anchor="middle" x="1611.5" y="-291.3" font-family="Courier,monospace" font-size="14.00" fill="#b6ecf3">shot_glass.blender.blender_tools</text>
</g>
<!-- shot_glass.hifive.operators -->
<g id="node10" class="node">
<title>shot_glass.hifive.operators</title>
<polygon fill="#343434" stroke="#343434" points="2027,-457 1788,-457 1788,-421 2027,-421 2027,-457"/>
<text text-anchor="middle" x="1907.5" y="-435.3" font-family="Courier,monospace" font-size="14.00" fill="#b6ecf3">shot_glass.hifive.operators</text>
</g>
<!-- shot_glass.blender.blender_tools&#45;&gt;shot_glass.hifive.operators -->
<g id="edge1" class="edge">
<title>shot_glass.blender.blender_tools&#45;&gt;shot_glass.hifive.operators</title>
<path fill="none" stroke="#b6ecf3" d="M1649.44,-313.09C1703.02,-339.33 1802.24,-387.93 1860.5,-416.47"/>
<polygon fill="#b6ecf3" stroke="#b6ecf3" points="1858.96,-419.61 1869.48,-420.87 1862.04,-413.33 1858.96,-419.61"/>
</g>
<!-- shot_glass.command -->
<g id="node3" class="node">
<title>shot_glass.command</title>
<polygon fill="#343434" stroke="#343434" points="300,-862 135,-862 135,-826 300,-826 300,-862"/>
<text text-anchor="middle" x="217.5" y="-840.3" font-family="Courier,monospace" font-size="14.00" fill="#b6ecf3">shot_glass.command</text>
</g>
<!-- shot_glass.core.basic -->
<g id="node4" class="node">
<title>shot_glass.core.basic</title>
<polygon fill="#343434" stroke="#343434" points="863,-539 673,-539 673,-503 863,-503 863,-539"/>
<text text-anchor="middle" x="768" y="-517.3" font-family="Courier,monospace" font-size="14.00" fill="#b6ecf3">shot_glass.core.basic</text>
</g>
<!-- shot_glass.core.monad -->
<g id="node5" class="node">
<title>shot_glass.core.monad</title>
<polygon fill="#343434" stroke="#343434" points="563,-516 373,-516 373,-480 563,-480 563,-516"/>
<text text-anchor="middle" x="468" y="-494.3" font-family="Courier,monospace" font-size="14.00" fill="#b6ecf3">shot_glass.core.monad</text>
</g>
<!-- shot_glass.core.monad&#45;&gt;shot_glass.core.basic -->
<g id="edge2" class="edge">
<title>shot_glass.core.monad&#45;&gt;shot_glass.core.basic</title>
<path fill="none" stroke="#b6ecf3" d="M563.29,-505.28C594.83,-507.71 630.17,-510.44 662.45,-512.93"/>
<polygon fill="#b6ecf3" stroke="#b6ecf3" points="662.57,-516.45 672.81,-513.73 663.11,-509.47 662.57,-516.45"/>
</g>
<!-- shot_glass.core.tools -->
<g id="node6" class="node">
<title>shot_glass.core.tools</title>
<polygon fill="#343434" stroke="#343434" points="563,-412 373,-412 373,-376 563,-376 563,-412"/>
<text text-anchor="middle" x="468" y="-390.3" font-family="Courier,monospace" font-size="14.00" fill="#b6ecf3">shot_glass.core.tools</text>
</g>
<!-- shot_glass.hifive.hifive -->
<g id="node7" class="node">
<title>shot_glass.hifive.hifive</title>
<polygon fill="#343434" stroke="#343434" points="1151,-447 936,-447 936,-411 1151,-411 1151,-447"/>
<text text-anchor="middle" x="1043.5" y="-425.3" font-family="Courier,monospace" font-size="14.00" fill="#b6ecf3">shot_glass.hifive.hifive</text>
</g>
<!-- shot_glass.core.tools&#45;&gt;shot_glass.hifive.hifive -->
<g id="edge3" class="edge">
<title>shot_glass.core.tools&#45;&gt;shot_glass.hifive.hifive</title>
<path fill="none" stroke="#b6ecf3" d="M539.88,-412.09C559.71,-418.1 581.02,-425.47 600,-434 617.1,-441.69 617.95,-450.92 636,-456 747.39,-487.34 882.42,-467.6 965.39,-449.26"/>
<polygon fill="#b6ecf3" stroke="#b6ecf3" points="966.26,-452.65 975.24,-447.04 964.72,-445.83 966.26,-452.65"/>
</g>
<!-- shot_glass.hifive.hifive_tools -->
<g id="node8" class="node">
<title>shot_glass.hifive.hifive_tools</title>
<polygon fill="#343434" stroke="#343434" points="900,-447 636,-447 636,-411 900,-411 900,-447"/>
<text text-anchor="middle" x="768" y="-425.3" font-family="Courier,monospace" font-size="14.00" fill="#b6ecf3">shot_glass.hifive.hifive_tools</text>
</g>
<!-- shot_glass.core.tools&#45;&gt;shot_glass.hifive.hifive_tools -->
<g id="edge4" class="edge">
<title>shot_glass.core.tools&#45;&gt;shot_glass.hifive.hifive_tools</title>
<path fill="none" stroke="#b6ecf3" d="M563.29,-405.07C583.16,-407.41 604.54,-409.92 625.71,-412.41"/>
<polygon fill="#b6ecf3" stroke="#b6ecf3" points="625.41,-415.89 635.75,-413.58 626.23,-408.94 625.41,-415.89"/>
</g>
<!-- shot_glass.core.tools&#45;&gt;shot_glass.hifive.operators -->
<g id="edge5" class="edge">
<title>shot_glass.core.tools&#45;&gt;shot_glass.hifive.operators</title>
<path fill="none" stroke="#b6ecf3" d="M520.53,-375.94C553.16,-365.47 596.51,-353.34 636,-348 752.28,-332.28 783.19,-336.91 900,-348 1029.3,-360.28 1058.16,-386.64 1187,-403 1312.47,-418.93 1344.7,-414.39 1471,-421 1574.04,-426.39 1690.86,-431.15 1777.55,-434.41"/>
<polygon fill="#b6ecf3" stroke="#b6ecf3" points="1777.58,-437.92 1787.71,-434.8 1777.85,-430.92 1777.58,-437.92"/>
</g>
<!-- shot_glass.hifive.type_base -->
<g id="node11" class="node">
<title>shot_glass.hifive.type_base</title>
<polygon fill="#343434" stroke="#343434" points="887.5,-393 648.5,-393 648.5,-357 887.5,-357 887.5,-393"/>
<text text-anchor="middle" x="768" y="-371.3" font-family="Courier,monospace" font-size="14.00" fill="#b6ecf3">shot_glass.hifive.type_base</text>
</g>
<!-- shot_glass.core.tools&#45;&gt;shot_glass.hifive.type_base -->
<g id="edge6" class="edge">
<title>shot_glass.core.tools&#45;&gt;shot_glass.hifive.type_base</title>
<path fill="none" stroke="#b6ecf3" d="M563.29,-387.99C587.15,-386.47 613.18,-384.81 638.42,-383.2"/>
<polygon fill="#b6ecf3" stroke="#b6ecf3" points="638.66,-386.69 648.42,-382.56 638.22,-379.7 638.66,-386.69"/>
</g>
<!-- shot_glass.hifive.validators -->
<g id="node12" class="node">
<title>shot_glass.hifive.validators</title>
<polygon fill="#343434" stroke="#343434" points="1435,-394 1187,-394 1187,-358 1435,-358 1435,-394"/>
<text text-anchor="middle" x="1311" y="-372.3" font-family="Courier,monospace" font-size="14.00" fill="#b6ecf3">shot_glass.hifive.validators</text>
</g>
<!-- shot_glass.core.tools&#45;&gt;shot_glass.hifive.validators -->
<g id="edge7" class="edge">
<title>shot_glass.core.tools&#45;&gt;shot_glass.hifive.validators</title>
<path fill="none" stroke="#b6ecf3" d="M497.15,-375.9C529.26,-356.42 584.05,-326.67 636,-315 859.63,-264.77 924.68,-305.73 1151,-342 1158.36,-343.18 1186.69,-349.17 1217.44,-355.8"/>
<polygon fill="#b6ecf3" stroke="#b6ecf3" points="1216.97,-359.28 1227.49,-357.97 1218.45,-352.44 1216.97,-359.28"/>
</g>
<!-- shot_glass.hifive.hifive&#45;&gt;shot_glass.hifive.operators -->
<g id="edge8" class="edge">
<title>shot_glass.hifive.hifive&#45;&gt;shot_glass.hifive.operators</title>
<path fill="none" stroke="#b6ecf3" d="M1089.22,-447.01C1116.88,-457.16 1153.41,-468.82 1187,-474 1435.18,-512.26 1502.45,-501.91 1752,-474 1778.3,-471.06 1806.66,-465.38 1831.81,-459.44"/>
<polygon fill="#b6ecf3" stroke="#b6ecf3" points="1832.75,-462.82 1841.65,-457.07 1831.1,-456.01 1832.75,-462.82"/>
</g>
<!-- shot_glass.hifive.hifive&#45;&gt;shot_glass.hifive.validators -->
<g id="edge9" class="edge">
<title>shot_glass.hifive.hifive&#45;&gt;shot_glass.hifive.validators</title>
<path fill="none" stroke="#b6ecf3" d="M1134.76,-410.98C1158.8,-406.18 1184.93,-400.97 1209.49,-396.06"/>
<polygon fill="#b6ecf3" stroke="#b6ecf3" points="1210.42,-399.45 1219.54,-394.06 1209.05,-392.58 1210.42,-399.45"/>
</g>
<!-- shot_glass.hifive.hifive_tools&#45;&gt;shot_glass.hifive.hifive -->
<g id="edge10" class="edge">
<title>shot_glass.hifive.hifive_tools&#45;&gt;shot_glass.hifive.hifive</title>
<path fill="none" stroke="#b6ecf3" d="M900.14,-429C908.62,-429 917.13,-429 925.54,-429"/>
<polygon fill="#b6ecf3" stroke="#b6ecf3" points="925.73,-432.5 935.73,-429 925.73,-425.5 925.73,-432.5"/>
</g>
<!-- shot_glass.hifive.operator_tools -->
<g id="node9" class="node">
<title>shot_glass.hifive.operator_tools</title>
<polygon fill="#343434" stroke="#343434" points="1752,-133 1471,-133 1471,-97 1752,-97 1752,-133"/>
<text text-anchor="middle" x="1611.5" y="-111.3" font-family="Courier,monospace" font-size="14.00" fill="#b6ecf3">shot_glass.hifive.operator_tools</text>
</g>
<!-- shot_glass.hifive.operator_tools&#45;&gt;shot_glass.hifive.operators -->
<g id="edge11" class="edge">
<title>shot_glass.hifive.operator_tools&#45;&gt;shot_glass.hifive.operators</title>
<path fill="none" stroke="#b6ecf3" d="M1650.84,-133.07C1680.77,-148.47 1722.14,-172.73 1752,-202 1817.99,-266.68 1870.42,-364.28 1893.59,-411.49"/>
<polygon fill="#b6ecf3" stroke="#b6ecf3" points="1890.58,-413.29 1898.08,-420.77 1896.88,-410.24 1890.58,-413.29"/>
</g>
<!-- shot_glass.hifive.type_base&#45;&gt;shot_glass.hifive.hifive -->
<g id="edge12" class="edge">
<title>shot_glass.hifive.type_base&#45;&gt;shot_glass.hifive.hifive</title>
<path fill="none" stroke="#b6ecf3" d="M860.45,-393.06C886.34,-398.17 914.67,-403.76 941.1,-408.98"/>
<polygon fill="#b6ecf3" stroke="#b6ecf3" points="940.65,-412.46 951.13,-410.96 942,-405.59 940.65,-412.46"/>
</g>
<!-- shot_glass.hifive.validators&#45;&gt;shot_glass.blender.blender_tools -->
<g id="edge13" class="edge">
<title>shot_glass.hifive.validators&#45;&gt;shot_glass.blender.blender_tools</title>
<path fill="none" stroke="#b6ecf3" d="M1398.57,-357.94C1410.84,-355.11 1423.27,-352.09 1435,-349 1472.18,-339.22 1513.28,-326.67 1546.35,-316.13"/>
<polygon fill="#b6ecf3" stroke="#b6ecf3" points="1547.44,-319.46 1555.9,-313.07 1545.3,-312.79 1547.44,-319.46"/>
</g>
<!-- shot_glass.hifive.validators&#45;&gt;shot_glass.hifive.operators -->
<g id="edge14" class="edge">
<title>shot_glass.hifive.validators&#45;&gt;shot_glass.hifive.operators</title>
<path fill="none" stroke="#b6ecf3" d="M1435.18,-389.05C1535.32,-399.67 1676.16,-414.59 1777.77,-425.36"/>
<polygon fill="#b6ecf3" stroke="#b6ecf3" points="1777.47,-428.85 1787.79,-426.42 1778.21,-421.89 1777.47,-428.85"/>
</g>
<!-- shot_glass.obj.obj_parser -->
<g id="node13" class="node">
<title>shot_glass.obj.obj_parser</title>
<polygon fill="#343434" stroke="#343434" points="579.5,-655 356.5,-655 356.5,-619 579.5,-619 579.5,-655"/>
<text text-anchor="middle" x="468" y="-633.3" font-family="Courier,monospace" font-size="14.00" fill="#b6ecf3">shot_glass.obj.obj_parser</text>
</g>
<!-- shot_glass.obj.obj_tools -->
<g id="node14" class="node">
<title>shot_glass.obj.obj_tools</title>
<polygon fill="#343434" stroke="#343434" points="875.5,-707 660.5,-707 660.5,-671 875.5,-671 875.5,-707"/>
<text text-anchor="middle" x="768" y="-685.3" font-family="Courier,monospace" font-size="14.00" fill="#b6ecf3">shot_glass.obj.obj_tools</text>
</g>
<!-- shot_glass.obj.obj_parser&#45;&gt;shot_glass.obj.obj_tools -->
<g id="edge15" class="edge">
<title>shot_glass.obj.obj_parser&#45;&gt;shot_glass.obj.obj_tools</title>
<path fill="none" stroke="#b6ecf3" d="M572.39,-655.04C598.62,-659.62 626.95,-664.56 653.65,-669.22"/>
<polygon fill="#b6ecf3" stroke="#b6ecf3" points="653.34,-672.72 663.79,-670.99 654.54,-665.82 653.34,-672.72"/>
</g>
<!-- shot_glass.obj.obj_tools&#45;&gt;shot_glass.hifive.operators -->
<g id="edge16" class="edge">
<title>shot_glass.obj.obj_tools&#45;&gt;shot_glass.hifive.operators</title>
<path fill="none" stroke="#b6ecf3" d="M875.85,-697.23C1098.42,-712.51 1603.4,-736.91 1752,-657 1829.62,-615.26 1877.12,-515.41 1896.46,-466.69"/>
<polygon fill="#b6ecf3" stroke="#b6ecf3" points="1899.82,-467.69 1900.16,-457.1 1893.29,-465.17 1899.82,-467.69"/>
</g>
<!-- shot_glass.plotly.plotly_tools -->
<g id="node15" class="node">
<title>shot_glass.plotly.plotly_tools</title>
<polygon fill="#343434" stroke="#343434" points="600,-754 336,-754 336,-718 600,-718 600,-754"/>
<text text-anchor="middle" x="468" y="-732.3" font-family="Courier,monospace" font-size="14.00" fill="#b6ecf3">shot_glass.plotly.plotly_tools</text>
</g>
<!-- shot_glass.plotly.plotly_tools&#45;&gt;shot_glass.hifive.operators -->
<g id="edge17" class="edge">
<title>shot_glass.plotly.plotly_tools&#45;&gt;shot_glass.hifive.operators</title>
<path fill="none" stroke="#b6ecf3" d="M600.26,-735.64C716.5,-735.35 890.79,-735 1042.5,-735 1042.5,-735 1042.5,-735 1312,-735 1508.32,-735 1585.56,-800.11 1752,-696 1838.04,-642.18 1882.63,-521.31 1899.01,-466.71"/>
<polygon fill="#b6ecf3" stroke="#b6ecf3" points="1902.4,-467.59 1901.83,-457.01 1895.67,-465.63 1902.4,-467.59"/>
</g>
<!-- click -->
<g id="node16" class="node">
<title>click</title>
<polygon fill="#343434" stroke="#343434" points="78.5,-862 20.5,-862 20.5,-826 78.5,-826 78.5,-862"/>
<text text-anchor="middle" x="49.5" y="-840.3" font-family="Courier,monospace" font-size="14.00" fill="#de958e">click</text>
</g>
<!-- click&#45;&gt;shot_glass.command -->
<g id="edge18" class="edge">
<title>click&#45;&gt;shot_glass.command</title>
<path fill="none" stroke="#de958e" d="M78.66,-844C91.61,-844 107.77,-844 124.43,-844"/>
<polygon fill="#de958e" stroke="#de958e" points="124.85,-847.5 134.85,-844 124.85,-840.5 124.85,-847.5"/>
</g>
<!-- shot_glass.hifive -->
<g id="node17" class="node">
<title>shot_glass.hifive</title>
<polygon fill="#343434" stroke="#343434" points="546.5,-271 389.5,-271 389.5,-235 546.5,-235 546.5,-271"/>
<text text-anchor="middle" x="468" y="-249.3" font-family="Courier,monospace" font-size="14.00" fill="#a0d17b">shot_glass.hifive</text>
</g>
<!-- shot_glass.hifive&#45;&gt;shot_glass.hifive.hifive -->
<g id="edge19" class="edge">
<title>shot_glass.hifive&#45;&gt;shot_glass.hifive.hifive</title>
<path fill="none" stroke="#a0d17b" d="M546.54,-262.93C634.42,-275.81 780.92,-302.23 900,-348 938.83,-362.92 979.78,-387.21 1007.76,-405.31"/>
<polygon fill="#a0d17b" stroke="#a0d17b" points="1006.09,-408.4 1016.38,-410.95 1009.93,-402.54 1006.09,-408.4"/>
</g>
<!-- shot_glass.hifive&#45;&gt;shot_glass.hifive.hifive_tools -->
<g id="edge20" class="edge">
<title>shot_glass.hifive&#45;&gt;shot_glass.hifive.hifive_tools</title>
<path fill="none" stroke="#a0d17b" d="M490.65,-271.2C516.89,-293.41 562.28,-332.3 600,-367 616.42,-382.11 616.28,-391.55 636,-402 639.48,-403.84 643.07,-405.56 646.75,-407.16"/>
<polygon fill="#a0d17b" stroke="#a0d17b" points="645.45,-410.41 656.04,-410.9 648.07,-403.92 645.45,-410.41"/>
</g>
<!-- shot_glass.hifive&#45;&gt;shot_glass.hifive.operator_tools -->
<g id="edge21" class="edge">
<title>shot_glass.hifive&#45;&gt;shot_glass.hifive.operator_tools</title>
<path fill="none" stroke="#a0d17b" d="M521.44,-234.92C607.04,-206.28 782.61,-151.16 936,-126 1154.95,-90.08 1213.14,-108.47 1435,-111 1443.32,-111.09 1451.87,-111.21 1460.49,-111.35"/>
<polygon fill="#a0d17b" stroke="#a0d17b" points="1460.59,-114.86 1470.65,-111.53 1460.71,-107.86 1460.59,-114.86"/>
</g>
<!-- shot_glass.hifive&#45;&gt;shot_glass.hifive.operators -->
<g id="edge22" class="edge">
<title>shot_glass.hifive&#45;&gt;shot_glass.hifive.operators</title>
<path fill="none" stroke="#a0d17b" d="M488.62,-234.97C518.42,-208.43 577.81,-158.78 636,-129 804.74,-42.65 852.95,0 1042.5,0 1042.5,0 1042.5,0 1312,0 1426.39,0 1727.96,-68.35 1752,-88 1856.26,-173.21 1892.21,-342.85 1902.71,-410.34"/>
<polygon fill="#a0d17b" stroke="#a0d17b" points="1899.31,-411.25 1904.24,-420.63 1906.24,-410.22 1899.31,-411.25"/>
</g>
<!-- shot_glass.hifive&#45;&gt;shot_glass.hifive.type_base -->
<g id="edge23" class="edge">
<title>shot_glass.hifive&#45;&gt;shot_glass.hifive.type_base</title>
<path fill="none" stroke="#a0d17b" d="M512.97,-271C566.34,-292.85 656.29,-329.68 713.59,-353.14"/>
<polygon fill="#a0d17b" stroke="#a0d17b" points="712.27,-356.37 722.85,-356.92 714.92,-349.9 712.27,-356.37"/>
</g>
<!-- shot_glass.hifive&#45;&gt;shot_glass.hifive.validators -->
<g id="edge24" class="edge">
<title>shot_glass.hifive&#45;&gt;shot_glass.hifive.validators</title>
<path fill="none" stroke="#a0d17b" d="M546.67,-249.63C703.25,-244.19 1050.4,-239.37 1151,-298 1174.97,-311.97 1163.89,-333.65 1187,-349 1189.31,-350.53 1191.69,-351.98 1194.14,-353.35"/>
<polygon fill="#a0d17b" stroke="#a0d17b" points="1192.73,-356.56 1203.23,-357.96 1195.89,-350.31 1192.73,-356.56"/>
</g>
<!-- shot_glass.core -->
<g id="node18" class="node">
<title>shot_glass.core</title>
<polygon fill="#343434" stroke="#343434" points="287.5,-430 147.5,-430 147.5,-394 287.5,-394 287.5,-430"/>
<text text-anchor="middle" x="217.5" y="-408.3" font-family="Courier,monospace" font-size="14.00" fill="#a0d17b">shot_glass.core</text>
</g>
<!-- shot_glass.core&#45;&gt;shot_glass.core.basic -->
<g id="edge25" class="edge">
<title>shot_glass.core&#45;&gt;shot_glass.core.basic</title>
<path fill="none" stroke="#a0d17b" d="M287.61,-419.79C364.45,-429.11 491.97,-446.6 600,-471 634.63,-478.82 672.59,-489.97 703.55,-499.76"/>
<polygon fill="#a0d17b" stroke="#a0d17b" points="702.76,-503.18 713.35,-502.89 704.88,-496.51 702.76,-503.18"/>
</g>
<!-- shot_glass.core&#45;&gt;shot_glass.core.monad -->
<g id="edge26" class="edge">
<title>shot_glass.core&#45;&gt;shot_glass.core.monad</title>
<path fill="none" stroke="#a0d17b" d="M278.82,-430.09C286.06,-432.82 293.27,-435.8 300,-439 317.14,-447.16 318.65,-454.29 336,-462 348.87,-467.72 362.87,-472.73 376.76,-477.05"/>
<polygon fill="#a0d17b" stroke="#a0d17b" points="375.76,-480.41 386.35,-479.94 377.78,-473.71 375.76,-480.41"/>
</g>
<!-- shot_glass.core&#45;&gt;shot_glass.core.tools -->
<g id="edge27" class="edge">
<title>shot_glass.core&#45;&gt;shot_glass.core.tools</title>
<path fill="none" stroke="#a0d17b" d="M287.72,-406.99C310.92,-405.31 337.33,-403.39 362.61,-401.56"/>
<polygon fill="#a0d17b" stroke="#a0d17b" points="362.89,-405.05 372.61,-400.84 362.39,-398.07 362.89,-405.05"/>
</g>
<!-- shot_glass -->
<g id="node19" class="node">
<title>shot_glass</title>
<polygon fill="#343434" stroke="#343434" points="99,-565 0,-565 0,-529 99,-529 99,-565"/>
<text text-anchor="middle" x="49.5" y="-543.3" font-family="Courier,monospace" font-size="14.00" fill="#a0d17b">shot_glass</text>
</g>
<!-- shot_glass&#45;&gt;shot_glass.command -->
<g id="edge28" class="edge">
<title>shot_glass&#45;&gt;shot_glass.command</title>
<path fill="none" stroke="#a0d17b" d="M50.78,-565.27C52.51,-613.35 63.88,-744.69 135,-817 135.94,-817.96 136.92,-818.88 137.92,-819.77"/>
<polygon fill="#a0d17b" stroke="#a0d17b" points="136.09,-822.77 146.18,-825.97 140.29,-817.17 136.09,-822.77"/>
</g>
<!-- shot_glass&#45;&gt;shot_glass.hifive -->
<g id="edge29" class="edge">
<title>shot_glass&#45;&gt;shot_glass.hifive</title>
<path fill="none" stroke="#a0d17b" d="M90.3,-528.64C93.54,-526.07 96.51,-523.19 99,-520 137.16,-471.01 93.75,-431.42 135,-385 197.99,-314.11 304.16,-280.82 379.46,-265.49"/>
<polygon fill="#a0d17b" stroke="#a0d17b" points="380.27,-268.9 389.41,-263.54 378.92,-262.03 380.27,-268.9"/>
</g>
<!-- shot_glass&#45;&gt;shot_glass.core -->
<g id="edge30" class="edge">
<title>shot_glass&#45;&gt;shot_glass.core</title>
<path fill="none" stroke="#a0d17b" d="M88.83,-528.91C92.53,-526.24 96.01,-523.27 99,-520 125.58,-490.92 105.81,-465.45 135,-439 136.29,-437.83 137.63,-436.71 139.02,-435.64"/>
<polygon fill="#a0d17b" stroke="#a0d17b" points="141.05,-438.5 147.4,-430.02 137.15,-432.68 141.05,-438.5"/>
</g>
<!-- shot_glass.blender -->
<g id="node21" class="node">
<title>shot_glass.blender</title>
<polygon fill="#343434" stroke="#343434" points="1126,-171 961,-171 961,-135 1126,-135 1126,-171"/>
<text text-anchor="middle" x="1043.5" y="-149.3" font-family="Courier,monospace" font-size="14.00" fill="#a0d17b">shot_glass.blender</text>
</g>
<!-- shot_glass&#45;&gt;shot_glass.blender -->
<g id="edge31" class="edge">
<title>shot_glass&#45;&gt;shot_glass.blender</title>
<path fill="none" stroke="#a0d17b" d="M90.67,-528.91C93.84,-526.29 96.69,-523.32 99,-520 159.75,-432.48 64.54,-362.92 135,-283 342.36,-47.81 767.98,-97.61 953.15,-133.06"/>
<polygon fill="#a0d17b" stroke="#a0d17b" points="952.64,-136.52 963.13,-135 953.98,-129.65 952.64,-136.52"/>
</g>
<!-- shot_glass.plotly -->
<g id="node26" class="node">
<title>shot_glass.plotly</title>
<polygon fill="#343434" stroke="#343434" points="296,-808 139,-808 139,-772 296,-772 296,-808"/>
<text text-anchor="middle" x="217.5" y="-786.3" font-family="Courier,monospace" font-size="14.00" fill="#a0d17b">shot_glass.plotly</text>
</g>
<!-- shot_glass&#45;&gt;shot_glass.plotly -->
<g id="edge32" class="edge">
<title>shot_glass&#45;&gt;shot_glass.plotly</title>
<path fill="none" stroke="#a0d17b" d="M52.43,-565.22C57.77,-606.42 76.42,-707.44 135,-763 136.12,-764.06 137.27,-765.07 138.47,-766.05"/>
<polygon fill="#a0d17b" stroke="#a0d17b" points="136.64,-769.05 146.84,-771.94 140.67,-763.32 136.64,-769.05"/>
</g>
<!-- shot_glass.obj -->
<g id="node30" class="node">
<title>shot_glass.obj</title>
<polygon fill="#343434" stroke="#343434" points="283.5,-700 151.5,-700 151.5,-664 283.5,-664 283.5,-700"/>
<text text-anchor="middle" x="217.5" y="-678.3" font-family="Courier,monospace" font-size="14.00" fill="#a0d17b">shot_glass.obj</text>
</g>
<!-- shot_glass&#45;&gt;shot_glass.obj -->
<g id="edge33" class="edge">
<title>shot_glass&#45;&gt;shot_glass.obj</title>
<path fill="none" stroke="#a0d17b" d="M60.29,-565.39C73.95,-589.36 100.93,-631.02 135,-655 137.26,-656.59 139.63,-658.1 142.07,-659.52"/>
<polygon fill="#a0d17b" stroke="#a0d17b" points="140.69,-662.75 151.18,-664.3 143.95,-656.55 140.69,-662.75"/>
</g>
<!-- bpy -->
<g id="node20" class="node">
<title>bpy</title>
<polygon fill="#343434" stroke="#343434" points="1070.5,-225 1016.5,-225 1016.5,-189 1070.5,-189 1070.5,-225"/>
<text text-anchor="middle" x="1043.5" y="-203.3" font-family="Courier,monospace" font-size="14.00" fill="#de958e">bpy</text>
</g>
<!-- bpy&#45;&gt;shot_glass.blender.blender_tools -->
<g id="edge34" class="edge">
<title>bpy&#45;&gt;shot_glass.blender.blender_tools</title>
<path fill="none" stroke="#de958e" d="M1070.81,-207.38C1134.13,-208.7 1299.75,-214.61 1435,-241 1474.73,-248.75 1518.22,-262.1 1551.97,-273.58"/>
<polygon fill="#de958e" stroke="#de958e" points="1551.07,-276.97 1561.66,-276.92 1553.35,-270.35 1551.07,-276.97"/>
</g>
<!-- bpy&#45;&gt;shot_glass.hifive.validators -->
<g id="edge35" class="edge">
<title>bpy&#45;&gt;shot_glass.hifive.validators</title>
<path fill="none" stroke="#de958e" d="M1070.69,-208.2C1094.61,-210.68 1129.45,-217.96 1151,-239 1187.81,-274.93 1148.85,-314.49 1187,-349 1188.17,-350.05 1189.36,-351.07 1190.59,-352.05"/>
<polygon fill="#de958e" stroke="#de958e" points="1188.87,-355.12 1199.07,-358 1192.89,-349.39 1188.87,-355.12"/>
</g>
<!-- shot_glass.blender&#45;&gt;shot_glass.blender.blender_tools -->
<g id="edge36" class="edge">
<title>shot_glass.blender&#45;&gt;shot_glass.blender.blender_tools</title>
<path fill="none" stroke="#a0d17b" d="M1126.41,-160.59C1223.72,-170.29 1379.82,-188.22 1435,-208 1452.65,-214.33 1454.48,-221.14 1471,-230 1499.65,-245.36 1532.57,-260.8 1559.24,-272.78"/>
<polygon fill="#a0d17b" stroke="#a0d17b" points="1557.83,-275.98 1568.39,-276.86 1560.68,-269.59 1557.83,-275.98"/>
</g>
<!-- bmesh -->
<g id="node22" class="node">
<title>bmesh</title>
<polygon fill="#343434" stroke="#343434" points="1340,-340 1282,-340 1282,-304 1340,-304 1340,-340"/>
<text text-anchor="middle" x="1311" y="-318.3" font-family="Courier,monospace" font-size="14.00" fill="#de958e">bmesh</text>
</g>
<!-- bmesh&#45;&gt;shot_glass.blender.blender_tools -->
<g id="edge37" class="edge">
<title>bmesh&#45;&gt;shot_glass.blender.blender_tools</title>
<path fill="none" stroke="#de958e" d="M1340.08,-319.46C1368.41,-316.9 1414.44,-312.73 1460.55,-308.56"/>
<polygon fill="#de958e" stroke="#de958e" points="1461.05,-312.03 1470.7,-307.65 1460.42,-305.06 1461.05,-312.03"/>
</g>
<!-- infix -->
<g id="node23" class="node">
<title>infix</title>
<polygon fill="#343434" stroke="#343434" points="246.5,-484 188.5,-484 188.5,-448 246.5,-448 246.5,-484"/>
<text text-anchor="middle" x="217.5" y="-462.3" font-family="Courier,monospace" font-size="14.00" fill="#de958e">infix</text>
</g>
<!-- infix&#45;&gt;shot_glass.core.monad -->
<g id="edge38" class="edge">
<title>infix&#45;&gt;shot_glass.core.monad</title>
<path fill="none" stroke="#de958e" d="M246.52,-469.61C274.84,-473.26 320.35,-479.12 362.68,-484.57"/>
<polygon fill="#de958e" stroke="#de958e" points="362.43,-488.06 372.79,-485.87 363.32,-481.12 362.43,-488.06"/>
</g>
<!-- lunchbox.enforce -->
<g id="node24" class="node">
<title>lunchbox.enforce</title>
<polygon fill="#343434" stroke="#343434" points="292,-538 143,-538 143,-502 292,-502 292,-538"/>
<text text-anchor="middle" x="217.5" y="-516.3" font-family="Courier,monospace" font-size="14.00" fill="#de958e">lunchbox.enforce</text>
</g>
<!-- lunchbox.enforce&#45;&gt;shot_glass.core.monad -->
<g id="edge39" class="edge">
<title>lunchbox.enforce&#45;&gt;shot_glass.core.monad</title>
<path fill="none" stroke="#de958e" d="M292.05,-513.49C314.22,-511.53 338.98,-509.33 362.74,-507.23"/>
<polygon fill="#de958e" stroke="#de958e" points="363.2,-510.7 372.85,-506.33 362.58,-503.73 363.2,-510.7"/>
</g>
<!-- pandas -->
<g id="node25" class="node">
<title>pandas</title>
<polygon fill="#343434" stroke="#343434" points="501,-591 435,-591 435,-555 501,-555 501,-591"/>
<text text-anchor="middle" x="468" y="-569.3" font-family="Courier,monospace" font-size="14.00" fill="#de958e">pandas</text>
</g>
<!-- pandas&#45;&gt;shot_glass.blender.blender_tools -->
<g id="edge40" class="edge">
<title>pandas&#45;&gt;shot_glass.blender.blender_tools</title>
<path fill="none" stroke="#de958e" d="M501.18,-577.49C573.2,-586.68 752.62,-604.87 900,-581 1147.37,-540.93 1207.9,-508.93 1435,-403 1487.01,-378.74 1542.74,-342.48 1577.12,-318.78"/>
<polygon fill="#de958e" stroke="#de958e" points="1579.16,-321.62 1585.38,-313.04 1575.17,-315.87 1579.16,-321.62"/>
</g>
<!-- pandas&#45;&gt;shot_glass.core.basic -->
<g id="edge41" class="edge">
<title>pandas&#45;&gt;shot_glass.core.basic</title>
<path fill="none" stroke="#de958e" d="M501.17,-567.39C539.65,-560.67 605.98,-549.1 662.75,-539.19"/>
<polygon fill="#de958e" stroke="#de958e" points="663.62,-542.59 672.87,-537.43 662.41,-535.7 663.62,-542.59"/>
</g>
<!-- pandas&#45;&gt;shot_glass.hifive.hifive -->
<g id="edge42" class="edge">
<title>pandas&#45;&gt;shot_glass.hifive.hifive</title>
<path fill="none" stroke="#de958e" d="M501.01,-577.75C574.57,-587.27 760.09,-603.37 900,-548 926.08,-537.68 982.57,-486.39 1016.06,-454.6"/>
<polygon fill="#de958e" stroke="#de958e" points="1018.82,-456.8 1023.64,-447.37 1013.99,-451.74 1018.82,-456.8"/>
</g>
<!-- pandas&#45;&gt;shot_glass.hifive.hifive_tools -->
<g id="edge43" class="edge">
<title>pandas&#45;&gt;shot_glass.hifive.hifive_tools</title>
<path fill="none" stroke="#de958e" d="M501.12,-564.75C528.55,-556.89 568.46,-543.52 600,-525 618.21,-514.31 618.41,-505.67 636,-494 660.67,-477.63 690.04,-462.69 714.72,-451.27"/>
<polygon fill="#de958e" stroke="#de958e" points="716.28,-454.41 723.93,-447.07 713.38,-448.04 716.28,-454.41"/>
</g>
<!-- pandas&#45;&gt;shot_glass.hifive.operators -->
<g id="edge44" class="edge">
<title>pandas&#45;&gt;shot_glass.hifive.operators</title>
<path fill="none" stroke="#de958e" d="M501.17,-579.71C588.05,-597.23 834.87,-643 1042.5,-643 1042.5,-643 1042.5,-643 1312,-643 1532.71,-643 1775.77,-515.65 1868.09,-462.19"/>
<polygon fill="#de958e" stroke="#de958e" points="1869.93,-465.17 1876.8,-457.1 1866.4,-459.12 1869.93,-465.17"/>
</g>
<!-- pandas&#45;&gt;shot_glass.obj.obj_tools -->
<g id="edge45" class="edge">
<title>pandas&#45;&gt;shot_glass.obj.obj_tools</title>
<path fill="none" stroke="#de958e" d="M501.02,-576.29C529.13,-580.45 570.08,-589.7 600,-610 621.77,-624.77 613.97,-642.62 636,-657 641.73,-660.74 647.86,-664.04 654.22,-666.96"/>
<polygon fill="#de958e" stroke="#de958e" points="653.12,-670.29 663.69,-670.97 655.84,-663.85 653.12,-670.29"/>
</g>
<!-- shot_glass.plotly&#45;&gt;shot_glass.plotly.plotly_tools -->
<g id="edge46" class="edge">
<title>shot_glass.plotly&#45;&gt;shot_glass.plotly.plotly_tools</title>
<path fill="none" stroke="#a0d17b" d="M296.1,-773.14C320.75,-767.78 348.25,-761.8 373.87,-756.24"/>
<polygon fill="#a0d17b" stroke="#a0d17b" points="374.93,-759.59 383.96,-754.05 373.44,-752.75 374.93,-759.59"/>
</g>
<!-- lunchbox.tools -->
<g id="node27" class="node">
<title>lunchbox.tools</title>
<polygon fill="#343434" stroke="#343434" points="1377,-156 1245,-156 1245,-120 1377,-120 1377,-156"/>
<text text-anchor="middle" x="1311" y="-134.3" font-family="Courier,monospace" font-size="14.00" fill="#de958e">lunchbox.tools</text>
</g>
<!-- lunchbox.tools&#45;&gt;shot_glass.blender.blender_tools -->
<g id="edge47" class="edge">
<title>lunchbox.tools&#45;&gt;shot_glass.blender.blender_tools</title>
<path fill="none" stroke="#de958e" d="M1377.16,-145.22C1397.18,-149.88 1418.31,-157.51 1435,-170 1459.9,-188.63 1447.89,-209.19 1471,-230 1491.68,-248.63 1518.64,-262.86 1543.33,-273.19"/>
<polygon fill="#de958e" stroke="#de958e" points="1542.09,-276.46 1552.67,-276.96 1544.71,-269.97 1542.09,-276.46"/>
</g>
<!-- lunchbox.tools&#45;&gt;shot_glass.hifive.operator_tools -->
<g id="edge48" class="edge">
<title>lunchbox.tools&#45;&gt;shot_glass.hifive.operator_tools</title>
<path fill="none" stroke="#de958e" d="M1377.14,-132.98C1401.95,-131.07 1431.37,-128.8 1460.81,-126.53"/>
<polygon fill="#de958e" stroke="#de958e" points="1461.09,-130.02 1470.79,-125.76 1460.55,-123.04 1461.09,-130.02"/>
</g>
<!-- lunchbox.tools&#45;&gt;shot_glass.hifive.operators -->
<g id="edge49" class="edge">
<title>lunchbox.tools&#45;&gt;shot_glass.hifive.operators</title>
<path fill="none" stroke="#de958e" d="M1377.34,-145.39C1467.85,-158.13 1633.58,-190.76 1752,-268 1812.03,-307.16 1863.7,-375.25 1889.32,-412.6"/>
<polygon fill="#de958e" stroke="#de958e" points="1886.47,-414.64 1894.97,-420.96 1892.27,-410.72 1886.47,-414.64"/>
</g>
<!-- mathutils -->
<g id="node28" class="node">
<title>mathutils</title>
<polygon fill="#343434" stroke="#343434" points="1356.5,-286 1265.5,-286 1265.5,-250 1356.5,-250 1356.5,-286"/>
<text text-anchor="middle" x="1311" y="-264.3" font-family="Courier,monospace" font-size="14.00" fill="#de958e">mathutils</text>
</g>
<!-- mathutils&#45;&gt;shot_glass.blender.blender_tools -->
<g id="edge50" class="edge">
<title>mathutils&#45;&gt;shot_glass.blender.blender_tools</title>
<path fill="none" stroke="#de958e" d="M1356.69,-272.04C1384.76,-274.58 1422.74,-278.02 1460.76,-281.46"/>
<polygon fill="#de958e" stroke="#de958e" points="1460.68,-284.96 1470.95,-282.38 1461.31,-277.99 1460.68,-284.96"/>
</g>
<!-- wrapt -->
<g id="node29" class="node">
<title>wrapt</title>
<polygon fill="#343434" stroke="#343434" points="1340,-64 1282,-64 1282,-28 1340,-28 1340,-64"/>
<text text-anchor="middle" x="1311" y="-42.3" font-family="Courier,monospace" font-size="14.00" fill="#de958e">wrapt</text>
</g>
<!-- pandas&#45;&gt;shot_glass.blender.blender_tools -->
<g id="edge50" class="edge">
<title>pandas&#45;&gt;shot_glass.blender.blender_tools</title>
<path fill="none" stroke="#de958e" d="M501.21,-437.86C534.31,-454.66 587.68,-480.29 636,-497 765.69,-541.84 801.37,-543.42 936,-570 963.51,-575.43 1407.6,-640.04 1435,-646 1471.47,-653.94 1511.54,-665.16 1544.18,-674.96"/>
<polygon fill="#de958e" stroke="#de958e" points="1543.47,-678.4 1554.05,-677.95 1545.5,-671.7 1543.47,-678.4"/>
</g>
<!-- pandas&#45;&gt;shot_glass.core.df_monad -->
<g id="edge51" class="edge">
<title>wrapt&#45;&gt;shot_glass.hifive.operator_tools</title>
<path fill="none" stroke="#de958e" d="M1340.08,-52.49C1381.48,-62.06 1460.68,-80.37 1522.72,-94.71"/>
<polygon fill="#de958e" stroke="#de958e" points="1521.99,-98.13 1532.52,-96.97 1523.56,-91.31 1521.99,-98.13"/>
</g>
<!-- shot_glass.obj&#45;&gt;shot_glass.obj.obj_parser -->
<g id="edge52" class="edge">
<title>shot_glass.obj&#45;&gt;shot_glass.obj.obj_parser</title>
<path fill="none" stroke="#a0d17b" d="M283.79,-670.18C306.39,-666.08 332.37,-661.38 357.54,-656.82"/>
<polygon fill="#a0d17b" stroke="#a0d17b" points="358.29,-660.24 367.5,-655.02 357.04,-653.36 358.29,-660.24"/>
</g>
<!-- shot_glass.obj&#45;&gt;shot_glass.obj.obj_tools -->
<g id="edge53" class="edge">
<title>shot_glass.obj&#45;&gt;shot_glass.obj.obj_tools</title>
<path fill="none" stroke="#a0d17b" d="M283.57,-682.83C373.77,-683.98 538.27,-686.08 650.07,-687.51"/>
<polygon fill="#a0d17b" stroke="#a0d17b" points="650.33,-691.01 660.38,-687.64 650.42,-684.01 650.33,-691.01"/>
</g>
<!-- plotly -->
<g id="node31" class="node">
<title>plotly</title>
<polygon fill="#343434" stroke="#343434" points="250.5,-754 184.5,-754 184.5,-718 250.5,-718 250.5,-754"/>
<text text-anchor="middle" x="217.5" y="-732.3" font-family="Courier,monospace" font-size="14.00" fill="#de958e">plotly</text>
</g>
<!-- plotly&#45;&gt;shot_glass.plotly.plotly_tools -->
<g id="edge54" class="edge">
<title>plotly&#45;&gt;shot_glass.plotly.plotly_tools</title>
<path fill="none" stroke="#de958e" d="M250.73,-736C270.59,-736 297.57,-736 325.74,-736"/>
<polygon fill="#de958e" stroke="#de958e" points="325.75,-739.5 335.75,-736 325.75,-732.5 325.75,-739.5"/>
</g>
<!-- lunchbox.stopwatch -->
<g id="node32" class="node">
<title>lunchbox.stopwatch</title>
<polygon fill="#343434" stroke="#343434" points="300,-646 135,-646 135,-610 300,-610 300,-646"/>
<text text-anchor="middle" x="217.5" y="-624.3" font-family="Courier,monospace" font-size="14.00" fill="#de958e">lunchbox.stopwatch</text>
</g>
<!-- lunchbox.stopwatch&#45;&gt;shot_glass.obj.obj_parser -->
<g id="edge55" class="edge">
<title>lunchbox.stopwatch&#45;&gt;shot_glass.obj.obj_parser</title>
<path fill="none" stroke="#de958e" d="M300.21,-630.96C314.95,-631.49 330.6,-632.06 346.17,-632.62"/>
<polygon fill="#de958e" stroke="#de958e" points="346.26,-636.13 356.38,-632.99 346.52,-629.13 346.26,-636.13"/>
</g>
<!-- pyparsing -->
<g id="node33" class="node">
<title>pyparsing</title>
<polygon fill="#343434" stroke="#343434" points="263,-592 172,-592 172,-556 263,-556 263,-592"/>
<text text-anchor="middle" x="217.5" y="-570.3" font-family="Courier,monospace" font-size="14.00" fill="#de958e">pyparsing</text>
</g>
<!-- pyparsing&#45;&gt;shot_glass.obj.obj_parser -->
<g id="edge56" class="edge">
<title>pyparsing&#45;&gt;shot_glass.obj.obj_parser</title>
<path fill="none" stroke="#de958e" d="M263.21,-585.34C297.29,-593.98 345.15,-606.11 385.92,-616.44"/>
<polygon fill="#de958e" stroke="#de958e" points="385.29,-619.9 395.85,-618.96 387.01,-613.11 385.29,-619.9"/>
</g>
</g>
</svg>
