<?xml version="1.0" encoding="UTF-8" standalone="no"?>
<!DOCTYPE svg PUBLIC "-//W3C//DTD SVG 1.1//EN"
 "http://www.w3.org/Graphics/SVG/1.1/DTD/svg11.dtd">
<!-- Generated by graphviz version 2.43.0 (0)
 -->
<!-- Title: %3 Pages: 1 -->
<svg width="2035pt" height="899pt"
 viewBox="0.00 0.00 2035.00 899.00" xmlns="http://www.w3.org/2000/svg" xmlns:xlink="http://www.w3.org/1999/xlink">
<g id="graph0" class="graph" transform="scale(1 1) rotate(0) translate(4 895)">
<title>%3</title>
<polygon fill="#242424" stroke="transparent" points="-4,4 -4,-895 2031,-895 2031,4 -4,4"/>
<!-- cli -->
<g id="node1" class="node">
<title>cli</title>
<polygon fill="#343434" stroke="#343434" points="76.5,-90 22.5,-90 22.5,-54 76.5,-54 76.5,-90"/>
<text text-anchor="middle" x="49.5" y="-68.3" font-family="Courier,monospace" font-size="14.00" fill="#b6ecf3">cli</text>
</g>
<!-- shot_glass.blender.blender_tools -->
<g id="node2" class="node">
<title>shot_glass.blender.blender_tools</title>
<polygon fill="#343434" stroke="#343434" points="1752,-718 1471,-718 1471,-682 1752,-682 1752,-718"/>
<text text-anchor="middle" x="1611.5" y="-696.3" font-family="Courier,monospace" font-size="14.00" fill="#b6ecf3">shot_glass.blender.blender_tools</text>
</g>
<!-- shot_glass.hifive.operators -->
<g id="node9" class="node">
<title>shot_glass.hifive.operators</title>
<polygon fill="#343434" stroke="#343434" points="2027,-484 1788,-484 1788,-448 2027,-448 2027,-484"/>
<text text-anchor="middle" x="1907.5" y="-462.3" font-family="Courier,monospace" font-size="14.00" fill="#b6ecf3">shot_glass.hifive.operators</text>
</g>
<!-- shot_glass.blender.blender_tools&#45;&gt;shot_glass.hifive.operators -->
<g id="edge1" class="edge">
<title>shot_glass.blender.blender_tools&#45;&gt;shot_glass.hifive.operators</title>
<path fill="none" stroke="#b6ecf3" d="M1689.2,-681.91C1710.67,-674.7 1733.24,-664.96 1752,-652 1814.8,-608.61 1866.34,-533.02 1890.93,-492.86"/>
<polygon fill="#b6ecf3" stroke="#b6ecf3" points="1894.01,-494.53 1896.17,-484.16 1888.01,-490.91 1894.01,-494.53"/>
</g>
<!-- shot_glass.command -->
<g id="node3" class="node">
<title>shot_glass.command</title>
<polygon fill="#343434" stroke="#343434" points="300,-144 135,-144 135,-108 300,-108 300,-144"/>
<text text-anchor="middle" x="217.5" y="-122.3" font-family="Courier,monospace" font-size="14.00" fill="#b6ecf3">shot_glass.command</text>
</g>
<!-- shot_glass.core.monad -->
<g id="node4" class="node">
<title>shot_glass.core.monad</title>
<polygon fill="#343434" stroke="#343434" points="563,-90 373,-90 373,-54 563,-54 563,-90"/>
<text text-anchor="middle" x="468" y="-68.3" font-family="Courier,monospace" font-size="14.00" fill="#b6ecf3">shot_glass.core.monad</text>
</g>
<!-- shot_glass.core.tools -->
<g id="node5" class="node">
<title>shot_glass.core.tools</title>
<polygon fill="#343434" stroke="#343434" points="563,-507 373,-507 373,-471 563,-471 563,-507"/>
<text text-anchor="middle" x="468" y="-485.3" font-family="Courier,monospace" font-size="14.00" fill="#b6ecf3">shot_glass.core.tools</text>
</g>
<!-- shot_glass.hifive.hifive -->
<g id="node6" class="node">
<title>shot_glass.hifive.hifive</title>
<polygon fill="#343434" stroke="#343434" points="1151,-595 936,-595 936,-559 1151,-559 1151,-595"/>
<text text-anchor="middle" x="1043.5" y="-573.3" font-family="Courier,monospace" font-size="14.00" fill="#b6ecf3">shot_glass.hifive.hifive</text>
</g>
<!-- shot_glass.core.tools&#45;&gt;shot_glass.hifive.hifive -->
<g id="edge2" class="edge">
<title>shot_glass.core.tools&#45;&gt;shot_glass.hifive.hifive</title>
<path fill="none" stroke="#b6ecf3" d="M563.33,-490.57C651.33,-493.62 785.83,-502.34 900,-527 930.7,-533.63 963.87,-545 990.48,-555.23"/>
<polygon fill="#b6ecf3" stroke="#b6ecf3" points="989.38,-558.56 999.97,-558.93 991.92,-552.04 989.38,-558.56"/>
</g>
<!-- shot_glass.hifive.hifive_tools -->
<g id="node7" class="node">
<title>shot_glass.hifive.hifive_tools</title>
<polygon fill="#343434" stroke="#343434" points="900,-572 636,-572 636,-536 900,-536 900,-572"/>
<text text-anchor="middle" x="768" y="-550.3" font-family="Courier,monospace" font-size="14.00" fill="#b6ecf3">shot_glass.hifive.hifive_tools</text>
</g>
<!-- shot_glass.core.tools&#45;&gt;shot_glass.hifive.hifive_tools -->
<g id="edge3" class="edge">
<title>shot_glass.core.tools&#45;&gt;shot_glass.hifive.hifive_tools</title>
<path fill="none" stroke="#b6ecf3" d="M551.61,-507.02C589.72,-515.33 635.12,-525.23 674.38,-533.8"/>
<polygon fill="#b6ecf3" stroke="#b6ecf3" points="673.71,-537.23 684.23,-535.95 675.2,-530.39 673.71,-537.23"/>
</g>
<!-- shot_glass.core.tools&#45;&gt;shot_glass.hifive.operators -->
<g id="edge4" class="edge">
<title>shot_glass.core.tools&#45;&gt;shot_glass.hifive.operators</title>
<path fill="none" stroke="#b6ecf3" d="M563.14,-473.54C735.76,-446.97 1114.65,-396.88 1435,-412 1576.36,-418.67 1611.57,-424.46 1752,-442 1762.94,-443.37 1774.29,-444.9 1785.66,-446.52"/>
<polygon fill="#b6ecf3" stroke="#b6ecf3" points="1785.24,-450 1795.64,-447.96 1786.24,-443.07 1785.24,-450"/>
</g>
<!-- shot_glass.hifive.type_base -->
<g id="node10" class="node">
<title>shot_glass.hifive.type_base</title>
<polygon fill="#343434" stroke="#343434" points="887.5,-626 648.5,-626 648.5,-590 887.5,-590 887.5,-626"/>
<text text-anchor="middle" x="768" y="-604.3" font-family="Courier,monospace" font-size="14.00" fill="#b6ecf3">shot_glass.hifive.type_base</text>
</g>
<!-- shot_glass.core.tools&#45;&gt;shot_glass.hifive.type_base -->
<g id="edge5" class="edge">
<title>shot_glass.core.tools&#45;&gt;shot_glass.hifive.type_base</title>
<path fill="none" stroke="#b6ecf3" d="M495.85,-507.13C527.88,-527.95 583.67,-561.7 636,-581 641.93,-583.19 648.09,-585.22 654.35,-587.1"/>
<polygon fill="#b6ecf3" stroke="#b6ecf3" points="653.68,-590.54 664.25,-589.92 655.6,-583.81 653.68,-590.54"/>
</g>
<!-- shot_glass.hifive.validators -->
<g id="node11" class="node">
<title>shot_glass.hifive.validators</title>
<polygon fill="#343434" stroke="#343434" points="1435,-679 1187,-679 1187,-643 1435,-643 1435,-679"/>
<text text-anchor="middle" x="1311" y="-657.3" font-family="Courier,monospace" font-size="14.00" fill="#b6ecf3">shot_glass.hifive.validators</text>
</g>
<!-- shot_glass.core.tools&#45;&gt;shot_glass.hifive.validators -->
<g id="edge6" class="edge">
<title>shot_glass.core.tools&#45;&gt;shot_glass.hifive.validators</title>
<path fill="none" stroke="#b6ecf3" d="M563.16,-478.67C699.36,-467.77 956.34,-462.59 1151,-550 1200.69,-572.31 1251.08,-610.76 1281.44,-636.03"/>
<polygon fill="#b6ecf3" stroke="#b6ecf3" points="1279.55,-639.02 1289.45,-642.79 1284.06,-633.66 1279.55,-639.02"/>
</g>
<!-- shot_glass.hifive.hifive&#45;&gt;shot_glass.hifive.operators -->
<g id="edge7" class="edge">
<title>shot_glass.hifive.hifive&#45;&gt;shot_glass.hifive.operators</title>
<path fill="none" stroke="#b6ecf3" d="M1151.12,-576.09C1290.61,-573.08 1541.98,-561.43 1752,-518 1786.24,-510.92 1823.41,-498.56 1852.71,-487.67"/>
<polygon fill="#b6ecf3" stroke="#b6ecf3" points="1854.21,-490.85 1862.33,-484.04 1851.74,-484.3 1854.21,-490.85"/>
</g>
<!-- shot_glass.hifive.hifive&#45;&gt;shot_glass.hifive.validators -->
<g id="edge8" class="edge">
<title>shot_glass.hifive.hifive&#45;&gt;shot_glass.hifive.validators</title>
<path fill="none" stroke="#b6ecf3" d="M1101.46,-595.02C1142.96,-608.15 1199.33,-625.99 1243,-639.8"/>
<polygon fill="#b6ecf3" stroke="#b6ecf3" points="1242.09,-643.19 1252.68,-642.86 1244.2,-636.51 1242.09,-643.19"/>
</g>
<!-- shot_glass.hifive.hifive_tools&#45;&gt;shot_glass.hifive.hifive -->
<g id="edge9" class="edge">
<title>shot_glass.hifive.hifive_tools&#45;&gt;shot_glass.hifive.hifive</title>
<path fill="none" stroke="#b6ecf3" d="M900.14,-565.03C908.62,-565.74 917.13,-566.46 925.54,-567.16"/>
<polygon fill="#b6ecf3" stroke="#b6ecf3" points="925.47,-570.67 935.73,-568.02 926.06,-563.7 925.47,-570.67"/>
</g>
<!-- shot_glass.hifive.operator_tools -->
<g id="node8" class="node">
<title>shot_glass.hifive.operator_tools</title>
<polygon fill="#343434" stroke="#343434" points="1752,-509 1471,-509 1471,-473 1752,-473 1752,-509"/>
<text text-anchor="middle" x="1611.5" y="-487.3" font-family="Courier,monospace" font-size="14.00" fill="#b6ecf3">shot_glass.hifive.operator_tools</text>
</g>
<!-- shot_glass.hifive.operator_tools&#45;&gt;shot_glass.hifive.operators -->
<g id="edge10" class="edge">
<title>shot_glass.hifive.operator_tools&#45;&gt;shot_glass.hifive.operators</title>
<path fill="none" stroke="#b6ecf3" d="M1752.18,-479.12C1760.61,-478.41 1769.07,-477.69 1777.45,-476.97"/>
<polygon fill="#b6ecf3" stroke="#b6ecf3" points="1777.95,-480.44 1787.62,-476.11 1777.36,-473.47 1777.95,-480.44"/>
</g>
<!-- shot_glass.hifive.type_base&#45;&gt;shot_glass.hifive.hifive -->
<g id="edge11" class="edge">
<title>shot_glass.hifive.type_base&#45;&gt;shot_glass.hifive.hifive</title>
<path fill="none" stroke="#b6ecf3" d="M887.77,-594.54C900.39,-593.11 913.23,-591.65 925.83,-590.22"/>
<polygon fill="#b6ecf3" stroke="#b6ecf3" points="926.34,-593.69 935.88,-589.09 925.55,-586.73 926.34,-593.69"/>
</g>
<!-- shot_glass.hifive.validators&#45;&gt;shot_glass.blender.blender_tools -->
<g id="edge12" class="edge">
<title>shot_glass.hifive.validators&#45;&gt;shot_glass.blender.blender_tools</title>
<path fill="none" stroke="#b6ecf3" d="M1435.13,-677.09C1444.22,-678.27 1453.43,-679.48 1462.64,-680.68"/>
<polygon fill="#b6ecf3" stroke="#b6ecf3" points="1462.25,-684.16 1472.62,-681.99 1463.16,-677.22 1462.25,-684.16"/>
</g>
<!-- shot_glass.hifive.validators&#45;&gt;shot_glass.hifive.operators -->
<g id="edge13" class="edge">
<title>shot_glass.hifive.validators&#45;&gt;shot_glass.hifive.operators</title>
<path fill="none" stroke="#b6ecf3" d="M1435.4,-658.37C1526.38,-652.45 1651.31,-635.84 1752,-591 1804.95,-567.42 1854.93,-520.96 1883.05,-491.8"/>
<polygon fill="#b6ecf3" stroke="#b6ecf3" points="1885.7,-494.09 1890.05,-484.43 1880.62,-489.27 1885.7,-494.09"/>
</g>
<!-- shot_glass.obj.obj_parser -->
<g id="node12" class="node">
<title>shot_glass.obj.obj_parser</title>
<polygon fill="#343434" stroke="#343434" points="579.5,-252 356.5,-252 356.5,-216 579.5,-216 579.5,-252"/>
<text text-anchor="middle" x="468" y="-230.3" font-family="Courier,monospace" font-size="14.00" fill="#b6ecf3">shot_glass.obj.obj_parser</text>
</g>
<!-- shot_glass.obj.obj_tools -->
<g id="node13" class="node">
<title>shot_glass.obj.obj_tools</title>
<polygon fill="#343434" stroke="#343434" points="875.5,-252 660.5,-252 660.5,-216 875.5,-216 875.5,-252"/>
<text text-anchor="middle" x="768" y="-230.3" font-family="Courier,monospace" font-size="14.00" fill="#b6ecf3">shot_glass.obj.obj_tools</text>
</g>
<!-- shot_glass.obj.obj_parser&#45;&gt;shot_glass.obj.obj_tools -->
<g id="edge14" class="edge">
<title>shot_glass.obj.obj_parser&#45;&gt;shot_glass.obj.obj_tools</title>
<path fill="none" stroke="#b6ecf3" d="M579.54,-234C602.48,-234 626.73,-234 649.9,-234"/>
<polygon fill="#b6ecf3" stroke="#b6ecf3" points="650.1,-237.5 660.1,-234 650.1,-230.5 650.1,-237.5"/>
</g>
<!-- shot_glass.obj.obj_tools&#45;&gt;shot_glass.hifive.operators -->
<g id="edge15" class="edge">
<title>shot_glass.obj.obj_tools&#45;&gt;shot_glass.hifive.operators</title>
<path fill="none" stroke="#b6ecf3" d="M844.27,-215.95C1016.33,-178.86 1447.01,-110 1752,-266 1825.15,-303.41 1873.95,-393.11 1894.89,-438.58"/>
<polygon fill="#b6ecf3" stroke="#b6ecf3" points="1891.75,-440.14 1899.04,-447.83 1898.14,-437.28 1891.75,-440.14"/>
</g>
<!-- shot_glass.plotly.plotly_tools -->
<g id="node14" class="node">
<title>shot_glass.plotly.plotly_tools</title>
<polygon fill="#343434" stroke="#343434" points="600,-355 336,-355 336,-319 600,-319 600,-355"/>
<text text-anchor="middle" x="468" y="-333.3" font-family="Courier,monospace" font-size="14.00" fill="#b6ecf3">shot_glass.plotly.plotly_tools</text>
</g>
<!-- shot_glass.plotly.plotly_tools&#45;&gt;shot_glass.hifive.operators -->
<g id="edge16" class="edge">
<title>shot_glass.plotly.plotly_tools&#45;&gt;shot_glass.hifive.operators</title>
<path fill="none" stroke="#b6ecf3" d="M582.92,-318.96C698.41,-302.27 882.41,-280 1042.5,-280 1042.5,-280 1042.5,-280 1312,-280 1508.81,-280 1572.09,-250.2 1752,-330 1808.07,-354.87 1858.42,-407.54 1885.5,-439.54"/>
<polygon fill="#b6ecf3" stroke="#b6ecf3" points="1883.11,-442.14 1892.19,-447.59 1888.49,-437.66 1883.11,-442.14"/>
</g>
<!-- click -->
<g id="node15" class="node">
<title>click</title>
<polygon fill="#343434" stroke="#343434" points="78.5,-144 20.5,-144 20.5,-108 78.5,-108 78.5,-144"/>
<text text-anchor="middle" x="49.5" y="-122.3" font-family="Courier,monospace" font-size="14.00" fill="#de958e">click</text>
</g>
<!-- click&#45;&gt;shot_glass.command -->
<g id="edge17" class="edge">
<title>click&#45;&gt;shot_glass.command</title>
<path fill="none" stroke="#de958e" d="M78.66,-126C91.61,-126 107.77,-126 124.43,-126"/>
<polygon fill="#de958e" stroke="#de958e" points="124.85,-129.5 134.85,-126 124.85,-122.5 124.85,-129.5"/>
</g>
<!-- infix -->
<g id="node16" class="node">
<title>infix</title>
<polygon fill="#343434" stroke="#343434" points="246.5,-36 188.5,-36 188.5,0 246.5,0 246.5,-36"/>
<text text-anchor="middle" x="217.5" y="-14.3" font-family="Courier,monospace" font-size="14.00" fill="#de958e">infix</text>
</g>
<!-- infix&#45;&gt;shot_glass.core.monad -->
<g id="edge18" class="edge">
<title>infix&#45;&gt;shot_glass.core.monad</title>
<path fill="none" stroke="#de958e" d="M246.52,-24.09C277.45,-30.81 328.86,-41.98 374.26,-51.85"/>
<polygon fill="#de958e" stroke="#de958e" points="373.63,-55.29 384.15,-54 375.12,-48.45 373.63,-55.29"/>
</g>
<!-- lunchbox.enforce -->
<g id="node17" class="node">
<title>lunchbox.enforce</title>
<polygon fill="#343434" stroke="#343434" points="292,-90 143,-90 143,-54 292,-54 292,-90"/>
<text text-anchor="middle" x="217.5" y="-68.3" font-family="Courier,monospace" font-size="14.00" fill="#de958e">lunchbox.enforce</text>
</g>
<!-- lunchbox.enforce&#45;&gt;shot_glass.core.monad -->
<g id="edge19" class="edge">
<title>lunchbox.enforce&#45;&gt;shot_glass.core.monad</title>
<path fill="none" stroke="#de958e" d="M292.05,-72C314.22,-72 338.98,-72 362.74,-72"/>
<polygon fill="#de958e" stroke="#de958e" points="362.85,-75.5 372.85,-72 362.85,-68.5 362.85,-75.5"/>
</g>
<!-- shot_glass.core -->
<g id="node18" class="node">
<title>shot_glass.core</title>
<polygon fill="#343434" stroke="#343434" points="287.5,-468 147.5,-468 147.5,-432 287.5,-432 287.5,-468"/>
<text text-anchor="middle" x="217.5" y="-446.3" font-family="Courier,monospace" font-size="14.00" fill="#a0d17b">shot_glass.core</text>
</g>
<!-- shot_glass.core&#45;&gt;shot_glass.core.monad -->
<g id="edge20" class="edge">
<title>shot_glass.core&#45;&gt;shot_glass.core.monad</title>
<path fill="none" stroke="#a0d17b" d="M287.51,-433.73C292.16,-430.73 296.41,-427.19 300,-423 363.29,-349.07 292.12,-293.87 336,-207 359.08,-161.3 403.02,-120.95 433.61,-96.53"/>
<polygon fill="#a0d17b" stroke="#a0d17b" points="436.14,-99 441.86,-90.08 431.83,-93.48 436.14,-99"/>
</g>
<!-- shot_glass.core&#45;&gt;shot_glass.core.tools -->
<g id="edge21" class="edge">
<title>shot_glass.core&#45;&gt;shot_glass.core.tools</title>
<path fill="none" stroke="#a0d17b" d="M287.72,-460.86C310.92,-464.5 337.33,-468.65 362.61,-472.62"/>
<polygon fill="#a0d17b" stroke="#a0d17b" points="362.19,-476.09 372.61,-474.19 363.28,-469.18 362.19,-476.09"/>
</g>
<!-- shot_glass -->
<g id="node19" class="node">
<title>shot_glass</title>
<polygon fill="#343434" stroke="#343434" points="99,-441 0,-441 0,-405 99,-405 99,-441"/>
<text text-anchor="middle" x="49.5" y="-419.3" font-family="Courier,monospace" font-size="14.00" fill="#a0d17b">shot_glass</text>
</g>
<!-- shot_glass&#45;&gt;shot_glass.command -->
<g id="edge22" class="edge">
<title>shot_glass&#45;&gt;shot_glass.command</title>
<path fill="none" stroke="#a0d17b" d="M50.78,-404.73C52.51,-356.65 63.88,-225.31 135,-153 135.94,-152.04 136.92,-151.12 137.92,-150.23"/>
<polygon fill="#a0d17b" stroke="#a0d17b" points="140.29,-152.83 146.18,-144.03 136.09,-147.23 140.29,-152.83"/>
</g>
<!-- shot_glass&#45;&gt;shot_glass.core -->
<g id="edge23" class="edge">
<title>shot_glass&#45;&gt;shot_glass.core</title>
<path fill="none" stroke="#a0d17b" d="M99.41,-430.95C111.37,-432.9 124.48,-435.03 137.46,-437.14"/>
<polygon fill="#a0d17b" stroke="#a0d17b" points="136.91,-440.6 147.34,-438.75 138.03,-433.69 136.91,-440.6"/>
</g>
<!-- shot_glass.hifive -->
<g id="node20" class="node">
<title>shot_glass.hifive</title>
<polygon fill="#343434" stroke="#343434" points="546.5,-672 389.5,-672 389.5,-636 546.5,-636 546.5,-672"/>
<text text-anchor="middle" x="468" y="-650.3" font-family="Courier,monospace" font-size="14.00" fill="#a0d17b">shot_glass.hifive</text>
</g>
<!-- shot_glass&#45;&gt;shot_glass.hifive -->
<g id="edge24" class="edge">
<title>shot_glass&#45;&gt;shot_glass.hifive</title>
<path fill="none" stroke="#a0d17b" d="M77.56,-441.06C93.98,-451.83 115.46,-465.57 135,-477 235.49,-535.78 356.99,-598.51 421.52,-631.19"/>
<polygon fill="#a0d17b" stroke="#a0d17b" points="420.12,-634.41 430.62,-635.8 423.28,-628.16 420.12,-634.41"/>
</g>
<!-- shot_glass.blender -->
<g id="node21" class="node">
<title>shot_glass.blender</title>
<polygon fill="#343434" stroke="#343434" points="1126,-863 961,-863 961,-827 1126,-827 1126,-863"/>
<text text-anchor="middle" x="1043.5" y="-841.3" font-family="Courier,monospace" font-size="14.00" fill="#a0d17b">shot_glass.blender</text>
</g>
<!-- shot_glass&#45;&gt;shot_glass.blender -->
<g id="edge25" class="edge">
<title>shot_glass&#45;&gt;shot_glass.blender</title>
<path fill="none" stroke="#a0d17b" d="M61.91,-441.37C76.91,-464.71 104.93,-505.47 135,-535 213.78,-612.36 235.55,-635.16 336,-681 544,-775.93 812.38,-818.7 950.83,-835.55"/>
<polygon fill="#a0d17b" stroke="#a0d17b" points="950.64,-839.05 960.98,-836.76 951.47,-832.1 950.64,-839.05"/>
</g>
<!-- shot_glass.obj -->
<g id="node24" class="node">
<title>shot_glass.obj</title>
<polygon fill="#343434" stroke="#343434" points="283.5,-306 151.5,-306 151.5,-270 283.5,-270 283.5,-306"/>
<text text-anchor="middle" x="217.5" y="-284.3" font-family="Courier,monospace" font-size="14.00" fill="#a0d17b">shot_glass.obj</text>
</g>
<!-- shot_glass&#45;&gt;shot_glass.obj -->
<g id="edge26" class="edge">
<title>shot_glass&#45;&gt;shot_glass.obj</title>
<path fill="none" stroke="#a0d17b" d="M60.29,-404.61C73.95,-380.64 100.93,-338.98 135,-315 137.26,-313.41 139.63,-311.9 142.07,-310.48"/>
<polygon fill="#a0d17b" stroke="#a0d17b" points="143.95,-313.45 151.18,-305.7 140.69,-307.25 143.95,-313.45"/>
</g>
<!-- shot_glass.plotly -->
<g id="node27" class="node">
<title>shot_glass.plotly</title>
<polygon fill="#343434" stroke="#343434" points="296,-414 139,-414 139,-378 296,-378 296,-414"/>
<text text-anchor="middle" x="217.5" y="-392.3" font-family="Courier,monospace" font-size="14.00" fill="#a0d17b">shot_glass.plotly</text>
</g>
<!-- shot_glass&#45;&gt;shot_glass.plotly -->
<g id="edge27" class="edge">
<title>shot_glass&#45;&gt;shot_glass.plotly</title>
<path fill="none" stroke="#a0d17b" d="M99.41,-415.05C108.73,-413.53 118.75,-411.9 128.86,-410.25"/>
<polygon fill="#a0d17b" stroke="#a0d17b" points="129.67,-413.67 138.98,-408.61 128.55,-406.76 129.67,-413.67"/>
</g>
<!-- shot_glass.hifive&#45;&gt;shot_glass.hifive.hifive -->
<g id="edge28" class="edge">
<title>shot_glass.hifive&#45;&gt;shot_glass.hifive.hifive</title>
<path fill="none" stroke="#a0d17b" d="M546.71,-658.47C633.81,-661.67 778.72,-661.52 900,-635 934.31,-627.5 970.97,-612.4 998.52,-599.49"/>
<polygon fill="#a0d17b" stroke="#a0d17b" points="1000.34,-602.49 1007.86,-595.03 997.33,-596.18 1000.34,-602.49"/>
</g>
<!-- shot_glass.hifive&#45;&gt;shot_glass.hifive.hifive_tools -->
<g id="edge29" class="edge">
<title>shot_glass.hifive&#45;&gt;shot_glass.hifive.hifive_tools</title>
<path fill="none" stroke="#a0d17b" d="M504.32,-635.97C537.57,-619.63 589.11,-595.9 636,-581 643.16,-578.73 650.59,-576.6 658.13,-574.61"/>
<polygon fill="#a0d17b" stroke="#a0d17b" points="659.24,-577.94 668.07,-572.08 657.52,-571.15 659.24,-577.94"/>
</g>
<!-- shot_glass.hifive&#45;&gt;shot_glass.hifive.operator_tools -->
<g id="edge30" class="edge">
<title>shot_glass.hifive&#45;&gt;shot_glass.hifive.operator_tools</title>
<path fill="none" stroke="#a0d17b" d="M546.72,-657.93C574.84,-659.18 606.84,-660.39 636,-661 753.31,-663.46 783.4,-674.07 900,-661 1013.68,-648.25 1039.67,-630.33 1151,-604 1283.67,-572.62 1437.43,-534.44 1529.18,-511.46"/>
<polygon fill="#a0d17b" stroke="#a0d17b" points="1530.11,-514.84 1538.96,-509.01 1528.41,-508.05 1530.11,-514.84"/>
</g>
<!-- shot_glass.hifive&#45;&gt;shot_glass.hifive.operators -->
<g id="edge31" class="edge">
<title>shot_glass.hifive&#45;&gt;shot_glass.hifive.operators</title>
<path fill="none" stroke="#a0d17b" d="M492.95,-672.01C568.97,-727.32 813.3,-891 1042.5,-891 1042.5,-891 1042.5,-891 1312,-891 1520.7,-891 1595.03,-864.53 1752,-727 1828.3,-660.15 1877.26,-546.1 1896.82,-493.75"/>
<polygon fill="#a0d17b" stroke="#a0d17b" points="1900.19,-494.73 1900.34,-484.14 1893.61,-492.33 1900.19,-494.73"/>
</g>
<!-- shot_glass.hifive&#45;&gt;shot_glass.hifive.type_base -->
<g id="edge32" class="edge">
<title>shot_glass.hifive&#45;&gt;shot_glass.hifive.type_base</title>
<path fill="none" stroke="#a0d17b" d="M546.52,-642.03C575.07,-637.63 608.22,-632.51 640,-627.6"/>
<polygon fill="#a0d17b" stroke="#a0d17b" points="640.91,-631 650.26,-626.02 639.84,-624.09 640.91,-631"/>
</g>
<!-- shot_glass.hifive&#45;&gt;shot_glass.hifive.validators -->
<g id="edge33" class="edge">
<title>shot_glass.hifive&#45;&gt;shot_glass.hifive.validators</title>
<path fill="none" stroke="#a0d17b" d="M546.72,-657.93C574.84,-659.18 606.84,-660.39 636,-661 823.75,-664.93 1040.98,-663.93 1176.94,-662.64"/>
<polygon fill="#a0d17b" stroke="#a0d17b" points="1177.03,-666.14 1186.99,-662.55 1176.96,-659.14 1177.03,-666.14"/>
</g>
<!-- shot_glass.blender&#45;&gt;shot_glass.blender.blender_tools -->
<g id="edge34" class="edge">
<title>shot_glass.blender&#45;&gt;shot_glass.blender.blender_tools</title>
<path fill="none" stroke="#a0d17b" d="M1126.04,-856.91C1206.93,-865.49 1333.18,-870.03 1435,-834 1497.9,-811.74 1556.39,-757.81 1587.4,-725.56"/>
<polygon fill="#a0d17b" stroke="#a0d17b" points="1589.98,-727.92 1594.31,-718.25 1584.9,-723.11 1589.98,-727.92"/>
</g>
<!-- bmesh -->
<g id="node22" class="node">
<title>bmesh</title>
<polygon fill="#343434" stroke="#343434" points="1340,-825 1282,-825 1282,-789 1340,-789 1340,-825"/>
<text text-anchor="middle" x="1311" y="-803.3" font-family="Courier,monospace" font-size="14.00" fill="#de958e">bmesh</text>
</g>
<!-- bmesh&#45;&gt;shot_glass.blender.blender_tools -->
<g id="edge35" class="edge">
<title>bmesh&#45;&gt;shot_glass.blender.blender_tools</title>
<path fill="none" stroke="#de958e" d="M1340.2,-800.93C1365.36,-795.21 1403.05,-785.91 1435,-775 1479.42,-759.82 1528.43,-738.47 1563.34,-722.43"/>
<polygon fill="#de958e" stroke="#de958e" points="1565.19,-725.43 1572.8,-718.06 1562.25,-719.08 1565.19,-725.43"/>
</g>
<!-- pandas -->
<g id="node23" class="node">
<title>pandas</title>
<polygon fill="#343434" stroke="#343434" points="501,-409 435,-409 435,-373 501,-373 501,-409"/>
<text text-anchor="middle" x="468" y="-387.3" font-family="Courier,monospace" font-size="14.00" fill="#de958e">pandas</text>
</g>
<!-- pandas&#45;&gt;shot_glass.blender.blender_tools -->
<g id="edge36" class="edge">
<title>pandas&#45;&gt;shot_glass.blender.blender_tools</title>
<path fill="none" stroke="#de958e" d="M501.19,-389.93C573.23,-388.12 752.69,-386.79 900,-412 1014.76,-431.64 1049.74,-429.54 1151,-487 1169.88,-497.71 1168.75,-508.25 1187,-520 1250.78,-561.05 1452.92,-640.23 1553.1,-678.39"/>
<polygon fill="#de958e" stroke="#de958e" points="1551.87,-681.67 1562.46,-681.96 1554.36,-675.13 1551.87,-681.67"/>
</g>
<!-- pandas&#45;&gt;shot_glass.hifive.hifive -->
<g id="edge37" class="edge">
<title>pandas&#45;&gt;shot_glass.hifive.hifive</title>
<path fill="none" stroke="#de958e" d="M501.16,-394.79C574.27,-404.15 757.63,-431.98 900,-490 940.14,-506.36 982,-533.29 1009.89,-552.86"/>
<polygon fill="#de958e" stroke="#de958e" points="1007.89,-555.74 1018.07,-558.68 1011.95,-550.03 1007.89,-555.74"/>
</g>
<!-- pandas&#45;&gt;shot_glass.hifive.hifive_tools -->
<g id="edge38" class="edge">
<title>pandas&#45;&gt;shot_glass.hifive.hifive_tools</title>
<path fill="none" stroke="#de958e" d="M501.07,-408.3C527.61,-422.64 566.29,-443.58 600,-462 642.75,-485.36 691.54,-512.26 725.29,-530.92"/>
<polygon fill="#de958e" stroke="#de958e" points="723.95,-534.18 734.4,-535.95 727.34,-528.05 723.95,-534.18"/>
</g>
<!-- pandas&#45;&gt;shot_glass.hifive.operators -->
<g id="edge39" class="edge">
<title>pandas&#45;&gt;shot_glass.hifive.operators</title>
<path fill="none" stroke="#de958e" d="M501.15,-384C588,-365.73 834.74,-318 1042.5,-318 1042.5,-318 1042.5,-318 1312,-318 1518.08,-318 1752.75,-402.77 1854.69,-444"/>
<polygon fill="#de958e" stroke="#de958e" points="1853.56,-447.32 1864.14,-447.85 1856.2,-440.84 1853.56,-447.32"/>
</g>
<!-- pandas&#45;&gt;shot_glass.obj.obj_tools -->
<g id="edge40" class="edge">
<title>pandas&#45;&gt;shot_glass.obj.obj_tools</title>
<path fill="none" stroke="#de958e" d="M501.2,-391.4C529.62,-390.22 570.92,-384.62 600,-364 625.37,-346.01 613.47,-325.44 636,-304 657.12,-283.9 685.14,-267.91 709.84,-256.3"/>
<polygon fill="#de958e" stroke="#de958e" points="711.47,-259.41 719.12,-252.07 708.57,-253.04 711.47,-259.41"/>
</g>
<!-- shot_glass.obj&#45;&gt;shot_glass.obj.obj_parser -->
<g id="edge41" class="edge">
<title>shot_glass.obj&#45;&gt;shot_glass.obj.obj_parser</title>
<path fill="none" stroke="#a0d17b" d="M283.79,-273.81C311.31,-267.83 343.85,-260.76 373.82,-254.25"/>
<polygon fill="#a0d17b" stroke="#a0d17b" points="374.84,-257.61 383.87,-252.06 373.35,-250.77 374.84,-257.61"/>
</g>
<!-- shot_glass.obj&#45;&gt;shot_glass.obj.obj_tools -->
<g id="edge42" class="edge">
<title>shot_glass.obj&#45;&gt;shot_glass.obj.obj_tools</title>
<path fill="none" stroke="#a0d17b" d="M283.81,-285.16C359.91,-281.44 489.36,-273.83 600,-261 617.72,-258.94 636.44,-256.34 654.68,-253.57"/>
<polygon fill="#a0d17b" stroke="#a0d17b" points="655.4,-257 664.75,-252.02 654.34,-250.08 655.4,-257"/>
</g>
<!-- bpy -->
<g id="node25" class="node">
<title>bpy</title>
<polygon fill="#343434" stroke="#343434" points="1070.5,-794 1016.5,-794 1016.5,-758 1070.5,-758 1070.5,-794"/>
<text text-anchor="middle" x="1043.5" y="-772.3" font-family="Courier,monospace" font-size="14.00" fill="#de958e">bpy</text>
</g>
<!-- bpy&#45;&gt;shot_glass.blender.blender_tools -->
<g id="edge43" class="edge">
<title>bpy&#45;&gt;shot_glass.blender.blender_tools</title>
<path fill="none" stroke="#de958e" d="M1070.71,-775.06C1133.81,-772.5 1298.97,-764.07 1435,-742 1468.21,-736.61 1504.43,-728.35 1535.3,-720.58"/>
<polygon fill="#de958e" stroke="#de958e" points="1536.3,-723.94 1545.13,-718.08 1534.57,-717.16 1536.3,-723.94"/>
</g>
<!-- bpy&#45;&gt;shot_glass.hifive.validators -->
<g id="edge44" class="edge">
<title>bpy&#45;&gt;shot_glass.hifive.validators</title>
<path fill="none" stroke="#de958e" d="M1070.89,-773.26C1093.97,-769.73 1127.41,-761.77 1151,-744 1174.63,-726.2 1162.71,-704.9 1187,-688 1189.12,-686.53 1191.31,-685.13 1193.55,-683.81"/>
<polygon fill="#de958e" stroke="#de958e" points="1195.27,-686.86 1202.45,-679.07 1191.98,-680.68 1195.27,-686.86"/>
</g>
<!-- lunchbox.stopwatch -->
<g id="node26" class="node">
<title>lunchbox.stopwatch</title>
<polygon fill="#343434" stroke="#343434" points="300,-198 135,-198 135,-162 300,-162 300,-198"/>
<text text-anchor="middle" x="217.5" y="-176.3" font-family="Courier,monospace" font-size="14.00" fill="#de958e">lunchbox.stopwatch</text>
</g>
<!-- lunchbox.stopwatch&#45;&gt;shot_glass.obj.obj_parser -->
<g id="edge45" class="edge">
<title>lunchbox.stopwatch&#45;&gt;shot_glass.obj.obj_parser</title>
<path fill="none" stroke="#de958e" d="M300.21,-197.76C323.84,-202.89 349.79,-208.53 374.05,-213.8"/>
<polygon fill="#de958e" stroke="#de958e" points="373.45,-217.25 383.96,-215.96 374.93,-210.41 373.45,-217.25"/>
</g>
<!-- shot_glass.plotly&#45;&gt;shot_glass.plotly.plotly_tools -->
<g id="edge46" class="edge">
<title>shot_glass.plotly&#45;&gt;shot_glass.plotly.plotly_tools</title>
<path fill="none" stroke="#a0d17b" d="M281.73,-378C299.25,-373.22 318.32,-368.23 336,-364 345.76,-361.67 355.95,-359.36 366.15,-357.12"/>
<polygon fill="#a0d17b" stroke="#a0d17b" points="366.9,-360.54 375.93,-355 365.41,-353.7 366.9,-360.54"/>
</g>
<!-- pyparsing -->
<g id="node28" class="node">
<title>pyparsing</title>
<polygon fill="#343434" stroke="#343434" points="263,-252 172,-252 172,-216 263,-216 263,-252"/>
<text text-anchor="middle" x="217.5" y="-230.3" font-family="Courier,monospace" font-size="14.00" fill="#de958e">pyparsing</text>
</g>
<!-- pyparsing&#45;&gt;shot_glass.obj.obj_parser -->
<g id="edge47" class="edge">
<title>pyparsing&#45;&gt;shot_glass.obj.obj_parser</title>
<path fill="none" stroke="#de958e" d="M263.21,-234C286.69,-234 316.7,-234 346.43,-234"/>
<polygon fill="#de958e" stroke="#de958e" points="346.5,-237.5 356.5,-234 346.5,-230.5 346.5,-237.5"/>
</g>
<!-- mathutils -->
<g id="node29" class="node">
<title>mathutils</title>
<polygon fill="#343434" stroke="#343434" points="1356.5,-733 1265.5,-733 1265.5,-697 1356.5,-697 1356.5,-733"/>
<text text-anchor="middle" x="1311" y="-711.3" font-family="Courier,monospace" font-size="14.00" fill="#de958e">mathutils</text>
</g>
<!-- mathutils&#45;&gt;shot_glass.blender.blender_tools -->
<g id="edge48" class="edge">
<title>mathutils&#45;&gt;shot_glass.blender.blender_tools</title>
<path fill="none" stroke="#de958e" d="M1356.69,-712.75C1384.76,-711.34 1422.74,-709.44 1460.76,-707.52"/>
<polygon fill="#de958e" stroke="#de958e" points="1461.14,-711.01 1470.95,-707.01 1460.79,-704.02 1461.14,-711.01"/>
</g>
<!-- lunchbox.tools -->
<g id="node30" class="node">
<title>lunchbox.tools</title>
<polygon fill="#343434" stroke="#343434" points="1377,-457 1245,-457 1245,-421 1377,-421 1377,-457"/>
<text text-anchor="middle" x="1311" y="-435.3" font-family="Courier,monospace" font-size="14.00" fill="#de958e">lunchbox.tools</text>
</g>
<!-- lunchbox.tools&#45;&gt;shot_glass.blender.blender_tools -->
<g id="edge49" class="edge">
<title>lunchbox.tools&#45;&gt;shot_glass.blender.blender_tools</title>
<path fill="none" stroke="#de958e" d="M1377.24,-444.06C1397.04,-447.95 1418.02,-454.62 1435,-466 1458.35,-481.65 1454.45,-495.28 1471,-518 1511.96,-574.21 1561.98,-638.46 1589.62,-673.6"/>
<polygon fill="#de958e" stroke="#de958e" points="1587.21,-676.19 1596.15,-681.88 1592.71,-671.86 1587.21,-676.19"/>
</g>
<!-- lunchbox.tools&#45;&gt;shot_glass.hifive.operator_tools -->
<g id="edge50" class="edge">
<title>lunchbox.tools&#45;&gt;shot_glass.hifive.operator_tools</title>
<path fill="none" stroke="#de958e" d="M1377.14,-450.35C1412.24,-456.46 1456.56,-464.18 1497.12,-471.25"/>
<polygon fill="#de958e" stroke="#de958e" points="1496.62,-474.71 1507.07,-472.98 1497.82,-467.82 1496.62,-474.71"/>
</g>
<!-- lunchbox.tools&#45;&gt;shot_glass.hifive.operators -->
<g id="edge51" class="edge">
<title>lunchbox.tools&#45;&gt;shot_glass.hifive.operators</title>
<path fill="none" stroke="#de958e" d="M1377.04,-441.95C1472.94,-446.31 1654.23,-454.54 1777.68,-460.15"/>
<polygon fill="#de958e" stroke="#de958e" points="1777.8,-463.66 1787.95,-460.62 1778.12,-456.67 1777.8,-463.66"/>
</g>
<!-- plotly -->
<g id="node31" class="node">
<title>plotly</title>
<polygon fill="#343434" stroke="#343434" points="250.5,-360 184.5,-360 184.5,-324 250.5,-324 250.5,-360"/>
<text text-anchor="middle" x="217.5" y="-338.3" font-family="Courier,monospace" font-size="14.00" fill="#de958e">plotly</text>
</g>
<!-- plotly&#45;&gt;shot_glass.plotly.plotly_tools -->
<g id="edge52" class="edge">
<title>plotly&#45;&gt;shot_glass.plotly.plotly_tools</title>
<path fill="none" stroke="#de958e" d="M250.73,-341.35C270.59,-340.95 297.57,-340.41 325.74,-339.84"/>
<polygon fill="#de958e" stroke="#de958e" points="325.82,-343.34 335.75,-339.64 325.68,-336.34 325.82,-343.34"/>
</g>
<!-- wrapt -->
<g id="node32" class="node">
<title>wrapt</title>
<polygon fill="#343434" stroke="#343434" points="1340,-511 1282,-511 1282,-475 1340,-475 1340,-511"/>
<text text-anchor="middle" x="1311" y="-489.3" font-family="Courier,monospace" font-size="14.00" fill="#de958e">wrapt</text>
</g>
<!-- wrapt&#45;&gt;shot_glass.hifive.operator_tools -->
<g id="edge53" class="edge">
<title>wrapt&#45;&gt;shot_glass.hifive.operator_tools</title>
<path fill="none" stroke="#de958e" d="M1340.08,-492.81C1368.41,-492.62 1414.44,-492.31 1460.55,-492"/>
<polygon fill="#de958e" stroke="#de958e" points="1460.72,-495.5 1470.7,-491.94 1460.67,-488.5 1460.72,-495.5"/>
</g>
</g>
</svg>
